<?xml version="1.0" encoding="utf-8"?>
<!-- Generator: Adobe Illustrator 23.0.3, SVG Export Plug-In . SVG Version: 6.00 Build 0)  -->
<svg version="1.1" id="Ebene_1" xmlns="http://www.w3.org/2000/svg" xmlns:xlink="http://www.w3.org/1999/xlink" x="0px" y="0px"
	 viewBox="0 0 230 171.9" style="enable-background:new 0 0 230 171.9;" xml:space="preserve">
<style type="text/css">
	.st0{fill:#002D62;}
	.st1{clip-path:url(#SVGID_2_);}
	.st2{fill:#FFFFFF;}
	.st3{fill-rule:evenodd;clip-rule:evenodd;fill:#FFFFFF;}
	.st4{clip-path:url(#SVGID_4_);}
	.st5{clip-path:url(#SVGID_6_);}
</style>
<title>Zeichenfläche 3</title>
<rect y="0" class="st0" width="230" height="172"/>
<g>
	<defs>
		<rect id="SVGID_1_" x="-0.1" y="-0.4" width="230" height="171.9"/>
	</defs>
	<clipPath id="SVGID_2_">
		<use xlink:href="#SVGID_1_"  style="overflow:visible;"/>
	</clipPath>
	<g class="st1">
		<path class="st2" d="M119.2,71.8c0-1.2,1.4-2.1,3.2-2.1s3.2,0.9,3.2,2.1s-1.4,2.1-3.2,2.1S119.2,73,119.2,71.8"/>
		<polygon class="st2" points="72,93.8 77.8,93.8 81.3,80.3 81.4,80.3 84.3,93.8 90,93.8 95,75.8 90.2,75.8 87.4,88.9 87.3,88.9 
			84.5,75.8 78.5,75.8 75.1,88.9 75.1,88.9 72.7,75.8 67.8,75.8 		"/>
		<polygon class="st2" points="96,93.8 100.7,93.8 100.8,75.8 96.1,75.8 		"/>
		<polygon class="st2" points="103.2,93.8 107.9,93.8 108,84.9 108.1,84.9 113.7,93.8 119.2,93.8 112.9,84.3 119.5,75.8 114.1,75.8 
			108,84.2 108,84.2 108.1,75.8 103.4,75.8 		"/>
		<polygon class="st2" points="119.9,93.8 124.6,93.8 124.7,75.8 120.1,75.8 		"/>
		<polygon class="st2" points="127,93.8 131.3,93.8 131.4,82 131.4,82 137.9,93.8 143.3,93.8 143.4,75.8 139.2,75.8 139.1,87.6 
			139,87.6 132.8,75.8 127.2,75.8 		"/>
		<path class="st2" d="M161.6,84h-4.5l-0.1,6.1c-0.6,0.3-1.2,0.5-1.8,0.4c-3.4,0-5.4-2.6-5.4-5.8c-0.1-3.1,2.4-5.7,5.4-5.7
			c0.2,0,0.3,0,0.5,0c1.3,0,2.6,0.3,3.7,0.9l1.4-3.4c-1.7-0.9-3.7-1.4-5.6-1.3c-6.5,0-10.3,3.7-10.3,9.4c0,5.8,3.7,9.7,9.7,9.7
			c2.3,0.1,4.7-0.4,6.8-1.3L161.6,84z"/>
		<polygon class="st2" points="164.1,93.8 176.5,93.8 176.5,90 168.8,90 168.8,86.6 176.6,86.6 176.6,83 168.9,83 168.9,79.5 
			176.6,79.5 176.6,75.8 164.2,75.8 		"/>
		<path class="st3" d="M183.8,86.9h0.7c1,0,1.5,0.8,2,1.9l2.6,5h5.3l-3.1-5.6c-0.5-1.1-1.4-2.1-2.5-2.6l0,0c2.4,0,4.3-2,4.3-4.4
			c0-0.1,0-0.2,0-0.3c0-4.1-3.1-5.1-6.9-5.1H179l-0.2,18h4.7L183.8,86.9z M183.7,79.2h1.9c1.9,0,2.8,0.7,2.8,2.1
			c0,1.8-1.6,2.1-2.7,2.1h-2.1L183.7,79.2z"/>
	</g>
</g>
<g>
	<defs>
		<rect id="SVGID_3_" x="35.5" y="31.6" width="158.8" height="107.9"/>
	</defs>
	<clipPath id="SVGID_4_">
		<use xlink:href="#SVGID_3_"  style="overflow:visible;"/>
	</clipPath>
	<g class="st4">
		<path class="st2" d="M57.5,59.7c-1.3,2.9-6.7,15.9-7.3,18c-2.4,8.9,5.4,12.4,14.1,13c1.1,0.1,2.2,0.1,3.2,0l1,4.7v4.9l-4.5,0.2
			c-10.1,0.1-22.7-7.3-15.7-22.3c0.5-1,0.6-1.7,3.6-7.9C53.9,66.1,56.2,61.9,57.5,59.7L57.5,59.7"/>
		<path class="st2" d="M55.5,38.9c0,0.4,0.4,0.7,0.3,1.1s-0.7,0.7-1.6,0.5c-0.4-0.1-0.9-0.5-0.8-1.7c0.1-1.5,1.4-2.7,2.9-2.6
			c1.3,0,2.4,0.9,2.8,2.1c0.9,2.4-0.2,5.1-2.4,6.3c-1.9,0.7-4.1,0.2-5.5-1.3c-1.2-1.2-1.4-3.5-1-5.5c0.7-4.1,4.6-6.8,8.7-6.1
			c0.7,0.1,1.4,0.4,2.1,0.7c3.8,1.8,4.9,6.4,4.9,9.1c0,2.8-0.3,5.6-1,8.4c-0.9,3.8-4.5,14.8-4.8,15.8s-3,6.9,0.2,9.6
			c0.8,0.7,1.9,1,2.9,0.8h0.9l1.5,7.1h-1.4c-6.4,0.5-12.5-5.7-10.4-11.4c4.6-12,8-20.9,8-20.9S45.1,77.4,43.4,85.5
			c-1.5,6.9,0.3,14.3,5.4,18.1c6.8,5,12.1,4.6,15.2,4.2l4.4-0.8l-0.1,8.9l-5,0.1c-2.9,0-14.8,0.9-22.1-8.1
			c-15.7-19.4,5.2-38.3,16.4-55.3c1.8-2.7,4.1-7.9,3.8-12.1c0.1-1.4-0.5-2.9-1.5-3.9c-1-1-1.7-1.4-4.4-1.6c-1.5-0.1-2.9,0.9-3.3,2.5
			C52,37.8,51.9,40.1,53,41c0.8,0.7,1.9,0.9,2.9,0.6c0.8-0.2,1.7-0.9,1.6-1.8s-0.4-1.3-1-1.4C56,38.5,55.5,38.5,55.5,38.9"/>
	</g>
</g>
<g>
	<defs>
		<rect id="SVGID_5_" x="-0.1" y="-0.4" width="230" height="171.9"/>
	</defs>
	<clipPath id="SVGID_6_">
		<use xlink:href="#SVGID_5_"  style="overflow:visible;"/>
	</clipPath>
	<g class="st5">
		<path class="st3" d="M76.8,109.4h0.7c1,0,1.5,0.8,2,1.9l2.6,5h5.3l-3.2-5.6c-0.5-1.1-1.4-2.1-2.5-2.6l0,0c2.4,0,4.4-2,4.3-4.4
			c0-0.1,0-0.1,0-0.2c0-4.1-3.1-5.1-6.9-5.1h-7l-0.2,18h4.7L76.8,109.4z M76.7,101.7h1.9c1.9,0,2.8,0.7,2.8,2.1
			c0,1.8-1.6,2.1-2.7,2.1h-2.1L76.7,101.7z"/>
		<polygon class="st2" points="88.2,116.2 100.7,116.2 100.7,112.5 93,112.5 93,109.1 100.7,109.1 100.7,105.5 93.1,105.5 93.1,102 
			100.8,102 100.8,98.3 88.4,98.3 		"/>
		<polygon class="st2" points="103,116.2 107.7,116.2 107.8,98.3 103.2,98.3 		"/>
		<path class="st2" d="M109.7,115.8c1.8,0.6,3.7,1,5.6,1c4,0,7.6-1.7,7.6-6.1c0-2.5-1.2-4.4-5.8-5.4c-2.1-0.4-2.6-1.1-2.6-1.8
			c0-1.2,0.8-2,3.1-2c1.3,0.1,2.6,0.3,3.8,0.8l1.3-3.3c-1.8-0.7-3.8-1.1-5.7-1.2c-3.4,0-7.3,1.8-7.3,5.7c0,3.5,2.1,4.6,4.2,5.2
			s4.2,0.8,4.2,2.4s-1.5,2-3,2c-1.4-0.1-2.8-0.3-4.2-0.8L109.7,115.8z"/>
		<polygon class="st2" points="124.6,116.2 137,116.2 137,112.5 129.3,112.5 129.4,109.1 137.1,109.1 137.1,105.5 129.4,105.5 
			129.5,102 137.2,102 137.2,98.3 124.8,98.3 		"/>
		<polygon class="st2" points="139.4,116.2 143.6,116.2 143.7,104.4 143.8,104.4 150.2,116.2 155.6,116.2 155.8,98.3 151.6,98.3 
			151.4,110.1 151.4,110.1 145.2,98.3 139.5,98.3 		"/>
		<path class="st2" d="M60.2,129.3l0.2-1.3H59c-0.1,0.5-0.2,0.9-0.2,1.2l-1.1,5.2l-0.3,1.6h1.5l0.3-1.6l0.5-2.4c0.2-1,1.1-3,2.9-3
			c0.2,0,0.4,0.1,0.6,0.2l0.3-1.3c-0.2-0.1-0.4-0.1-0.7-0.1C61.8,127.7,60.7,128.3,60.2,129.3"/>
		<polygon class="st2" points="96.2,134.4 94.5,138.1 96,138.1 98.1,134.4 98.2,134.3 96.3,134.3 		"/>
		<path class="st2" d="M72.1,134.4L72.1,134.4c-0.4,0.4-0.9,0.6-1.5,0.6c-0.5,0-0.9-0.2-1.2-0.6c-0.1-0.2-0.1-0.3-0.1-0.5
			c0-1.5,1.7-1.8,2.8-1.8h1.1C73.1,133,72.7,133.8,72.1,134.4 M71.8,127.8c-0.8,0-1.5,0.2-2.2,0.4l-0.3,1.5c0.7-0.4,1.6-0.7,2.4-0.7
			c1.1,0,1.8,0.4,1.8,1.6c0,0.2,0,0.3-0.1,0.5c-0.4,0-0.8,0-1.1,0c-2.7,0-4.7,0.6-4.7,2.9c0,0.1,0,0.3,0,0.4l0,0
			c0.3,1.1,1.3,1.9,2.5,1.8c1.1,0,2.1-0.6,2.6-1.5l-0.2,1.3H74c0.1-0.5,0.2-1,0.3-1.6l0,0c0.2-0.9,0.4-1.9,0.6-2.8
			c0.1-0.4,0.1-0.8,0.2-1.3C75,128.4,73.4,127.8,71.8,127.8"/>
		<path class="st2" d="M91.7,134.4c-0.4,0.4-0.9,0.6-1.4,0.6c-0.5,0-1.1-0.2-1.4-0.6l0,0c-0.4-0.4-0.6-1-0.6-1.5
			c0-2,1.1-3.9,2.9-3.9c1,0,1.8,0.7,1.8,1.6c0,0.1,0,0.2,0,0.3C93.1,132.3,92.6,133.5,91.7,134.4L91.7,134.4z M91.7,127.8
			c-1-0.1-1.9,0.3-2.5,1l1-4.6h-1.5l-2.2,10.2l-0.3,1.6h1.4l0.3-1.3c0.5,1.1,1.6,1.7,2.7,1.5c1.3,0,2.5-0.6,3.1-1.8
			c0.6-1.1,0.9-2.3,0.9-3.6c0.1-1.5-1-2.9-2.6-3C91.9,127.9,91.8,127.9,91.7,127.8"/>
		<path class="st2" d="M82.8,132c-0.2,0.9-0.7,1.8-1.4,2.4c-0.4,0.4-1,0.6-1.6,0.6c-0.5,0-0.9-0.2-1.2-0.6l0,0
			c-0.2-0.3-0.3-0.6-0.3-0.9c0-0.3,0-0.5,0.1-0.8l1-4.8H78l-0.9,4.2c-0.1,0.5-0.2,1-0.2,1.5c0,0.3,0,0.5,0.1,0.8
			c0.3,1.2,1.4,1.9,2.6,1.8c1.1,0,2.1-0.5,2.7-1.5l-0.2,1.3h1.4c0.1-0.5,0.2-0.9,0.2-1.2l0.1-0.4l1.3-6.4h-1.5L82.8,132z"/>
		<polygon class="st2" points="64,134.4 63.6,136 65.1,136 65.4,134.4 67.6,124.3 66.1,124.3 		"/>
		<path class="st2" d="M47.3,134.4c0.7,1.2,2.1,1.9,3.5,1.8c1.4,0.1,2.8-0.6,3.6-1.8l0,0c0.6-0.9,1-1.9,1.2-2.9l1.4-6.4h-1.6
			l-1.2,5.5c-0.3,1.4-0.7,3.1-1.9,3.8c-0.4,0.3-0.9,0.4-1.4,0.4c-0.5,0-1-0.1-1.5-0.4l0,0c-0.6-0.4-1-1.1-0.9-1.8
			c0-0.3,0.1-0.7,0.1-1L50,125h-1.6l-1.2,5.4c-0.2,0.8-0.3,1.6-0.4,2.4C46.9,133.4,47.1,133.9,47.3,134.4"/>
		<polygon class="st2" points="161.2,134.4 161.2,134.4 161.2,134.4 160.6,128 158.9,128 155.4,134.4 155.4,134.4 155.4,134.4 
			154.9,128 153.4,128 154.1,134.4 154.3,136 156,136 156.9,134.4 159.5,129.6 160,134.4 160.1,136 161.8,136 162.7,134.4 
			166.2,128 164.6,128 		"/>
		<path class="st2" d="M110.1,134.4L110.1,134.4c-0.4,0.4-0.9,0.6-1.4,0.6c-0.5,0-1-0.2-1.4-0.6l0,0c-0.4-0.5-0.6-1.1-0.5-1.7
			c0-1.5,0.9-3.7,2.7-3.7c1.1,0,2,0.9,2,2c0,0.1,0,0.1,0,0.2C111.4,132.4,111,133.6,110.1,134.4 M113,124.3l-1,5.1
			c-0.5-1-1.5-1.6-2.6-1.5c-2.7,0-4.1,2.5-4.1,5c0,0.5,0.1,1.1,0.3,1.6l0,0c0.7,1.5,2.6,2.2,4.1,1.5c0.5-0.2,1-0.6,1.3-1.1
			c-0.1,0.4-0.2,0.9-0.2,1.2h1.3c0.1-0.5,0.1-1,0.2-1.6l0,0c0.1-0.4,0.1-0.7,0.2-1.1l2-9.1L113,124.3z"/>
		<path class="st2" d="M189,125.6l-1.6,0.5L187,128h-1.8l-0.2,1.2h1.8l-0.7,3.3c-0.1,0.6-0.2,1.2-0.3,1.9l0,0c0,0.9,0.7,1.7,1.7,1.8
			c0.1,0,0.2,0,0.2,0c0.5,0,1,0,1.4-0.2l0.2-1.2c-0.3,0.1-0.7,0.2-1,0.2c-0.6,0-0.9-0.2-1-0.6v-0.3c0-0.5,0.1-1,0.2-1.5l0.7-3.4h2.2
			l0.2-1.2h-2.2L189,125.6z"/>
		<path class="st2" d="M179.9,134.4L179.9,134.4c-0.4,0.2-0.9,0.4-1.3,0.4c-0.4,0-0.8-0.1-1.1-0.4c-0.5-0.4-0.7-1.1-0.7-1.7
			c0-1.5,0.8-3.7,2.5-3.7c1.1,0,2,0.9,2,2c0,0.1,0,0.1,0,0.2C181.4,132.5,180.9,133.7,179.9,134.4 M175.6,134.4
			c0.5,1,1.5,1.6,2.6,1.6c0.9,0.1,1.8-0.2,2.4-0.9l-0.2,0.9c-0.2,1.4-1.4,2.4-2.8,2.3c-0.9,0-1.8-0.3-2.6-0.7l-0.3,1.3
			c0.9,0.4,1.8,0.6,2.7,0.6c2.5,0,4-1.3,4.3-2.9l0.5-2.1l1.4-6.4h-1.4l-0.3,1.4c-0.5-1-1.5-1.7-2.6-1.6c-2.3,0-4,2-4,5
			C175.2,133.4,175.4,134,175.6,134.4L175.6,134.4z"/>
		<path class="st2" d="M126.3,129.3l0.2-1.3h-1.4c-0.1,0.5-0.2,0.9-0.2,1.2l-1.1,5.2l-0.3,1.6h1.5l0.3-1.6l0.5-2.4
			c0.2-1,1.1-3,2.9-3c0.2,0,0.4,0.1,0.6,0.2l0.3-1.3c-0.2-0.1-0.4-0.1-0.7-0.1C127.9,127.8,126.9,128.3,126.3,129.3"/>
		<path class="st2" d="M120.8,131.3h-4.1c0.2-1.2,1.2-2.1,2.4-2.3c0.8-0.1,1.6,0.5,1.7,1.3c0,0.1,0,0.2,0,0.3
			C120.8,130.8,120.8,131,120.8,131.3 M115.3,134.4c0.6,1.2,2,1.9,3.3,1.8c0.8,0,1.6-0.1,2.4-0.3l0.2-1.4c-0.7,0.3-1.5,0.5-2.3,0.5
			c-0.7,0.1-1.4-0.1-1.9-0.6l0,0c-0.4-0.4-0.6-1-0.6-1.6c0-0.2,0-0.3,0-0.5h5.6c0.1-0.5,0.1-1,0.1-1.4c0.2-1.5-0.9-2.9-2.5-3.1
			c-0.2,0-0.4,0-0.5,0c-2.7,0.3-4.6,2.7-4.3,5.3C115,133.6,115.1,134,115.3,134.4L115.3,134.4z"/>
		<path class="st2" d="M139.9,134.4c-0.4,0.4-0.9,0.6-1.4,0.6c-0.5,0-1.1-0.2-1.4-0.6l0,0c-0.4-0.4-0.6-1-0.6-1.5
			c0-2,1.1-3.9,2.9-3.9c1,0,1.8,0.7,1.8,1.6c0,0.1,0,0.2,0,0.4C141.2,132.3,140.7,133.5,139.9,134.4L139.9,134.4z M139.9,127.8
			c-1-0.1-1.9,0.3-2.5,1l1-4.6h-1.5l-2.2,10.2l-0.4,1.6h1.4l0.3-1.3c0.5,1.1,1.6,1.7,2.7,1.5c1.3,0,2.5-0.6,3.1-1.8
			c0.6-1.1,0.9-2.3,0.9-3.6c0.1-1.5-1-2.9-2.6-3C140,127.9,139.9,127.9,139.9,127.8"/>
		<path class="st2" d="M150.1,131.3h-4.1c0.2-1.2,1.2-2.1,2.4-2.3c0.8-0.1,1.6,0.5,1.7,1.3c0,0.1,0,0.2,0,0.3
			C150.2,130.8,150.2,131,150.1,131.3 M144.6,134.4c0.6,1.2,2,2,3.4,1.8c0.8,0,1.6-0.1,2.4-0.3l0.2-1.4c-0.7,0.3-1.5,0.5-2.3,0.5
			c-0.7,0.1-1.4-0.1-1.9-0.6l0,0c-0.4-0.4-0.6-1-0.6-1.6c0-0.2,0-0.3,0-0.5h5.6c0.1-0.5,0.1-1,0.1-1.4c0.2-1.5-0.9-2.9-2.5-3.1
			c-0.2,0-0.4,0-0.5,0c-2.7,0.3-4.6,2.7-4.3,5.4C144.4,133.6,144.5,134,144.6,134.4L144.6,134.4z"/>
		<path class="st2" d="M172.1,131.3H168c0.2-1.2,1.2-2.1,2.4-2.2c0.8-0.1,1.6,0.5,1.7,1.3c0,0.1,0,0.2,0,0.3
			C172.1,130.8,172.1,131,172.1,131.3 M166.6,134.4c0.6,1.2,2,1.9,3.3,1.8c0.8,0,1.6-0.1,2.4-0.3l0.2-1.4c-0.7,0.3-1.5,0.5-2.3,0.5
			c-0.7,0.1-1.4-0.1-1.9-0.6l0,0c-0.4-0.4-0.6-1-0.6-1.6c0-0.2,0-0.3,0-0.5h5.6c0.1-0.5,0.1-1,0.1-1.4c0.2-1.5-0.9-2.9-2.5-3.1
			c-0.2,0-0.4,0-0.5,0c-2.5,0.1-4.5,2.2-4.4,4.7c0,0,0,0,0,0C166.2,133.2,166.3,133.8,166.6,134.4L166.6,134.4z"/>
		<polygon class="st2" points="191.3,134.4 191,136 192.8,136 193.1,134.4 191.3,134.4 191,136 192.8,136 193.1,134.4 		"/>
	</g>
</g>
</svg>
