<?xml version="1.0" standalone="no"?>
<!DOCTYPE svg PUBLIC "-//W3C//DTD SVG 1.1//EN" "http://www.w3.org/Graphics/SVG/1.1/DTD/svg11.dtd" >
<svg xmlns="http://www.w3.org/2000/svg">
<metadata></metadata>
<defs>
<font id="cooper_md_btmedium" horiz-adv-x="1157" >
<font-face units-per-em="2048" ascent="1556" descent="-492" />
<missing-glyph horiz-adv-x="578" />
<glyph horiz-adv-x="2048" />
<glyph horiz-adv-x="2048" />
<glyph unicode="&#xd;" horiz-adv-x="578" />
<glyph unicode=" "  horiz-adv-x="578" />
<glyph unicode="&#x09;" horiz-adv-x="578" />
<glyph unicode="&#xa0;" horiz-adv-x="578" />
<glyph unicode="!" horiz-adv-x="578" d="M127 133q0 69 47 115.5t115 46.5t114 -46.5t46 -115.5q0 -68 -46.5 -115t-113.5 -47q-68 0 -115 47.5t-47 114.5zM143 1300q0 115 34 164t112 49q77 0 111 -49t34 -164q0 -172 -18 -361t-51 -370q-16 -79 -33 -110t-43 -31q-27 0 -44 31t-32 110q-34 183 -52 371t-18 360 z" />
<glyph unicode="&#x22;" horiz-adv-x="694" d="M84 1354q0 52 24.5 80t69.5 28q47 0 71.5 -27.5t24.5 -80.5q0 -16 -0.5 -24.5t-1.5 -15.5l-73 -458h-39l-74 459q-1 7 -1.5 15.5t-0.5 23.5zM420 1354q0 51 25.5 79.5t70.5 28.5t70.5 -28t25.5 -78q0 -13 -3 -36q-1 -4 -1 -5l-73 -459h-39l-74 458q-1 8 -1.5 16.5 t-0.5 23.5z" />
<glyph unicode="#" horiz-adv-x="1575" d="M70 428l59 168h301l92 262h-319l61 166h318l155 436h183l-156 -436h268l156 436h182l-156 -436h291l-59 -166h-291l-92 -262h307l-59 -168h-307l-154 -434h-184l155 434h-268l-154 -434h-184l156 434h-301zM608 594h275l94 264h-275z" />
<glyph unicode="$" d="M147 963q0 140 93 229.5t258 105.5v144q0 28 8 37.5t31 9.5h55q21 0 30 -10.5t9 -38.5v-142q182 -14 256 -72t74 -184q0 -34 -13 -51.5t-39 -17.5q-31 0 -76 50q-12 13 -18 19q-66 72 -119 98.5t-121 26.5q-83 0 -131.5 -41.5t-48.5 -111.5q0 -57 34 -99t108 -77l178 -86 q159 -77 230 -165.5t71 -209.5q0 -158 -101 -255.5t-284 -117.5v-184q0 -29 -8.5 -39t-30.5 -10h-55q-23 0 -31 10t-8 39v180q-192 17 -270 77.5t-78 194.5q0 73 19 108.5t58 35.5q52 0 94 -139l3 -9q16 -56 80.5 -93.5t148.5 -37.5q96 0 154.5 51t58.5 134q0 57 -35.5 102 t-112.5 82l-149 76q-186 94 -254 177.5t-68 203.5z" />
<glyph unicode="%" horiz-adv-x="1587" d="M27 977q0 145 101.5 245.5t246.5 100.5q151 0 245.5 -96.5t94.5 -251.5q0 -156 -96.5 -257.5t-241.5 -101.5q-152 0 -251 102t-99 259zM221 1024q0 -133 50 -218t126 -85q57 0 90 50.5t33 137.5q0 125 -50 217.5t-110 92.5q-68 0 -103.5 -49.5t-35.5 -145.5zM332 39 q0 13 177 284t333 523q57 89 125 201.5t141 238.5q12 23 22 31t23 8q23 0 63.5 -27.5t40.5 -48.5q0 -3 -189 -279t-380 -587q-76 -123 -152 -267.5t-94 -144.5q-31 0 -70.5 25t-39.5 43zM872 332q0 145 102 245.5t247 100.5q151 0 245.5 -96t94.5 -250q0 -156 -96.5 -258.5 t-241.5 -102.5q-152 0 -251.5 102t-99.5 259zM1067 383q0 -134 50 -220.5t126 -86.5q56 0 89.5 52t33.5 140q0 124 -49 214.5t-109 90.5q-70 0 -105.5 -48t-35.5 -142z" />
<glyph unicode="&#x26;" horiz-adv-x="1767" d="M109 504q0 134 61.5 237t198.5 197l4 8q-45 47 -67.5 97.5t-22.5 105.5q0 163 120 268t310 105q127 0 216 -50t89 -116q0 -22 -20.5 -39t-49.5 -17q-14 0 -87.5 27t-133.5 27q-85 0 -134.5 -54t-49.5 -147q0 -38 13 -68.5t40 -56.5q25 -23 71.5 -45t61.5 -22 q10 0 19.5 -8.5t9.5 -16.5q0 -22 -39 -64.5t-72 -42.5q-17 0 -46 8.5t-71 26.5q-58 -51 -89 -126.5t-31 -168.5q0 -198 130.5 -327t331.5 -129q172 0 275.5 87t103.5 228q0 88 -42 140.5t-113 52.5q-73 0 -119.5 -43t-46.5 -109q0 -13 0.5 -19.5t0.5 -11.5q-9 -3 -18 -4.5 t-16 -1.5q-38 0 -60 28.5t-22 78.5q0 152 461 367l29 14q121 56 183 120.5t62 135.5q0 50 -26.5 74t-81.5 24q-14 0 -40 -4t-38 -4q-23 0 -37 14t-14 37q0 45 57 75.5t146 30.5q111 0 176 -61t65 -166q0 -132 -112 -237t-345 -191q97 -43 147 -120.5t50 -184.5 q0 -77 -31 -152.5t-90 -138.5q-95 -103 -237.5 -155t-329.5 -52q-317 0 -508.5 148.5t-191.5 390.5z" />
<glyph unicode="'" horiz-adv-x="358" d="M84 1354q0 52 24.5 80t69.5 28q47 0 71.5 -27.5t24.5 -80.5q0 -16 -0.5 -24.5t-1.5 -15.5l-73 -458h-39l-74 459q-1 7 -1.5 15.5t-0.5 23.5z" />
<glyph unicode="(" horiz-adv-x="758" d="M121 596q0 207 80 400t229 343q79 81 164 130t141 49q25 0 37 -10t12 -29t-67 -66t-107 -90q-114 -122 -172.5 -307.5t-58.5 -427.5q0 -230 59.5 -415.5t171.5 -305.5q39 -41 106.5 -88t67.5 -68q0 -19 -12 -29t-37 -10q-56 0 -141 49t-164 129q-148 151 -228.5 344.5 t-80.5 401.5z" />
<glyph unicode=")" horiz-adv-x="758" d="M-23 -289q0 19 67.5 66t107.5 90q114 122 172.5 307.5t58.5 427.5q0 231 -59 416t-170 305q-40 41 -108.5 88t-68.5 68q0 19 12.5 29t37.5 10q55 0 140.5 -49t164.5 -130q149 -151 230 -344t81 -399q0 -207 -81 -401t-230 -345q-79 -80 -164.5 -129t-140.5 -49 q-25 0 -37.5 10t-12.5 29z" />
<glyph unicode="*" horiz-adv-x="1024" d="M123 1196q0 56 34.5 92.5t88.5 36.5q34 0 61 -17t55 -61q24 -37 47 -55t46 -18q11 0 16.5 6t5.5 18q0 32 -44 92.5t-44 100.5q0 53 35.5 90t87.5 37q51 0 86 -35.5t35 -87.5q0 -39 -44 -101t-44 -94q0 -12 6 -19t16 -7q22 0 43 16.5t47 54.5q30 44 56.5 61t60.5 17 q54 0 91.5 -34t37.5 -83q0 -53 -38 -91t-91 -38q-19 0 -67 18.5t-82 18.5q-20 0 -31.5 -6.5t-11.5 -17.5q0 -21 26.5 -41t71.5 -31q58 -14 88.5 -47.5t30.5 -83.5q0 -51 -36.5 -86t-88.5 -35t-87.5 36t-35.5 89q0 17 1 35l1 18q0 43 -12 70.5t-29 27.5q-18 0 -30.5 -27.5 t-12.5 -70.5q0 -4 1 -21.5t1 -31.5q0 -54 -34.5 -89.5t-86.5 -35.5q-54 0 -90.5 35.5t-36.5 89.5q0 47 28.5 77t90.5 48q46 13 72 32.5t26 41.5q0 11 -11.5 17.5t-31.5 6.5q-33 0 -82.5 -17.5t-70.5 -17.5q-51 0 -86 34t-35 83z" />
<glyph unicode="+" horiz-adv-x="1706" d="M254 528v166h514v527h170v-527h514v-166h-514v-528h-170v528h-514z" />
<glyph unicode="," horiz-adv-x="578" d="M158 135q0 69 43 114.5t108 45.5q70 0 116 -60.5t46 -154.5q0 -70 -27.5 -146t-95.5 -186q-34 -57 -57.5 -82.5t-40.5 -25.5q-30 0 -50 10.5t-20 23.5q0 10 21 41q13 19 20 31q38 61 61 114t23 74q0 18 -7 27.5t-36 22.5q-53 21 -78.5 58.5t-25.5 92.5z" />
<glyph unicode="-" horiz-adv-x="711" d="M90 471q0 20 8.5 47.5t24.5 61.5q14 29 29 39t59 10q2 0 49.5 -1t93.5 -1q86 0 179 6q23 2 28 2q33 0 47.5 -12t14.5 -39q0 -62 -32.5 -111t-80.5 -49q-13 0 -49 2t-58 2q-119 0 -233 -9q-17 -1 -20 -1q-33 0 -46.5 12t-13.5 41z" />
<glyph unicode="." horiz-adv-x="578" d="M127 133q0 69 47 115.5t115 46.5t115 -46.5t47 -115.5q0 -67 -47.5 -114.5t-114.5 -47.5q-68 0 -115 47.5t-47 114.5z" />
<glyph unicode="/" horiz-adv-x="569" d="M-109 -164q0 9 2.5 18.5t6.5 20.5l573 1608q7 19 21.5 27t60.5 8q36 0 49.5 -5.5t13.5 -17.5q0 -9 -2.5 -20.5t-7.5 -24.5l-573 -1608q-6 -18 -20.5 -25t-55.5 -7q-39 0 -53.5 5.5t-14.5 20.5z" />
<glyph unicode="0" d="M61 662q0 296 141 478.5t363 182.5q230 0 379.5 -190.5t149.5 -489.5q0 -305 -139 -487.5t-367 -182.5q-232 0 -379.5 191t-147.5 498zM324 823q0 -310 87 -510t214 -200q100 0 154.5 86.5t54.5 249.5q0 318 -89.5 526.5t-220.5 208.5q-96 0 -148 -94t-52 -267z" />
<glyph unicode="1" d="M244 63q0 51 88 65q58 8 85 21q22 11 30 23.5t12 45.5q3 36 4.5 146t1.5 488q0 30 1 75t1 60q0 74 -12.5 95.5t-51.5 21.5q-14 0 -47 -3t-51 -3q-31 0 -46 10.5t-15 32.5q0 30 31 54t108 52q93 34 178.5 53t134.5 19q43 0 65.5 -16t22.5 -46q0 -34 -41 -61 q-12 -8 -14 -10q-13 -16 -17.5 -98.5t-4.5 -395.5q0 -160 1.5 -290t4.5 -181q2 -35 11 -48.5t34 -25.5q26 -11 81 -19q87 -13 87 -60q0 -43 -50.5 -58.5t-257.5 -15.5h-34q-235 0 -287.5 14.5t-52.5 54.5z" />
<glyph unicode="2" d="M29 49q0 48 138 175q80 72 128 120q272 268 342 379t70 217q0 98 -55.5 157.5t-145.5 59.5q-62 0 -119 -27t-116 -85q-16 -15 -42 -45q-54 -62 -94 -62q-29 0 -45 16t-16 45q0 30 17 65t50 71q85 91 197.5 139.5t239.5 48.5q189 0 305 -98t116 -256q0 -96 -49 -188.5 t-157 -198.5q-50 -49 -177 -159t-198 -177q-5 -8 -7.5 -14t-2.5 -9q0 -6 7.5 -9t22.5 -3h328q57 0 85.5 9t45.5 30q16 20 38 58q43 73 85 73q24 0 39.5 -18t15.5 -46q0 -50 -13 -106t-40 -125q-34 -83 -62 -115t-61 -32q-25 0 -37 15t-12 46h-727q-61 0 -77.5 10t-16.5 39z " />
<glyph unicode="3" d="M29 -72q0 30 22.5 51t54.5 21q3 0 89 -21.5t172 -21.5q192 0 286.5 76.5t94.5 232.5q0 120 -71 192t-190 72q-32 0 -81 -9t-66 -9q-29 0 -42 15.5t-13 50.5q0 37 75 66q25 9 39 15q129 56 189.5 125.5t60.5 161.5q0 100 -54.5 158.5t-148.5 58.5q-78 0 -184 -54t-131 -54 q-23 0 -41 18.5t-18 42.5q0 22 16.5 43t48.5 41q99 63 202 94t212 31q172 0 275.5 -96t103.5 -254q0 -95 -52.5 -177t-152.5 -141q146 -23 225.5 -119t79.5 -249q0 -221 -166.5 -352.5t-447.5 -131.5q-180 0 -283.5 33.5t-103.5 89.5z" />
<glyph unicode="4" d="M6 184q0 80 309 499l80 110q28 37 78 107q306 421 395 421q48 0 67 -26.5t19 -104.5v-905h103q38 0 49.5 -9.5t11.5 -37.5v-78q0 -28 -11.5 -37.5t-49.5 -9.5h-103v-314q0 -43 -11.5 -53t-72.5 -10h-67q-67 0 -78.5 10.5t-11.5 52.5v314h-584q-86 0 -104.5 13.5 t-18.5 57.5zM205 285h508v698q-138 -163 -265 -337.5t-243 -360.5z" />
<glyph unicode="5" d="M102 -39q0 26 14.5 41.5t39.5 15.5q10 0 107.5 -30.5t189.5 -30.5q129 0 205.5 81.5t76.5 219.5q0 93 -60 152.5t-212 111.5q-75 26 -188 49t-113 52q0 46 32 176.5t87 306.5q31 95 46.5 129.5t28.5 44.5q10 7 33 10.5t62 3.5h620q-25 -143 -55.5 -183t-130.5 -40h-348 q-66 0 -87 -6t-32 -20q-24 -30 -46 -103.5t-22 -132.5q0 -30 101 -51q80 -16 135 -31q239 -64 336.5 -162t97.5 -268q0 -216 -151 -350.5t-396 -134.5q-163 0 -267 43t-104 106z" />
<glyph unicode="6" d="M78 545q0 182 72 358.5t206 323.5q93 100 159 152.5t99 52.5q40 0 78.5 -25.5t38.5 -50.5q0 -11 -66 -76.5t-114 -132.5q-63 -86 -106 -175.5t-66 -185.5q75 63 153.5 94t161.5 31q172 0 285 -126t113 -322q0 -219 -144.5 -355.5t-376.5 -136.5q-221 0 -357 158t-136 416 zM375 485q0 -159 71 -262.5t179 -103.5q95 0 152 67t57 183q0 156 -72 259t-178 103q-94 0 -151.5 -67t-57.5 -179z" />
<glyph unicode="7" d="M39 983q0 44 17 112t46 134q24 53 44.5 76.5t43.5 23.5q3 0 40.5 -17.5t88.5 -17.5h637q66 0 89.5 -14t23.5 -51q0 -18 -8 -47.5t-25 -73.5l-471 -1248q-1 -3 -4 -11q-36 -95 -106 -95q-84 0 -139.5 24t-55.5 60q0 10 8.5 32.5t34.5 78.5l451 959q4 9 14 29q43 91 43 114 q0 25 -20 37t-64 12h-367q-78 0 -104 -11.5t-41 -39.5q-5 -9 -14 -26q-61 -116 -105 -116q-30 0 -43.5 17.5t-13.5 58.5z" />
<glyph unicode="8" d="M78 356q0 113 69.5 206.5t214.5 174.5q-118 57 -178.5 138t-60.5 184q0 163 130 263.5t345 100.5q190 0 311 -91t121 -230q0 -100 -62 -179.5t-202 -154.5q156 -74 232.5 -173t76.5 -226q0 -171 -139 -284.5t-352 -113.5q-224 0 -365 108t-141 277zM324 385 q0 -113 81 -194.5t193 -81.5q93 0 156 59t63 145q0 93 -79 173t-244 155q-86 -50 -128 -113.5t-42 -142.5zM395 1114q0 -73 56 -133t184 -123q76 55 111.5 110.5t35.5 116.5q0 84 -60.5 144.5t-146.5 60.5q-77 0 -128.5 -50t-51.5 -126z" />
<glyph unicode="9" d="M63 840q0 214 144 349.5t373 135.5q220 0 355.5 -157t135.5 -414q0 -183 -72 -360.5t-206 -323.5q-92 -99 -159.5 -152t-101.5 -53q-38 0 -76 26t-38 52q0 11 64.5 77t113.5 132q62 85 105 172.5t67 179.5q-80 -63 -149.5 -92t-137.5 -29q-184 0 -301 127t-117 330z M326 924q0 -161 67.5 -260t175.5 -99q96 0 154.5 70t58.5 184q0 167 -66 266t-175 99q-98 0 -156.5 -71t-58.5 -189z" />
<glyph unicode=":" horiz-adv-x="578" d="M127 133q0 69 47 115.5t115 46.5t115 -46.5t47 -115.5q0 -67 -47.5 -114.5t-114.5 -47.5q-68 0 -115 47.5t-47 114.5zM127 895q0 68 47 115t115 47t115 -47t47 -115q0 -67 -47 -113.5t-115 -46.5t-115 46.5t-47 113.5z" />
<glyph unicode=";" horiz-adv-x="578" d="M121 895q0 69 46 115.5t114 46.5t114.5 -47t46.5 -115q0 -67 -46.5 -113.5t-114.5 -46.5t-114 46t-46 114zM143 135q0 69 42.5 114.5t107.5 45.5q70 0 117 -61t47 -154q0 -70 -27.5 -146t-95.5 -186q-35 -57 -58 -82.5t-40 -25.5q-30 0 -51 10.5t-21 23.5q0 9 20 37 q14 21 23 35q38 61 61 114t23 74q0 30 -42 48l-4 2q-51 21 -76.5 58.5t-25.5 92.5z" />
<glyph unicode="&#x3c;" horiz-adv-x="1706" d="M264 530v160l1178 486v-185l-934 -381l934 -381v-182z" />
<glyph unicode="=" horiz-adv-x="1706" d="M254 322v165h1198v-165h-1198zM254 733v168h1198v-168h-1198z" />
<glyph unicode="&#x3e;" horiz-adv-x="1706" d="M264 47v182l934 381l-934 381v185l1178 -486v-160z" />
<glyph unicode="?" horiz-adv-x="1010" d="M90 1204q0 130 123.5 222t304.5 92q183 0 293.5 -91t110.5 -239q0 -85 -36 -153t-136 -156q-10 -9 -32 -27q-102 -85 -132 -174q-14 -41 -15.5 -101t-5.5 -74q-11 -42 -24.5 -53.5t-40.5 -11.5q-48 0 -69 31.5t-21 103.5q0 74 19 145.5t58 141.5q17 29 52 85 q108 170 108 278q0 80 -42.5 127t-115.5 47q-66 0 -106.5 -37.5t-60.5 -117.5l-2 -6q-41 -161 -127 -161q-51 0 -77 32.5t-26 96.5zM336 133q0 69 46.5 115.5t115.5 46.5q68 0 114.5 -46.5t46.5 -115.5q0 -67 -47 -114.5t-114 -47.5q-68 0 -115 47.5t-47 114.5z" />
<glyph unicode="@" horiz-adv-x="2019" d="M139 537q0 203 86 381t250 313q135 111 297.5 168t345.5 57q348 0 557 -188.5t209 -501.5q0 -159 -59 -297.5t-168 -237.5q-62 -54 -129 -82t-133 -28q-98 0 -152.5 52.5t-60.5 152.5q-64 -105 -137.5 -154t-165.5 -49q-134 0 -212.5 92t-78.5 248q0 112 49 219t141 195 q68 65 147.5 99t161.5 34q90 0 145.5 -47.5t72.5 -139.5l51 170h172l-172 -616l-2 -6q-15 -59 -15 -90q0 -49 22 -76t60 -27q34 0 84 22t92 56q110 88 169 222t59 296q0 279 -191 450t-504 171q-173 0 -328.5 -65t-273.5 -185q-122 -125 -183.5 -286t-61.5 -357 q0 -172 59.5 -306.5t179.5 -234.5q106 -88 247 -135t302 -47q166 0 321 51.5t304 157.5l37 -47q-148 -111 -315 -167.5t-347 -56.5q-188 0 -347 46.5t-275 134.5q-151 113 -230.5 277t-79.5 362zM772 367q0 -83 36.5 -133t94.5 -50q62 0 115.5 41.5t107.5 132.5 q56 96 89.5 210t33.5 204q0 83 -37.5 132.5t-99.5 49.5q-64 0 -117 -45t-106 -147q-57 -107 -87 -209.5t-30 -185.5z" />
<glyph unicode="A" horiz-adv-x="1518" d="M-18 74q0 40 62 65q27 11 40 19q79 48 148 227q15 39 24 62l150 376q12 32 37 92q150 372 186 529q10 48 32 61t80 13q39 0 61.5 -14t43.5 -54q60 -117 159.5 -344.5t204.5 -493.5q18 -44 49 -123q117 -302 187 -339q10 -6 36 -14q66 -20 66 -62q0 -48 -62.5 -66 t-248.5 -18q-184 0 -245.5 18t-61.5 66q0 38 75 65q11 4 16 6q29 10 40.5 24.5t11.5 39.5q0 28 -16 87.5t-39 109.5q-13 25 -19.5 31.5t-14.5 8.5q-20 5 -82.5 8t-158.5 3h-51q-157 0 -209 -6.5t-67 -22.5q-24 -27 -47 -87.5t-23 -98.5q0 -32 15.5 -54.5t47.5 -35.5 q13 -6 36 -14q65 -22 65 -64q0 -48 -53 -66t-211 -18q-159 0 -211.5 18t-52.5 66zM475 606q57 4 113.5 6t116.5 2q56 0 112 -1.5t110 -4.5q-55 154 -108.5 286.5t-105.5 244.5h-27q-55 -128 -107.5 -260.5t-103.5 -272.5z" />
<glyph unicode="B" horiz-adv-x="1427" d="M53 74q0 39 55 61t66 37q15 23 23 175t8 409q0 240 -8.5 392t-22.5 171q-11 15 -66 38t-55 62t31.5 57.5t95.5 18.5q33 0 109.5 -1t120.5 -1q82 0 208.5 5t169.5 5q224 0 344.5 -94t120.5 -268q0 -141 -86 -230t-249 -118q208 -19 319 -120t111 -274q0 -195 -138.5 -303 t-388.5 -108q-65 0 -199.5 7t-203.5 7q-28 0 -101.5 -3t-117.5 -3q-72 0 -109 19.5t-37 58.5zM467 465q0 -146 6 -203.5t21 -85.5q12 -23 64.5 -35t141.5 -12q170 0 259.5 71.5t89.5 207.5q0 148 -101 218t-315 70q-39 0 -81 -2t-85 -6v-223zM467 840q30 -3 61 -4.5t64 -1.5 q202 0 289.5 61.5t87.5 200.5q0 134 -82.5 199t-253.5 65q-59 0 -94.5 -9t-44.5 -25q-15 -28 -21 -125t-6 -298v-63z" />
<glyph unicode="C" horiz-adv-x="1430" d="M70 762q0 147 42 272t126 226q102 125 248 191.5t321 66.5q57 0 127 -11t201 -43q8 3 22 7q64 18 80 18q18 0 35.5 -11t27.5 -30q33 -56 54.5 -135.5t21.5 -141.5q0 -44 -16 -66t-49 -22q-46 0 -124 93q-41 49 -67 75q-55 58 -138.5 88.5t-182.5 30.5q-205 0 -322 -139 t-117 -381q0 -311 149 -509t378 -198q92 0 173 30t134 83q20 20 49 58q46 61 78 61q28 0 44.5 -28.5t16.5 -76.5q0 -97 -27.5 -153t-74.5 -56q-4 0 -9.5 1t-15.5 3q-96 -52 -193.5 -77t-203.5 -25q-156 0 -295 51t-246 146q-120 110 -183.5 264.5t-63.5 337.5z" />
<glyph unicode="D" horiz-adv-x="1602" d="M53 74q0 39 55 61t66 37q14 21 22.5 178.5t8.5 405.5q0 225 -9.5 384t-21.5 179q-10 15 -65.5 37.5t-55.5 64.5t44 59t169 17q24 0 89 -2t106 -2q51 0 136.5 4t119.5 4q390 0 601.5 -201t211.5 -571q0 -362 -216 -548.5t-632 -186.5q-35 0 -118 3t-130 3q-30 0 -87.5 -2 t-86.5 -2q-127 0 -167 17t-40 61zM473 815q0 -237 8 -399.5t21 -196.5q10 -31 79 -53.5t164 -22.5q241 0 360.5 144.5t119.5 435.5q0 309 -136.5 472t-396.5 163q-84 0 -131 -16.5t-59 -49.5q-14 -39 -21.5 -159.5t-7.5 -317.5z" />
<glyph unicode="E" horiz-adv-x="1305" d="M53 68q0 47 66 72q32 12 45 22q22 16 31.5 148t9.5 446q0 225 -9.5 384t-21.5 179q-10 14 -65.5 37.5t-55.5 66.5q0 40 48 55t227 15h639q50 0 102.5 11.5t54.5 11.5q15 0 26.5 -6.5t18.5 -18.5q22 -37 41 -109t19 -122q0 -46 -17.5 -71.5t-48.5 -25.5q-36 0 -79 72 q-19 31 -31 49q-22 32 -69 49t-116 17h-143q-101 0 -152.5 -11t-70.5 -36q-17 -21 -25 -89t-7 -200v-84q0 -50 8 -62t38 -12h186q84 0 117.5 24t42.5 88q1 8 4 25q15 103 68 103q46 0 63 -56.5t17 -257.5q0 -199 -17 -255t-63 -56q-53 0 -68 103q-2 15 -4 25 q-9 63 -42.5 87.5t-117.5 24.5h-184q-29 0 -39 -17.5t-9 -83.5v-98q0 -136 4.5 -201.5t17.5 -93.5q14 -34 67 -48.5t166 -14.5h135q109 0 166.5 28t99.5 103q14 23 32 69q30 78 67 78q26 0 41.5 -25.5t15.5 -70.5q0 -53 -16.5 -130t-44.5 -153q-16 -38 -34 -58t-38 -20 q-5 0 -26 6q-69 19 -138 19h-706q-150 0 -188 14.5t-38 53.5z" />
<glyph unicode="F" horiz-adv-x="1255" d="M53 74q0 39 55 61t66 37q14 21 22.5 178.5t8.5 405.5q0 225 -9.5 384t-21.5 179q-10 14 -65.5 37.5t-55.5 66.5q0 40 48 55t227 15h639q50 0 102.5 11.5t54.5 11.5q15 0 26.5 -6.5t18.5 -18.5q22 -37 41 -109t19 -122q0 -46 -17.5 -71.5t-48.5 -25.5q-36 0 -79 72 q-19 31 -31 49q-22 32 -69 49t-116 17h-143q-101 0 -152.5 -11t-70.5 -36q-17 -21 -25 -89t-8 -200v-84q0 -50 8.5 -62t38.5 -12h172q83 0 115.5 23.5t42.5 89.5l3 18q16 109 71 109q45 0 62 -56.5t17 -257.5q0 -199 -16.5 -255t-62.5 -56q-55 0 -72 110q-1 10 -2 17 q-9 65 -42 89t-116 24h-170q-29 0 -39 -17.5t-10 -83.5v-80q0 -232 7 -293t26 -75q13 -10 46 -23q64 -25 64 -67q0 -46 -58 -64t-220 -18q-168 0 -224.5 18t-56.5 66z" />
<glyph unicode="G" horiz-adv-x="1626" d="M68 768q0 332 206.5 541t536.5 209q80 0 168 -13t188 -39q39 12 64 17.5t37 5.5q26 0 46 -22t38 -70q24 -63 39.5 -134t15.5 -112q0 -33 -17.5 -54.5t-43.5 -21.5q-40 0 -99 75q-13 17 -20 25q-6 7 -16 20q-67 82 -119 116q-56 35 -128 53t-159 18q-213 0 -332 -145 t-119 -408q0 -311 154 -510.5t389 -199.5q135 0 209 78.5t74 220.5q0 50 -17 74t-63 36q-20 6 -54 13q-90 19 -90 63q0 49 61.5 66.5t330.5 17.5q169 0 216.5 -17.5t47.5 -64.5q0 -25 -13 -39.5t-55 -27.5q-5 -2 -17 -6q-53 -16 -67 -44q-10 -21 -26 -88q-4 -17 -7 -26 q-24 -96 -46 -145.5t-54 -88.5q-72 -87 -192 -133.5t-277 -46.5q-352 0 -571 223t-219 584z" />
<glyph unicode="H" horiz-adv-x="1575" d="M53 72q0 42 65 67q33 13 46 23q22 16 31.5 148t9.5 446q0 232 -9 388t-22 175q-10 15 -65.5 37.5t-55.5 64.5q0 41 46.5 56.5t234.5 15.5q182 0 230 -15.5t48 -56.5q0 -42 -64 -67q-33 -13 -46 -23q-19 -14 -26 -78t-7 -307q0 -42 39 -57t190 -15h88q156 0 220 6.5 t83 22.5q8 6 11.5 19t3.5 41v47q0 201 -7 255t-24 66q-13 10 -47 23q-65 25 -65 67q0 41 49 56.5t231 15.5q187 0 233 -15t46 -57q0 -43 -65 -67q-33 -13 -46 -23q-21 -16 -31 -156.5t-10 -418.5q0 -248 8.5 -405.5t22.5 -178.5q10 -15 65.5 -37t55.5 -63q0 -46 -58.5 -64 t-220.5 -18q-166 0 -223 18t-57 64q0 43 65 67q34 13 47 23q17 13 24 79t7 244q0 113 -2.5 145.5t-7.5 40.5q-12 20 -62.5 28t-245.5 8q-166 0 -223.5 -6t-75.5 -21q-8 -7 -12 -30.5t-4 -78.5v-86q0 -178 7 -244t24 -79q13 -10 46 -23q64 -24 64 -67q0 -46 -57 -64t-223 -18 q-162 0 -220.5 18t-58.5 64z" />
<glyph unicode="I" horiz-adv-x="666" d="M53 72q0 42 65 67q33 13 46 23q22 17 31.5 141t9.5 453q0 240 -8.5 392t-22.5 171q-10 15 -65.5 37.5t-55.5 64.5q0 41 46.5 56.5t234.5 15.5q186 0 232 -15t46 -57q0 -43 -64 -67q-33 -13 -46 -23q-20 -15 -28.5 -119.5t-8.5 -341.5q0 -317 7 -498t20 -200 q10 -15 65 -36.5t55 -63.5q0 -46 -57 -64t-223 -18q-162 0 -220.5 18t-58.5 64z" />
<glyph unicode="J" horiz-adv-x="1128" d="M10 295q0 84 43.5 135t114.5 51q61 0 100 -39t39 -100q0 -23 -11 -61.5t-11 -53.5q0 -50 48 -87.5t118 -37.5q66 0 112 31t72 92q12 28 17 85.5t5 232.5q0 366 -7.5 559.5t-22.5 216.5q-11 15 -66 37.5t-55 64.5q0 41 46.5 56.5t233.5 15.5t233 -15t46 -57q0 -43 -65 -67 q-33 -13 -46 -23q-19 -16 -27.5 -120.5t-8.5 -317.5q0 -94 1 -222.5t1 -162.5q0 -187 -18.5 -260.5t-61.5 -126.5q-63 -77 -162 -118.5t-221 -41.5q-193 0 -320 96t-127 238z" />
<glyph unicode="K" horiz-adv-x="1446" d="M68 72q0 42 64 67q33 13 46 23q22 16 30.5 132.5t8.5 461.5q0 246 -7.5 395t-20.5 167q-11 16 -66 38.5t-55 64.5t45.5 57t232.5 15q188 0 234.5 -15.5t46.5 -56.5q0 -43 -65 -67q-33 -13 -46 -23q-19 -14 -30 -127.5t-11 -304.5q0 -16 5.5 -23.5t17.5 -7.5q22 0 106 99 q67 79 113 129l112 121q36 38 57 70t21 46q0 18 -49 39.5t-49 54.5q0 38 45 52t205 14q170 0 213 -15t43 -55t-72 -54q-35 -6 -53 -13q-59 -23 -140.5 -100t-244.5 -269l-103 -123q-8 -10 -12 -18.5t-4 -16.5q0 -6 2 -12.5t7 -14.5q277 -317 413.5 -461t194.5 -181 q20 -13 64 -27q71 -24 71 -63q0 -43 -53.5 -61.5t-184.5 -18.5q-38 0 -67.5 7.5t-51.5 22.5q-59 42 -173.5 164.5t-274.5 315.5l-123 147q-5 6 -10 9t-11 3q-5 0 -7.5 -3t-2.5 -9v-5q2 -64 4 -170q6 -289 33 -310q13 -10 46 -23q65 -24 65 -67q0 -46 -57 -64t-224 -18 q-162 0 -220 18t-58 64z" />
<glyph unicode="L" horiz-adv-x="1262" d="M68 68q0 47 65 72q32 12 45 22q22 16 30.5 132.5t8.5 461.5q0 246 -7.5 395t-20.5 167q-11 16 -66 38.5t-55 64.5q0 41 46.5 56.5t233.5 15.5q188 0 234.5 -15.5t46.5 -56.5q0 -43 -66 -67q-34 -13 -47 -23q-19 -16 -28 -121.5t-9 -320.5q0 -265 5 -436.5t14 -208.5 q13 -52 60.5 -71t180.5 -19h39q99 0 153 26.5t103 108.5q14 22 33 63q37 80 80 80q26 0 40.5 -26.5t14.5 -73.5q0 -64 -13.5 -137.5t-37.5 -139.5q-17 -44 -35 -62t-47 -18l-53 13q-52 12 -111 12h-612q-149 0 -187 14.5t-38 53.5z" />
<glyph unicode="M" horiz-adv-x="1882" d="M49 74q0 36 56.5 63t62.5 47q14 51 29.5 319.5t15.5 596.5v33q0 110 -9 147t-32 51q-16 10 -49 22q-68 25 -68 68q0 41 47.5 56.5t198.5 15.5q114 0 147.5 -3t42.5 -9q19 -14 93 -200q36 -93 59 -148l30 -74q252 -627 275 -627t116.5 224t221.5 591q8 23 21 64 q37 115 69 149q17 18 59 25.5t142 7.5q139 0 186 -15.5t47 -56.5q0 -45 -60 -65q-22 -8 -29 -12q-31 -19 -42 -59t-10 -200q0 -331 10.5 -596.5t20.5 -304.5q6 -24 53 -41q13 -5 21 -8q28 -11 40.5 -25.5t12.5 -37.5q0 -46 -58 -64t-229 -18q-157 0 -213.5 18t-56.5 64 q0 42 65 67q32 13 45 23q19 14 26 60t7 186v53q0 269 -1.5 447t-4.5 261q-48 -124 -131 -343q-305 -801 -377 -801q-32 0 -92 109t-207 448l-227 526q-6 -240 -9.5 -413.5t-3.5 -280.5q0 -145 6.5 -192.5t22.5 -59.5q13 -10 46 -23q65 -24 65 -67q0 -44 -53.5 -63 t-180.5 -19q-114 0 -165.5 20t-51.5 64z" />
<glyph unicode="N" horiz-adv-x="1630" d="M51 74q0 40 55.5 62t65.5 36q14 20 21.5 168.5t7.5 415.5q0 236 -8 389.5t-21 173.5q-10 15 -65.5 38t-55.5 62q0 41 46.5 57.5t176.5 16.5q88 0 115 -4t40 -15q27 -24 148 -182.5t209 -267.5l236 -289q98 -120 160.5 -193.5t109.5 -123.5q1 19 1.5 43.5t0.5 77.5 q0 307 -6.5 519.5t-15.5 247.5q-4 12 -14.5 22.5t-23.5 15.5q-58 21 -72.5 36t-14.5 39q0 42 43 58t184 16q129 0 172 -16t43 -58q0 -22 -12 -36.5t-41 -26.5q-7 -3 -20 -8q-45 -17 -52 -41q-13 -44 -18.5 -249.5t-5.5 -629.5q0 -88 2 -197t2 -129q0 -79 -10 -97.5 t-39 -18.5q-110 0 -481 467l-33 43l-230 288q-157 200 -212 267t-87 100q-2 -30 -3 -71t-1 -140v-100q0 -458 12.5 -574t45.5 -116q29 0 58.5 -24t29.5 -52q0 -45 -49.5 -63.5t-172.5 -18.5t-172 18.5t-49 63.5z" />
<glyph unicode="O" horiz-adv-x="1655" d="M72 762q0 338 209 547t548 209q134 0 252 -39.5t213 -116.5q138 -111 214.5 -282.5t76.5 -370.5q0 -127 -35 -242t-102 -209q-101 -139 -262.5 -218t-345.5 -79q-127 0 -243.5 37t-213.5 108q-152 110 -231.5 278.5t-79.5 377.5zM367 848q0 -327 141 -533t360 -206 q190 0 305 143t115 383q0 324 -144.5 531.5t-363.5 207.5q-186 0 -299.5 -143.5t-113.5 -382.5z" />
<glyph unicode="P" horiz-adv-x="1251" d="M53 72q0 42 65 67q33 13 46 23q22 17 31.5 141t9.5 453q0 240 -8.5 392t-22.5 171q-11 15 -66 38t-55 62q0 38 32 57t97 19q32 0 108 -1t120 -1q82 0 208.5 5t169.5 5q234 0 350.5 -99.5t116.5 -297.5q0 -218 -144.5 -333.5t-418.5 -115.5q-47 0 -110 4.5t-78 4.5 q-22 0 -29.5 -15.5t-7.5 -77.5v-24q0 -218 8 -296t26 -93q14 -11 47 -22q64 -23 64 -66q0 -46 -57 -64t-223 -18q-162 0 -220.5 18t-58.5 64zM471 809q41 -3 80 -4.5t76 -1.5q180 0 261 69t81 222q0 143 -82.5 211.5t-253.5 68.5q-76 0 -107 -11.5t-41 -41.5 q-7 -27 -10.5 -94t-3.5 -217v-136v-65z" />
<glyph unicode="Q" horiz-adv-x="1655" d="M72 760q0 340 209 549t548 209q134 0 252 -39.5t213 -116.5q138 -111 214.5 -282.5t76.5 -370.5q0 -319 -196.5 -523.5t-522.5 -224.5q179 -78 319 -125t189 -47q31 0 58 12t49 35q12 13 33 42q36 52 69 52q27 0 40 -16t13 -49q0 -100 -107.5 -177t-260.5 -77 q-88 0 -188.5 26.5t-235.5 86.5q-74 33 -193 87q-214 99 -243 99q-45 0 -88 -45q-6 -5 -9 -8q-2 -3 -7 -8q-43 -44 -77 -44q-31 0 -49 19t-18 51q0 73 73 119.5t191 46.5q15 0 33 -1.5t38 -4.5q-207 110 -315 295.5t-108 429.5zM367 848q0 -327 141 -533t360 -206 q190 0 305 143t115 383q0 324 -144.5 531.5t-363.5 207.5q-186 0 -299.5 -143.5t-113.5 -382.5z" />
<glyph unicode="R" horiz-adv-x="1493" d="M53 72q0 42 65 67q33 13 46 23q22 17 31.5 141t9.5 453q0 240 -8.5 392t-22.5 171q-11 15 -66 38t-55 62q0 38 31.5 56t97.5 18h228q82 0 208.5 5t169.5 5q227 0 347 -97.5t120 -281.5q0 -137 -79.5 -237t-223.5 -142v-16q112 -20 175.5 -89t113.5 -237q11 -38 28 -105 q40 -161 101 -161q7 0 29.5 2t38.5 2q19 0 35 -16t16 -37q0 -49 -59.5 -80t-157.5 -31q-207 0 -299 317l-2 7q-74 251 -148.5 318t-220.5 67h-94q-25 0 -33 -13.5t-8 -72.5v-41q0 -238 7.5 -311.5t27.5 -87.5q13 -11 46 -22q64 -23 64 -66q0 -46 -57 -64t-223 -18 q-162 0 -220.5 18t-58.5 64zM471 828q42 -4 81 -5.5t75 -1.5q177 0 259.5 67t82.5 210q0 136 -84 206t-248 70q-81 0 -111.5 -10.5t-40.5 -40.5q-7 -27 -10.5 -91.5t-3.5 -209.5v-131v-63z" />
<glyph unicode="S" horiz-adv-x="1208" d="M57 379q0 48 18 73t52 25q49 0 100 -93q16 -29 25 -44q66 -116 144.5 -168.5t185.5 -52.5q117 0 195.5 67t78.5 166q0 146 -311 281q-21 9 -33 14q-252 111 -335 204t-83 239q0 187 138 307.5t358 120.5q58 0 124.5 -11t143.5 -32q24 19 43 27.5t35 8.5q25 0 45.5 -16 t42.5 -55q35 -64 55.5 -132t20.5 -120q0 -35 -16.5 -54.5t-45.5 -19.5q-55 0 -108 75l-15 20q-59 78 -128 114.5t-156 36.5q-118 0 -185 -54t-67 -149q0 -84 55.5 -140.5t280.5 -152.5q14 -6 44 -19q186 -78 269 -153q57 -52 87 -123t30 -153q0 -213 -148.5 -332 t-414.5 -119q-126 0 -241 25.5t-189 68.5q-41 24 -68 113.5t-27 206.5z" />
<glyph unicode="T" horiz-adv-x="1352" d="M33 1202q0 137 32 221t82 84q3 0 12 -1q82 -13 208 -13h614q126 0 210 13q9 1 11 1q51 0 83 -84t32 -221q0 -63 -14.5 -91t-47.5 -28q-18 0 -35.5 12t-29.5 33q-12 23 -31 71.5t-33 68.5q-28 41 -69 58t-113 17h-43q-42 0 -60 -9t-22 -38q-5 -50 -8.5 -167t-3.5 -273 q0 -323 6 -494.5t18 -189.5q11 -15 67 -36.5t56 -63.5q0 -46 -59 -64t-221 -18t-220.5 18t-58.5 64q0 42 56.5 63.5t66.5 36.5q12 18 18.5 189.5t6.5 494.5q0 156 -3.5 274t-9.5 167q-3 28 -21 37t-60 9h-46q-71 0 -111 -17t-69 -58q-14 -20 -33 -68.5t-30 -71.5 q-12 -20 -30.5 -32.5t-37.5 -12.5q-32 0 -45.5 27.5t-13.5 91.5z" />
<glyph unicode="U" horiz-adv-x="1563" d="M53 1423q0 40 44 55t237 15t236.5 -15t43.5 -55q0 -43 -66 -67q-33 -12 -46 -23q-21 -16 -30 -137.5t-9 -376.5q0 -231 3.5 -316t12.5 -138q19 -120 116.5 -190.5t244.5 -70.5q196 0 285 107.5t89 345.5q0 350 -6.5 548.5t-19.5 217.5q-11 15 -67 36.5t-56 63.5 q0 40 44 55t181 15q139 0 183.5 -15t44.5 -55q0 -42 -65 -67q-33 -13 -46 -23q-21 -16 -30 -117t-9 -362q0 -39 1 -130.5t1 -143.5q0 -173 -22.5 -272.5t-73.5 -164.5q-73 -89 -191.5 -135.5t-277.5 -46.5q-299 0 -451.5 133.5t-152.5 394.5q0 39 2 118t2 118 q0 247 -9 412.5t-22 185.5q-10 15 -65.5 36.5t-55.5 63.5z" />
<glyph unicode="V" horiz-adv-x="1497" d="M0 1419q0 43 49 58.5t250 15.5t250 -15.5t49 -58.5q0 -41 -85 -71l-6 -3q-25 -9 -36.5 -23.5t-11.5 -37.5q0 -38 51.5 -184t173.5 -451q52 -128 76 -170.5t41 -42.5q16 0 36.5 34t71.5 155q142 331 189 457.5t47 168.5q0 33 -15.5 55t-49.5 37q-8 4 -23 10q-62 25 -62 66 q0 43 42.5 58.5t215.5 15.5q167 0 210.5 -15.5t43.5 -58.5q0 -40 -61 -67q-30 -13 -45 -23q-74 -46 -209 -391q-57 -145 -92 -229l-205 -490q-13 -33 -36 -90q-64 -168 -111 -168q-34 0 -72 87q-10 22 -14 31q-131 276 -333 798q-73 189 -110 280q-33 81 -62 125t-61 61 q-10 6 -34 14q-62 21 -62 62z" />
<glyph unicode="W" horiz-adv-x="2148" d="M-23 1419q0 43 48.5 58t246.5 16q197 0 245 -15.5t48 -58.5q0 -41 -81 -71l-6 -2q-27 -10 -38.5 -24.5t-11.5 -37.5q0 -35 43 -158.5t176 -463.5q59 -151 79.5 -188.5t37.5 -37.5q28 0 144 301q50 129 81 207q-66 188 -108.5 275t-79.5 116q-8 6 -59.5 25.5t-51.5 58.5 q0 43 48.5 58t246.5 16q197 0 245 -15.5t48 -58.5q0 -41 -78 -70q-5 -2 -9 -4q-24 -8 -36 -23t-12 -38q0 -38 49.5 -179.5t173.5 -457.5q48 -122 72 -166.5t39 -44.5t35.5 35t68.5 152l18 44q216 520 216 584q0 33 -15.5 55t-50.5 37q-8 4 -23 11q-61 25 -61 65 q0 43 41.5 58t212.5 16q164 0 207 -15.5t43 -58.5q0 -40 -61 -66q-30 -13 -44 -22q-72 -47 -210 -403q-54 -139 -87 -219l-198 -490q-14 -33 -37 -92q-63 -166 -109 -166q-53 0 -207 402q-90 233 -149 378l-215 -532q-11 -28 -31 -79q-65 -169 -106 -169q-37 0 -74 88 q-9 21 -14 32q-133 289 -337 826q-64 169 -95 250q-35 85 -62 126.5t-60 60.5q-9 5 -30 11q-66 21 -66 64z" />
<glyph unicode="X" horiz-adv-x="1450" d="M39 53q0 44 71.5 69t96.5 44q52 39 125.5 146.5t257.5 428.5q-142 245 -239.5 397t-125.5 173q-21 17 -86 37t-65 67q0 43 76 61t280 17q151 0 196.5 -14t45.5 -52q0 -39 -52.5 -62.5t-52.5 -41.5q0 -32 47.5 -121t151.5 -254l125 232q28 53 42.5 89t14.5 52q0 26 -51 49 t-51 60q0 36 45 49.5t221 13.5h55q119 0 150 -11.5t31 -41.5q0 -34 -65 -60.5t-91 -44.5q-93 -65 -319 -468l-25 -46q59 -94 156 -255q228 -376 284 -404q14 -7 40 -17q65 -24 65 -65q0 -48 -60.5 -67t-247.5 -19q-156 0 -217 18.5t-61 63.5q0 20 10.5 32.5t34.5 20.5l18 6 q45 14 45 45q0 34 -58.5 139t-180.5 289q-114 -184 -172 -294.5t-58 -141.5q0 -21 45.5 -47t45.5 -57q0 -42 -53.5 -58t-235.5 -16q-139 0 -174 12.5t-35 46.5z" />
<glyph unicode="Y" horiz-adv-x="1341" d="M4 1419q0 43 49.5 58.5t251.5 15.5q201 0 250 -15.5t49 -58.5q0 -41 -81 -71l-6 -2q-22 -8 -32 -21t-10 -31q0 -22 45 -98t211 -322q121 173 178.5 269t57.5 125q0 28 -15.5 45.5t-62.5 36.5q-39 15 -52.5 30t-13.5 39q0 43 42.5 58.5t215.5 15.5q168 0 212 -15.5 t44 -58.5q0 -41 -59 -66t-78 -40q-46 -35 -145.5 -185t-251.5 -413q1 -67 2 -183q5 -349 33 -370q13 -10 46 -23q66 -24 66 -67q0 -46 -57 -64t-223 -18q-162 0 -220.5 18t-58.5 64q0 42 65 67q33 13 46 23q33 26 38 450q0 61 1 95l-125 206q-136 225 -197 311.5t-94 108.5 q-16 10 -52 22q-69 23 -69 64z" />
<glyph unicode="Z" horiz-adv-x="1350" d="M66 82q0 43 77 152l6 9l693 964l8 11q43 60 43 78q0 24 -40 35.5t-118 11.5h-172q-91 0 -150 -18t-94 -57q-22 -26 -47 -83t-34 -75q-13 -21 -32.5 -34t-39.5 -13q-35 0 -50.5 21t-15.5 69q0 55 17.5 130t46.5 144q20 47 37 63.5t43 16.5q2 0 11 -1q82 -13 208 -13h584 q132 0 179.5 -19t47.5 -67q0 -54 -142 -249l-3 -4l-633 -878q-27 -36 -35 -53.5t-8 -32.5q0 -22 31 -31t120 -9h273q92 0 139.5 22.5t87.5 85.5q19 30 43 86q38 88 86 88q28 0 42.5 -20t14.5 -60q0 -162 -36.5 -269.5t-90.5 -107.5q-1 0 -12 3q-81 22 -207 22h-741 q-66 0 -101.5 21.5t-35.5 60.5z" />
<glyph unicode="[" horiz-adv-x="758" d="M223 -100v1405q0 128 35 158t172 30h186q96 0 119 -13.5t23 -52.5q0 -38 -20 -53.5t-70 -15.5h-125q-49 0 -68.5 -19.5t-19.5 -64.5v-1346q0 -45 19.5 -63.5t68.5 -18.5h125q50 0 70 -15t20 -54t-23 -52.5t-119 -13.5h-20h-166q-137 0 -172 30.5t-35 158.5z" />
<glyph unicode="\" horiz-adv-x="569" d="M-51 1495q0 12 13.5 17.5t49.5 5.5q46 0 60.5 -8t21.5 -27l574 -1608q4 -9 6 -19t2 -20q0 -15 -14 -20.5t-54 -5.5q-41 0 -56.5 7t-21.5 25l-571 1608q-5 13 -7.5 24.5t-2.5 20.5z" />
<glyph unicode="]" horiz-adv-x="758" d="M0 -223q0 39 19.5 54t70.5 15h127q49 0 68.5 18.5t19.5 63.5v1346q0 45 -20 64.5t-68 19.5h-127q-51 0 -70.5 15.5t-19.5 53.5q0 39 23 52.5t120 13.5h21h164q138 0 173.5 -31t35.5 -157v-1407q0 -126 -34.5 -156.5t-174.5 -30.5h-185q-97 0 -120 14t-23 52z" />
<glyph unicode="^" horiz-adv-x="2048" d="M412 897l503 565h215l502 -565h-104l-506 397l-506 -397h-104z" />
<glyph unicode="_" horiz-adv-x="1024" d="M0 -311h1024v-172h-1024v172z" />
<glyph unicode="`" horiz-adv-x="1024" d="M176 1397q0 38 30 80.5t60 42.5q12 0 24 -4.5t32 -16.5l354 -215q17 -12 23 -18.5t6 -14.5q0 -26 -23 -58t-39 -32q-5 0 -12 2t-17 6l-372 168l-4 2q-62 26 -62 58z" />
<glyph unicode="a" horiz-adv-x="1114" d="M55 289q0 167 121 260.5t338 93.5q41 0 89.5 -4.5t104.5 -13.5l1 110q0 92 -40 141.5t-114 49.5q-51 0 -95 -22.5t-85 -69.5q-8 -9 -22 -27q-63 -80 -134 -80q-41 0 -65.5 26.5t-24.5 71.5q0 98 121 165t311 67q116 0 199 -30.5t129 -88.5q31 -40 44 -104t13 -213v-336 q0 -59 10 -88t31 -35q12 -4 32 -9q66 -18 66 -53q0 -50 -70 -90.5t-163 -40.5q-46 0 -97.5 54.5t-54.5 54.5q-9 0 -45 -23q-132 -86 -260 -86q-152 0 -246 88.5t-94 231.5zM319 322q0 -83 54.5 -133t146.5 -50q102 0 145.5 45t43.5 154l-1 154q-41 9 -79 13.5t-72 4.5 q-112 0 -175 -50t-63 -138z" />
<glyph unicode="b" horiz-adv-x="1214" d="M-27 1380q0 24 21.5 41.5t99.5 48.5q60 23 122 36.5t99 13.5q41 0 54.5 -14.5t13.5 -53.5q0 -10 -3 -56q-9 -163 -9 -306q0 -84 5 -109t19 -25q6 0 34 17q141 84 276 84q198 0 316 -135t118 -365q0 -263 -147.5 -421.5t-393.5 -158.5q-101 0 -188.5 24.5t-145.5 68.5 q-34 -28 -66 -43t-59 -15q-18 0 -36 4.5t-40 14.5v16q40 42 56 134t16 323v231v240q0 192 -9 257.5t-32 78.5q-18 9 -55 18q-66 16 -66 51zM379 358q0 -154 47.5 -206t167.5 -52q128 0 202 110.5t74 303.5q0 168 -71.5 266.5t-194.5 98.5q-119 0 -172 -59t-53 -191v-271z " />
<glyph unicode="c" horiz-adv-x="1071" d="M61 498q0 241 156.5 400t390.5 159q171 0 291.5 -89.5t120.5 -209.5q0 -48 -33.5 -78.5t-85.5 -30.5q-53 0 -85 25t-68 110q-33 75 -73 104.5t-104 29.5q-121 0 -188.5 -89.5t-67.5 -250.5q0 -186 96 -303t246 -117q52 0 98.5 14t86.5 41q14 10 40 30q55 44 87 44 q22 0 34.5 -12.5t12.5 -34.5q0 -26 -22 -63t-56 -66q-82 -72 -170.5 -106t-192.5 -34q-219 0 -366.5 151.5t-147.5 375.5z" />
<glyph unicode="d" horiz-adv-x="1237" d="M74 483q0 254 140.5 414t363.5 160q107 0 221 -52q22 -10 26 -10q8 0 11.5 11t3.5 41v122q0 73 -13.5 101.5t-52.5 42.5q-10 3 -28 8q-64 18 -64 55q0 28 25 48t104 49q61 22 115.5 33.5t97.5 11.5q35 0 50.5 -20t15.5 -66q0 -8 -2 -53q-11 -309 -11 -644t7 -435.5 t24 -113.5q16 -11 71.5 -23.5t55.5 -49.5q0 -48 -151 -97l-11 -4q-43 -14 -92.5 -23t-79.5 -9q-29 0 -42 16t-13 51v51q0 12 -2.5 19.5t-5.5 7.5q-4 0 -32 -22q-27 -21 -46 -35q-62 -47 -122 -69t-124 -22q-195 0 -317.5 140.5t-122.5 365.5zM340 561q0 -175 75.5 -285 t192.5 -110q111 0 169.5 60.5t58.5 176.5v285q-1 64 -5.5 86.5t-15.5 36.5q-34 46 -95.5 75t-125.5 29q-116 0 -185 -95t-69 -259z" />
<glyph unicode="e" horiz-adv-x="1100" d="M61 498q0 244 152.5 401.5t390.5 157.5q201 0 318.5 -114.5t117.5 -309.5q0 -64 -19 -84.5t-97 -20.5h-500h-14q-58 0 -69 -9t-11 -48q0 -130 93 -223.5t226 -93.5q57 0 110 17t103 52q14 10 38 29q52 43 81 43q23 0 38 -15t15 -36q0 -25 -26 -61.5t-70 -71.5 q-91 -75 -175 -107.5t-183 -32.5q-222 0 -370.5 151.5t-148.5 375.5zM340 686q0 -23 12 -31t51 -8h338q40 0 53 8t13 31q0 101 -67.5 169.5t-170.5 68.5q-99 0 -164 -68.5t-65 -169.5z" />
<glyph unicode="f" horiz-adv-x="592" d="M0 954v25q0 26 10.5 37.5t34.5 11.5h110q-7 44 -10.5 82.5t-3.5 73.5q0 158 95.5 246t267.5 88q118 0 192 -53.5t74 -135.5q0 -49 -26.5 -74.5t-77.5 -25.5q-33 0 -59.5 15t-43.5 42q-8 14 -20 38q-38 75 -99 75q-39 0 -63.5 -25.5t-24.5 -66.5q0 -24 24 -115.5 t26 -163.5h151q26 0 35.5 -10t9.5 -39v-25q0 -27 -10.5 -39t-34.5 -12h-149v-536q0 -134 8 -175t29 -51q15 -7 41 -16q61 -21 61 -62q0 -40 -51 -55.5t-203 -15.5t-203 16t-51 58q0 33 49 51q18 7 27 12q25 14 35 47.5t10 122.5v100v504h-117q-24 0 -33.5 11t-9.5 40z" />
<glyph unicode="g" horiz-adv-x="1100" d="M70 -145q0 52 33 94.5t114 91.5q-61 21 -94 61t-33 93t38 103.5t114 96.5q-61 52 -92 119t-31 148q0 170 128 282.5t324 112.5q47 0 110.5 -9.5t160.5 -31.5q38 0 83.5 19.5t110.5 64.5q22 -14 33.5 -31.5t11.5 -36.5q0 -44 -33 -85t-94 -73q23 -42 33 -83.5t10 -85.5 q0 -173 -126.5 -281.5t-331.5 -108.5q-59 0 -111 8.5t-98 24.5q-22 -23 -32.5 -43.5t-10.5 -38.5q0 -49 49 -72.5t153 -23.5q52 0 159 11.5t163 11.5q145 0 222 -59t77 -169q0 -166 -163 -276.5t-415 -110.5q-198 0 -330 81t-132 196zM295 -125q0 -73 75 -117.5t201 -44.5 q140 0 232 54t92 133q0 49 -34.5 76.5t-98.5 27.5q-27 0 -121.5 -10t-161.5 -10q-35 0 -67 2t-64 6q-27 -26 -40 -54.5t-13 -62.5zM362 688q0 -107 53 -172t138 -65q89 0 147 65.5t58 169.5q0 107 -56.5 173.5t-146.5 66.5q-82 0 -137.5 -67.5t-55.5 -170.5z" />
<glyph unicode="h" horiz-adv-x="1241" d="M8 1376q0 28 25.5 48t118.5 55q50 18 103.5 28.5t96.5 10.5q35 0 49.5 -19.5t14.5 -66.5q0 -7 -2 -44q-8 -204 -8 -415v-51q0 -17 4.5 -25t15.5 -8q4 0 22.5 23.5t36.5 41.5q53 51 112 77t124 26q178 0 266 -116t88 -351q0 -3 1 -97t1 -186v-59q0 -53 10 -76t33 -37 q10 -5 27 -11q51 -19 51 -54q0 -46 -49.5 -63t-214.5 -17q-135 0 -186.5 16.5t-51.5 56.5t53 59q25 9 39 17q24 14 33.5 58.5t9.5 154.5q0 335 -42 419.5t-152 84.5q-56 0 -106.5 -33.5t-77.5 -89.5q-23 -45 -32 -125t-9 -284q0 -105 8.5 -139t30.5 -46q14 -8 39 -17 q53 -19 53 -59t-51 -56.5t-185 -16.5q-164 0 -214 17t-50 63q0 34 50 53q19 7 28 12q28 16 39.5 59.5t11.5 157.5v170v158q0 361 -6.5 475t-22.5 136q-11 14 -73 31.5t-62 53.5z" />
<glyph unicode="i" horiz-adv-x="592" d="M29 909q0 23 19.5 41.5t64.5 36.5q79 31 157 50.5t111 19.5q28 0 40.5 -20t12.5 -68q0 -38 -0.5 -62t-1.5 -47l-8 -266v-6q-4 -174 -4 -256q0 -99 9 -140t32 -53q13 -7 39 -17q53 -19 53 -59t-51 -56.5t-187 -16.5q-159 0 -210.5 17t-51.5 63q0 35 51 54q19 7 27 11 q27 15 38 50t11 114q0 19 -1 70t-1 84v108q0 164 -8 214t-29 61q-16 8 -49 18q-63 20 -63 55zM117 1368q0 59 49 101t119 42q68 0 112.5 -38t44.5 -95t-48.5 -97t-121.5 -40q-67 0 -111 36t-44 91z" />
<glyph unicode="j" horiz-adv-x="573" d="M-51 -340q0 22 14.5 34.5t40.5 12.5q8 0 37 -4t51 -4q50 0 69 44.5t19 184.5v574q0 190 -8.5 256t-30.5 78q-16 8 -49 18q-63 20 -63 55q0 23 19.5 41.5t64.5 36.5q79 31 157 50.5t111 19.5q28 0 40.5 -20t12.5 -68q0 -38 -0.5 -62t-1.5 -47l-8 -266q-4 -137 -6 -274 t-2 -279q0 -35 2 -84.5t2 -65.5q0 -169 -66 -241t-219 -72q-84 0 -135 23t-51 59zM117 1368q0 59 49 101t119 42q68 0 112.5 -38t44.5 -95t-48.5 -97t-121.5 -40q-67 0 -111 36t-44 91z" />
<glyph unicode="k" horiz-adv-x="1165" d="M4 1380q0 26 20.5 43.5t94.5 42.5q72 25 139.5 39.5t108.5 14.5q31 0 44 -19.5t13 -68.5q0 -43 -6 -200t-6 -271v-263q0 -40 4.5 -51.5t15.5 -11.5q10 0 43.5 24t75.5 62q78 72 104.5 103t26.5 46q0 10 -39 30t-39 52q0 47 54.5 65.5t203.5 18.5q97 0 144 -19t47 -59 q0 -49 -76.5 -68t-108.5 -38q-36 -22 -126 -112l-17 -17q-26 -26 -35.5 -39t-9.5 -20q0 -20 91 -140l11 -14q102 -131 177.5 -217.5t115.5 -116.5q26 -18 93 -39t67 -63q0 -45 -48.5 -64.5t-160.5 -19.5q-36 0 -67 3t-44 7q-46 17 -145 145q-27 36 -43 56l-18 23 q-257 327 -277 327q-12 0 -16 -10.5t-4 -44.5v-45q0 -156 6.5 -218.5t21.5 -80.5q10 -11 58.5 -30t48.5 -59t-52 -56.5t-188 -16.5q-159 0 -209.5 17t-50.5 63q0 35 51 54q19 7 27 11q28 16 39.5 66.5t11.5 171.5q0 34 -1 130t-1 161v129q0 294 -6.5 388.5t-22.5 113.5 q-11 12 -59 26q-22 6 -34 10q-30 9 -39 19.5t-9 29.5z" />
<glyph unicode="l" horiz-adv-x="584" d="M4 1380q0 26 20.5 43.5t94.5 42.5q72 25 139.5 39.5t108.5 14.5q31 0 44 -19.5t13 -68.5q0 -14 -2 -80q-12 -371 -12 -750q0 -277 6.5 -353.5t23.5 -96.5q10 -11 58.5 -30t48.5 -59t-52 -56.5t-188 -16.5q-159 0 -209.5 17t-50.5 63q0 32 43 51t53 29q18 17 25.5 80.5 t7.5 205.5q0 42 -1 162t-1 199v80q0 261 -9 337t-31 88q-23 12 -64 23q-66 18 -66 55z" />
<glyph unicode="m" horiz-adv-x="1911" d="M25 909q0 23 18.5 40t65.5 36q81 33 152.5 52.5t103.5 19.5q27 0 41 -17.5t16 -54.5v-55v-12q0 -9 2 -11t6 -2q2 0 5.5 1.5t4.5 2.5l24 22q4 4 12 11q125 115 253 115q48 0 93 -14.5t87 -43.5q40 -26 79 -73t48 -47q14 0 41.5 32t46.5 47q67 57 117.5 78t110.5 21 q121 0 211.5 -48.5t132.5 -136.5q46 -96 46 -403q1 -67 1 -102q0 -22 -1 -57t-1 -48q0 -60 10.5 -86t36.5 -41q8 -4 27 -11q53 -19 53 -54q0 -45 -49 -61.5t-211 -16.5q-149 0 -199.5 15.5t-50.5 55.5t55 62q24 9 37 16q26 14 36.5 65.5t10.5 174.5q0 309 -42 392t-152 83 q-121 0 -173.5 -105.5t-52.5 -359.5v-57q0 -112 11 -148t38 -51q10 -5 27 -11q51 -19 51 -54q0 -45 -48 -61.5t-208 -16.5q-146 0 -196 15.5t-50 55.5t53 59q25 9 40 17q22 13 31.5 55.5t9.5 161.5q0 332 -42.5 416t-152.5 84q-56 0 -105.5 -33.5t-76.5 -89.5 q-24 -47 -33.5 -132.5t-9.5 -281.5q0 -96 9 -131.5t32 -48.5q13 -7 39 -17q53 -19 53 -59t-51.5 -56.5t-188.5 -16.5q-159 0 -209.5 17t-50.5 63q0 35 51 54q19 7 27 11q27 15 38 50t11 114q0 19 -1 70t-1 84v61q0 193 -8.5 251t-30.5 71q-16 8 -48 18q-62 20 -62 55z" />
<glyph unicode="n" horiz-adv-x="1241" d="M29 909q0 23 19.5 41.5t64.5 36.5q77 30 150 48t108 18q29 0 42 -15.5t13 -50.5v-69q0 -8 1.5 -10t6.5 -3q2 0 5.5 1.5t4.5 2.5l24 22q8 7 22 20q113 106 245 106q75 0 144.5 -32.5t117.5 -88.5q48 -57 68 -136t20 -247v-141q0 -26 -1 -68t-1 -59q0 -74 10.5 -104.5 t36.5 -45.5q10 -5 27 -11q51 -19 51 -54q0 -45 -48 -61.5t-208 -16.5q-146 0 -195.5 15.5t-49.5 55.5t52 59q27 10 39 17q24 13 34 58.5t10 158.5q0 332 -42.5 416t-152.5 84q-56 0 -106.5 -33.5t-77.5 -89.5q-23 -45 -32 -126t-9 -288q0 -101 8.5 -134.5t30.5 -45.5 q13 -7 39 -17q53 -19 53 -59t-51 -56.5t-187 -16.5q-159 0 -210.5 17t-51.5 63q0 35 51 54q19 7 27 11q27 15 38 50t11 114q0 19 -1 70t-1 84v108q0 164 -8 214t-29 61q-16 8 -49 18q-63 20 -63 55z" />
<glyph unicode="o" horiz-adv-x="1171" d="M57 510q0 235 155.5 391t389.5 156q225 0 368.5 -146t143.5 -374q0 -242 -154 -404t-382 -162q-225 0 -373 153t-148 386zM322 602q0 -207 87.5 -346t213.5 -139q102 0 165.5 86t63.5 227q0 204 -88.5 342.5t-212.5 138.5q-103 0 -166 -84.5t-63 -224.5z" />
<glyph unicode="p" horiz-adv-x="1233" d="M6 909q0 25 19 43t61 33q78 31 146.5 48.5t105.5 17.5q29 0 42 -16t13 -52v-51q0 -13 1.5 -19.5t4.5 -7.5q5 0 41 28l40 30q65 48 124.5 71t120.5 23q194 0 317 -142t123 -368q0 -250 -138.5 -411t-350.5 -161q-116 0 -235 66q-20 10 -23 10q-13 0 -19 -29.5t-6 -97.5 q0 -62 7 -103.5t20 -56.5q13 -14 59 -27q27 -8 41 -13q14 -7 22.5 -20t8.5 -30q0 -38 -61 -54.5t-209 -16.5q-151 0 -203.5 17t-52.5 61q0 34 44.5 52.5t53.5 26.5q21 21 29 103t8 342v88v82q0 283 -9.5 365t-33.5 96q-16 8 -48 18q-63 20 -63 55zM403 344q0 -62 5 -85 t16 -38q35 -46 96.5 -76t124.5 -30q116 0 185 96t69 260q0 176 -75.5 285.5t-192.5 109.5q-111 0 -169.5 -60.5t-58.5 -176.5v-285z" />
<glyph unicode="q" horiz-adv-x="1214" d="M53 483q0 260 144 417t381 157q75 0 143 -15t129 -45q70 34 115 50t69 16q19 0 26 -8t7 -31q0 -5 -2 -28q-6 -78 -6 -148v-545v-84q0 -260 8.5 -342.5t30.5 -105.5q9 -10 52.5 -29.5t43.5 -54.5q0 -48 -51.5 -66t-204.5 -18t-205.5 17t-52.5 61q0 41 48.5 62t57.5 32 q18 22 26.5 87.5t8.5 182.5v53q0 16 -2.5 21.5t-7.5 5.5q-12 0 -45 -28q-17 -14 -27 -21q-70 -52 -131 -75.5t-127 -23.5q-186 0 -307 141.5t-121 364.5zM319 561q0 -175 76 -285t193 -110q111 0 170 61t59 176v285q0 116 -56.5 173t-172.5 57q-126 0 -197.5 -94.5 t-71.5 -262.5z" />
<glyph unicode="r" horiz-adv-x="797" d="M31 909q0 25 18.5 42.5t65.5 35.5q72 29 139.5 46.5t93.5 17.5q50 0 67 -141l3 -21l10 -4q53 84 111.5 128t117.5 44q72 0 115 -43.5t43 -116.5t-33 -114.5t-92 -41.5q-29 0 -53 10.5t-43 30.5q-13 14 -24 41t-23 27q-72 0 -100.5 -99.5t-28.5 -416.5q0 -91 12.5 -137 t40.5 -58q15 -6 41 -14q63 -20 63 -62q0 -39 -58 -56t-202 -17q-158 0 -209 17t-51 63q0 35 50 53q20 8 28 12q27 15 38 50t11 114q0 19 -1 70t-1 84v61q0 193 -8.5 251t-30.5 71q-16 8 -48 18q-62 20 -62 55z" />
<glyph unicode="s" horiz-adv-x="901" d="M53 264q0 33 18 55.5t44 22.5q48 0 97 -84q24 -42 40 -63q31 -41 85 -65t116 -24q69 0 109 34.5t40 92.5q0 88 -175 172q-38 18 -60 29q-163 81 -220 149t-57 167q0 136 94 221.5t246 85.5q37 0 74 -4t74 -13q29 13 49 19t32 6q51 0 99.5 -82t48.5 -172q0 -37 -16 -57.5 t-46 -20.5q-24 0 -47 19.5t-55 70.5q-39 64 -80.5 89.5t-99.5 25.5q-61 0 -98 -34t-37 -89q0 -47 37.5 -84t168.5 -102l12 -6q290 -143 290 -312q0 -145 -111.5 -242.5t-278.5 -97.5q-35 0 -82.5 6.5t-109.5 18.5q-17 -13 -32.5 -19t-31.5 -6q-10 0 -21 5t-22 14 q-34 29 -64 113t-30 161z" />
<glyph unicode="t" horiz-adv-x="739" d="M27 938v25q0 34 109 127q27 23 43 37q14 12 40 35q108 95 148 95q21 0 33 -9t12 -25v-195h233q26 0 35.5 -10t9.5 -39v-25q0 -27 -10.5 -39t-34.5 -12h-215q-10 0 -16 -8.5t-6 -24.5v-518q0 -134 22.5 -168t83.5 -34q33 0 84.5 17t71.5 17q23 0 38 -13.5t15 -35.5 q0 -57 -88.5 -110.5t-200.5 -53.5q-65 0 -116.5 17t-88.5 51t-52 91.5t-15 213.5v559h-96q-22 0 -30.5 8t-8.5 27z" />
<glyph unicode="u" horiz-adv-x="1241" d="M2 918q0 26 21 43.5t94 42.5q73 24 141 38.5t111 14.5q28 0 40.5 -21t12.5 -67q0 -6 -2 -41q-10 -192 -10 -389q0 -213 44 -294t150 -81q120 0 171.5 105t51.5 360v80q0 81 -11.5 105.5t-47.5 37.5q-16 6 -42 13q-58 16 -58 53q0 25 20.5 42.5t93.5 43.5q73 24 140 38.5 t108 14.5q32 0 44.5 -19.5t12.5 -68.5q0 -11 -2 -58q-12 -222 -12 -430q0 -130 2 -175.5t6 -69.5q8 -43 61 -64h1q6 -2 19 -6q59 -20 59 -55q0 -23 -18.5 -40.5t-63.5 -35.5q-77 -30 -148.5 -48t-109.5 -18q-30 0 -44 16t-14 50v74q0 4 -1.5 5t-4.5 1q-12 0 -37 -26 q-9 -10 -14 -15q-49 -51 -112 -76t-140 -25q-79 0 -147.5 29.5t-114.5 83.5q-49 59 -69.5 143t-20.5 308q0 21 1 70t1 77v21q0 86 -12 109.5t-50 37.5q-15 6 -41 13q-59 16 -59 53z" />
<glyph unicode="v" horiz-adv-x="1081" d="M-47 961q0 42 52.5 58.5t221.5 16.5q142 0 192 -16.5t50 -58.5q0 -19 -6.5 -32.5t-18.5 -19.5t-34 -15q-43 -18 -43 -40q0 -18 22.5 -81.5t79.5 -203.5q66 -159 90 -204.5t37 -45.5q14 0 32.5 27.5t47.5 91.5q74 163 111.5 264t37.5 136q0 21 -8.5 37t-23.5 24 q-10 5 -29 12q-47 18 -47 52q0 40 47 56.5t176 16.5q109 0 153 -16.5t44 -54.5q0 -44 -54 -61q-24 -7 -36 -13q-48 -23 -136 -227q-18 -43 -28 -66l-42 -96q-237 -541 -306 -541q-45 0 -104.5 101.5t-203.5 447.5q-24 59 -61 155q-76 197 -121 220q-10 5 -32 14 q-60 24 -60 62z" />
<glyph unicode="w" horiz-adv-x="1712" d="M-47 961q0 42 52.5 58.5t221.5 16.5q142 0 192 -16.5t50 -58.5q0 -19 -6.5 -32.5t-18.5 -19.5t-34 -15q-43 -18 -43 -40q0 -19 24 -87t78 -198q60 -146 87 -198t40 -52q22 0 57 63.5t143 321.5q-3 11 -11 33q-42 123 -91 148q-10 5 -30 14q-60 24 -60 62q0 42 52 58.5 t221 16.5q142 0 192.5 -16.5t50.5 -58.5q0 -18 -7 -31.5t-19 -20.5q-13 -6 -35 -15q-43 -18 -43 -40q0 -16 19 -69t85 -216q66 -159 90 -204.5t37 -45.5q14 0 33 27.5t47 91.5q74 163 112 264t38 136q0 21 -9 37t-24 24q-10 5 -29 12q-47 18 -47 52q0 40 46.5 56.5 t174.5 16.5q110 0 154.5 -16.5t44.5 -54.5q0 -44 -54 -61q-24 -7 -36 -13q-49 -24 -143 -241q-15 -34 -23 -52l-42 -96q-237 -541 -306 -541q-70 0 -253 425l-11 28l-37 85q-5 13 -10.5 19t-12.5 6q-3 0 -8.5 -6t-9.5 -14l-27 -62q-139 -312 -191 -396.5t-89 -84.5 q-73 0 -278 479l-30 70q-28 67 -69 175q-67 177 -113 200q-10 5 -32 14q-60 24 -60 62z" />
<glyph unicode="x" horiz-adv-x="1028" d="M-23 68q0 45 77 66q37 11 55 20q31 15 84 83t196 283q-109 172 -168 253t-94 110q-16 13 -64.5 25t-48.5 46q0 45 55 63.5t187 18.5q145 0 200.5 -17t55.5 -58q0 -30 -34 -52t-34 -32q0 -26 124 -195l7 -10l37 54q95 137 95 151q0 9 -38 32t-38 52q0 39 51.5 57t161.5 18 q88 0 132 -18t44 -55q0 -43 -71 -67q-35 -12 -55 -22q-45 -21 -107.5 -98.5t-141.5 -210.5q124 -200 185.5 -285.5t97.5 -115.5q16 -14 71.5 -33.5t55.5 -56.5q0 -44 -53 -62t-189 -18q-141 0 -197.5 17.5t-56.5 58.5q0 30 33 50t33 30q0 19 -45 91t-121 173 q-19 -27 -52 -74q-114 -162 -114 -182q0 -14 39 -33.5t39 -50.5q0 -42 -51.5 -61t-163.5 -19q-91 0 -135 18t-44 56z" />
<glyph unicode="y" horiz-adv-x="1042" d="M-51 954q0 46 55 64t207 18t203 -16.5t51 -58.5q0 -18 -6.5 -31.5t-18.5 -20.5q-13 -7 -38 -17q-40 -16 -40 -34q0 -20 21 -77.5t84 -209.5q60 -144 87 -194.5t42 -50.5q10 0 34 49.5t68 163.5q53 134 77 207.5t24 99.5q0 30 -58.5 63t-58.5 60q0 36 47.5 51.5 t165.5 15.5q125 0 169 -16.5t44 -58.5q0 -38 -59 -53q-30 -8 -43 -15q-59 -32 -126 -209q-19 -52 -30 -80l-133 -336q-171 -433 -282 -563.5t-263 -130.5q-76 0 -126 43t-50 109q0 52 36.5 89.5t88.5 37.5q26 0 45.5 -8t32.5 -23q11 -14 28 -39q27 -41 47 -41 q53 0 107.5 76.5t54.5 158.5q0 89 -73 254q-7 17 -11 25q-89 198 -166.5 366t-95.5 203q-18 37 -79 63l-1 1q-36 14 -48.5 28.5t-12.5 36.5z" />
<glyph unicode="z" horiz-adv-x="948" d="M43 47q0 13 6 28t27 48l464 724q8 13 12.5 25.5t4.5 18.5q0 9 -9 13.5t-28 4.5h-149q-75 0 -107 -16t-61 -66q-6 -9 -15 -27q-41 -77 -84 -77q-22 0 -35.5 19t-13.5 51q0 99 39.5 181.5t83.5 82.5q2 0 51 -14.5t99 -14.5h485q48 0 66 -10t18 -35q0 -9 -4.5 -20.5 t-16.5 -31.5l-489 -757q-6 -11 -9 -18.5t-3 -12.5q0 -10 9 -15t28 -5h194q100 0 134 17t65 67q8 13 21 36q36 64 69 64q21 0 36 -22.5t15 -57.5q0 -93 -37 -170t-82 -77q-5 0 -24 4q-71 16 -139 16h-527q-61 0 -77.5 10t-16.5 37z" />
<glyph unicode="{" horiz-adv-x="1024" d="M178 602v68q159 15 216 76t57 223v200q0 200 84.5 273.5t314.5 73.5v-57q-128 -2 -175.5 -55t-47.5 -210v-137q0 -225 -56.5 -307.5t-208.5 -114.5q152 -32 208.5 -114.5t56.5 -307.5v-137q0 -157 47 -209t176 -54v-57h-10q-222 0 -305.5 74t-83.5 272v201 q0 161 -58 223.5t-215 75.5z" />
<glyph unicode="|" horiz-adv-x="1024" d="M424 -483v2048h178v-2048h-178z" />
<glyph unicode="}" horiz-adv-x="1024" d="M174 -187q129 2 176 54t47 209v137q0 227 56.5 308.5t208.5 113.5q-151 32 -208 113.5t-57 308.5v137q0 157 -47.5 210t-175.5 55v57h10q223 0 307 -74.5t84 -272.5v-200q0 -162 57 -223t216 -76v-68q-157 -13 -215 -74.5t-58 -224.5v-201q0 -197 -84 -271.5t-307 -74.5 h-10v57z" />
<glyph unicode="~" horiz-adv-x="1706" d="M178 434v187q106 72 202 107.5t185 35.5q62 0 125.5 -12t168.5 -48q13 -4 42 -15q164 -58 250 -58q85 0 177 37t202 116v-184q-103 -71 -197.5 -106t-183.5 -35q-44 0 -92.5 8.5t-98.5 26.5q-25 8 -76 26q-212 74 -319 74q-82 0 -174 -38t-211 -122z" />
<glyph unicode="&#xa0;" />
<glyph unicode="&#xa1;" horiz-adv-x="578" d="M127 1354q0 67 47 113t115 46q67 0 113.5 -46t46.5 -113q0 -69 -46 -115.5t-114 -46.5t-115 46.5t-47 115.5zM143 186q0 178 17.5 366t50.5 363q15 78 32.5 110t45.5 32q26 0 43 -31t33 -111q33 -177 50 -364t17 -365q0 -115 -33.5 -165t-109.5 -50q-77 0 -111.5 50.5 t-34.5 164.5z" />
<glyph unicode="&#xa2;" d="M127 621q0 226 115 373t317 177v115q0 29 8.5 39t30.5 10h55q22 0 30.5 -10.5t8.5 -38.5v-115q149 -13 241.5 -81.5t92.5 -161.5q0 -46 -32 -77.5t-79 -31.5q-50 0 -76.5 22.5t-37.5 75.5q-12 54 -35.5 77.5t-73.5 37.5l1 -772q48 2 88 18t73 48q16 15 46 57.5t58 42.5 q27 0 44.5 -18t17.5 -46q0 -89 -92 -163t-236 -95v-135q0 -28 -8 -37.5t-31 -9.5h-55q-23 0 -31 9.5t-8 37.5v137q-202 21 -317 157.5t-115 357.5zM377 657q0 -147 46.5 -247t137.5 -148v766q-91 -35 -137.5 -129t-46.5 -242z" />
<glyph unicode="&#xa3;" d="M-10 162q0 89 61 141.5t166 52.5q40 0 81.5 -9.5t83.5 -28.5q8 19 11.5 40.5t3.5 44.5q0 38 -12 86t-37 111h-213q-21 0 -30 10.5t-9 38.5v25q0 28 9 38.5t30 10.5h168q-31 98 -45 163t-14 111q0 150 116 240t312 90q157 0 253.5 -74.5t96.5 -191.5q0 -42 -15 -62 t-46 -20q-25 0 -39.5 15.5t-26.5 58.5q-22 70 -72.5 105.5t-130.5 35.5q-92 0 -141 -47t-49 -135q0 -42 14.5 -113t44.5 -176h273q21 0 29.5 -10.5t8.5 -38.5v-25q0 -28 -8.5 -38.5t-29.5 -10.5h-248q6 -39 9 -70t3 -55q0 -64 -17 -119.5t-51 -103.5q83 -41 154 -61.5 t133 -20.5q85 0 136 26t93 92q3 5 7 12q25 42 51 42q22 0 36.5 -18.5t14.5 -47.5q0 -114 -122 -209.5t-285 -95.5q-81 0 -160 27.5t-182 93.5q-50 -54 -105.5 -80t-120.5 -26q-88 0 -139 47t-51 129zM102 160q0 -31 21.5 -50.5t56.5 -19.5q38 0 71.5 20.5t55.5 57.5 q-43 38 -71 53t-54 15q-34 0 -57 -22t-23 -54z" />
<glyph unicode="&#xa4;" d="M23 553q0 23 17.5 34t53.5 11h84q-1 14 -1.5 28t-0.5 44t0.5 44.5t1.5 26.5h-84q-37 0 -54 10.5t-17 32.5q0 23 17.5 34t53.5 11h96q41 223 179 358.5t325 135.5q62 0 128.5 -25.5t80.5 -25.5q16 0 42.5 8t39.5 8q49 0 83 -72.5t34 -179.5q0 -52 -20.5 -81t-57.5 -29 q-48 0 -86 78q-16 32 -27 49q-42 65 -94 95t-125 30q-113 0 -174.5 -86.5t-72.5 -262.5h350q37 0 54 -10t17 -33q0 -22 -17.5 -33.5t-53.5 -11.5h-353q0 -35 2 -72t5 -71h274q37 0 54.5 -10.5t17.5 -32.5q0 -23 -18 -34t-54 -11h-264q24 -193 93 -293t177 -100 q60 0 120.5 31.5t112.5 88.5q14 15 34 42q33 45 55 45q24 0 38.5 -23t14.5 -61q0 -75 -32 -135t-71 -60q-2 0 -11 2t-13 2q-10 0 -32 -13q-13 -7 -21 -11q-45 -25 -102 -38.5t-117 -13.5q-213 0 -349 141.5t-170 395.5h-92q-37 0 -54 10.5t-17 32.5z" />
<glyph unicode="&#xa5;" d="M-16 1233q0 42 54.5 58t219.5 16q152 0 206 -16.5t54 -57.5q0 -37 -70 -61q-5 -2 -8 -3q-17 -6 -25.5 -17t-8.5 -26q0 -21 48 -100.5t175 -265.5q108 155 156.5 236t48.5 106q0 26 -14 42t-52 30q-35 13 -47 25.5t-12 33.5q0 41 47 57.5t190 16.5q131 0 176 -16.5 t45 -57.5q0 -36 -59 -61q-26 -11 -41 -19q-33 -18 -73 -68.5t-140 -214.5h174q34 0 50 -11t16 -36t-15.5 -36t-50.5 -11h-231l-88 -145h319q34 0 50 -11.5t16 -35.5q0 -25 -15.5 -36t-50.5 -11h-323q0 -171 5 -272t15 -115q9 -15 57.5 -33.5t48.5 -53.5q0 -40 -47.5 -55.5 t-201.5 -15.5q-165 0 -212.5 15t-47.5 56q0 35 47.5 53.5t56.5 33.5q10 14 15 115t5 272h-333q-34 0 -50 11t-16 36t15 36t51 11h327l-88 145h-239q-35 0 -50.5 10.5t-15.5 34.5q0 26 15.5 37.5t50.5 11.5h182q-105 170 -143.5 221.5t-63.5 67.5q-14 9 -45 19q-59 18 -59 55 z" />
<glyph unicode="&#xa6;" horiz-adv-x="1024" d="M424 -350v758h178v-758h-178zM424 674v758h178v-758h-178z" />
<glyph unicode="&#xa7;" horiz-adv-x="1067" d="M70 637q0 109 54.5 187.5t160.5 119.5q-77 65 -110.5 124.5t-33.5 129.5q0 145 115.5 232.5t308.5 87.5q150 0 251.5 -68.5t101.5 -163.5q0 -44 -28 -71t-73 -27q-38 0 -67.5 20t-42.5 55q-3 8 -6 22q-10 42 -27 60q-29 30 -69.5 46t-90.5 16q-85 0 -133.5 -43 t-48.5 -119q0 -123 291 -248q36 -16 55 -24q174 -76 246.5 -156t72.5 -192q0 -113 -51.5 -187t-152.5 -108q86 -67 127 -140t41 -163q0 -162 -113.5 -254t-310.5 -92q-172 0 -279.5 66.5t-107.5 168.5q0 50 28.5 80.5t75.5 30.5q41 0 69.5 -21.5t45.5 -64.5q2 -7 6 -23 q14 -58 43 -82q27 -21 61 -31t78 -10q97 0 155 52.5t58 138.5q0 135 -282 263q-34 15 -52 23q-225 103 -295.5 178.5t-70.5 186.5zM250 678q0 -47 30.5 -83.5t122.5 -90.5q88 -51 148.5 -74.5t103.5 -23.5q65 0 112.5 50.5t47.5 121.5q0 56 -34 98.5t-122 91.5 q-81 46 -145.5 70t-105.5 24q-62 0 -110 -55t-48 -129z" />
<glyph unicode="&#xa8;" horiz-adv-x="1024" d="M217 1346q0 44 35.5 78t81.5 34t79 -33t33 -79q0 -50 -32 -83.5t-80 -33.5t-82.5 34.5t-34.5 82.5zM575 1346q0 44 35.5 78t81.5 34q47 0 81 -33.5t34 -78.5q0 -50 -33 -83.5t-82 -33.5q-47 0 -82 34.5t-35 82.5z" />
<glyph unicode="&#xa9;" horiz-adv-x="1683" d="M121 678q0 143 54 274.5t157 235.5q102 102 235 157.5t277 55.5q140 0 272.5 -55.5t233.5 -155.5q101 -102 157 -235.5t56 -276.5q0 -142 -55.5 -274t-157.5 -236q-101 -102 -231 -155.5t-277 -53.5q-145 0 -274.5 53t-233.5 156q-104 104 -158.5 234.5t-54.5 275.5z M219 678q0 -126 47.5 -239.5t136.5 -202.5q91 -91 201.5 -137t237.5 -46q126 0 238.5 47t199.5 136q88 89 136 204.5t48 237.5q0 124 -48 241.5t-136 204.5q-86 86 -200 133.5t-236 47.5q-126 0 -241 -48t-202 -137q-88 -90 -135 -203.5t-47 -238.5zM416 670 q0 184 119.5 309t295.5 125q80 0 154 -33t78 -33q28 0 41.5 14t19.5 48h41l2 -320h-47q-32 134 -102 203.5t-172 69.5q-116 0 -176 -94t-60 -275q0 -184 65 -281.5t189 -97.5q82 0 151 43.5t126 130.5l43 -26q-63 -108 -150 -160.5t-200 -52.5q-177 0 -297.5 124t-120.5 306 z" />
<glyph unicode="&#xaa;" horiz-adv-x="836" d="M41 979q0 117 90.5 182.5t253.5 65.5q31 0 67.5 -3t79.5 -10v76q0 64 -30 98.5t-86 34.5q-38 0 -71 -15.5t-65 -48.5q-4 -4 -13 -15q-47 -58 -103 -58q-31 0 -49.5 18.5t-18.5 49.5q0 69 91 115.5t235 46.5q87 0 149.5 -21t96.5 -61q23 -29 33 -75t10 -149v-235 q0 -43 7 -62.5t23 -23.5q8 -2 23 -6q51 -12 51 -37q0 -35 -52.5 -62.5t-123.5 -27.5q-34 0 -72.5 37.5t-40.5 37.5q-7 0 -34 -16q-99 -59 -195 -59q-114 0 -185 61.5t-71 161.5zM240 1001q0 -57 41 -92t110 -35q76 0 108.5 32t32.5 108v106q-32 7 -60.5 10t-53.5 3 q-84 0 -131 -35t-47 -97z" />
<glyph unicode="&#xab;" horiz-adv-x="940" d="M55 518q0 28 82 112l6 7q25 26 69 74q195 211 237 211q14 0 23 -10.5t9 -26.5q0 -32 -56 -128t-159 -239q104 -144 159.5 -238.5t55.5 -125.5q0 -15 -8.5 -26t-19.5 -11q-41 0 -150 116q-30 32 -47 50q-25 26 -68 70q-133 137 -133 165zM455 518q0 26 57 85q20 20 30 31 q29 31 78 85q184 203 228 203q14 0 22.5 -10.5t8.5 -26.5q0 -34 -56.5 -131t-156.5 -236q101 -140 157 -235.5t56 -128.5q0 -16 -8.5 -26.5t-20.5 -10.5q-40 0 -142 110q-33 36 -53 56q-27 28 -74 76q-126 130 -126 159z" />
<glyph unicode="&#xac;" horiz-adv-x="1706" d="M254 696v166h1198v-502h-166v336h-1032z" />
<glyph unicode="&#xad;" horiz-adv-x="711" d="M90 471q0 20 8.5 47.5t24.5 61.5q14 29 29 39t59 10q2 0 49.5 -1t93.5 -1q86 0 179 6q23 2 28 2q33 0 47.5 -12t14.5 -39q0 -62 -32.5 -111t-80.5 -49q-13 0 -49 2t-58 2q-119 0 -233 -9q-17 -1 -20 -1q-33 0 -46.5 12t-13.5 41z" />
<glyph unicode="&#xae;" horiz-adv-x="1683" d="M121 678q0 143 54.5 275t156.5 235q102 102 235 157.5t277 55.5t279 -57t235 -160q98 -102 151.5 -235.5t53.5 -278.5q0 -138 -59.5 -272.5t-166.5 -239.5q-101 -100 -228 -149.5t-282 -49.5q-135 0 -264 54.5t-229 154.5q-105 104 -159 234t-54 276zM219 678 q0 -126 47.5 -239.5t136.5 -202.5q91 -91 201.5 -137t237.5 -46q126 0 238.5 47t199.5 136q89 90 136.5 204.5t47.5 237.5q0 122 -48.5 240t-135.5 206q-86 86 -200 133.5t-236 47.5q-126 0 -241 -48t-202 -137q-89 -90 -135.5 -203t-46.5 -239zM467 287v46q64 4 88.5 24.5 t24.5 72.5v520q0 52 -23.5 72t-89.5 25v49h399q145 0 232.5 -55t87.5 -142q0 -84 -65.5 -133t-217.5 -76q96 -25 147.5 -73t69.5 -127q6 -24 10 -67q9 -91 54 -91q29 0 44 34t15 99h49v-23q0 -85 -43 -129.5t-127 -44.5q-46 0 -80 14.5t-53 43.5q-24 39 -27 111.5t-8 93.5 q-16 74 -60.5 109.5t-121.5 35.5h-24v-246q0 -49 22.5 -69.5t85.5 -26.5v-47h-389zM748 723q14 -1 27 -1.5t26 -0.5q100 0 154.5 44t54.5 126q0 70 -46.5 114t-121.5 44q-47 0 -70.5 -17.5t-23.5 -50.5v-258z" />
<glyph unicode="&#xaf;" horiz-adv-x="1024" d="M231 1305v77q0 18 8.5 25.5t28.5 7.5h488q20 0 28.5 -7.5t8.5 -25.5v-77q0 -21 -8 -28t-29 -7h-488q-21 0 -29 7t-8 28z" />
<glyph unicode="&#xb0;" horiz-adv-x="674" d="M43 1163q0 125 86 211t209 86t209 -87t86 -210q0 -121 -87 -208t-210 -87t-208 85.5t-85 209.5zM152 1165q0 -76 54.5 -131t131.5 -55t130.5 54.5t53.5 131.5t-53.5 131t-130.5 54t-131.5 -54t-54.5 -131z" />
<glyph unicode="&#xb1;" horiz-adv-x="1706" d="M254 14v168h1198v-168h-1198zM254 707v165h514v334h170v-334h514v-165h-514v-334h-170v334h-514z" />
<glyph unicode="&#xb2;" horiz-adv-x="764" d="M18 547q0 28 91 104q53 44 86 74q178 159 225 226t47 130q0 59 -37 95t-96 36q-41 0 -78.5 -16t-77.5 -51q-10 -9 -27 -27q-36 -37 -61 -37q-20 0 -30.5 9.5t-10.5 27.5t12 39t33 41q56 56 129.5 85.5t157.5 29.5q125 0 201.5 -59t76.5 -154q0 -58 -32.5 -114 t-104.5 -120q-32 -28 -115 -93.5t-130 -106.5q-2 -2 -3 -4q-5 -7 -6 -11q1 -3 6.5 -4.5t14.5 -1.5h217q36 0 55.5 5.5t30.5 17.5q10 11 26 36q28 44 56 44q15 0 26 -11.5t11 -27.5q0 -31 -9 -64.5t-28 -75.5q-23 -50 -40.5 -69t-39.5 -19q-17 0 -25 9t-8 28h-479 q-42 0 -53 6t-11 23z" />
<glyph unicode="&#xb3;" horiz-adv-x="764" d="M18 475q0 17 15.5 30t36.5 13q2 0 59 -13t113 -13q127 0 189.5 46t62.5 140q0 72 -47 115t-125 43q-22 0 -54 -5.5t-43 -5.5q-19 0 -28 9.5t-9 29.5q0 23 52 41q15 5 25 9q83 33 123 74.5t40 96.5q0 61 -36 96.5t-97 35.5q-52 0 -122 -33t-87 -33q-16 0 -27.5 11 t-11.5 26q0 13 11 26t32 25q65 37 133 55.5t142 18.5q113 0 181 -57.5t68 -151.5q0 -57 -34.5 -106.5t-100.5 -84.5q96 -13 148.5 -71t52.5 -150q0 -133 -110 -212t-296 -79q-118 0 -187 20t-69 54z" />
<glyph unicode="&#xb4;" horiz-adv-x="1024" d="M324 1251q0 8 5.5 14.5t22.5 18.5l355 215q19 12 31 16.5t24 4.5q30 0 60 -42.5t30 -80.5q0 -32 -62 -58l-4 -2l-372 -168q-10 -4 -17 -6t-12 -2q-16 0 -38.5 32t-22.5 58z" />
<glyph unicode="&#xb5;" horiz-adv-x="1184" d="M-109 -319q0 52 69 282.5t108 409.5l108 512h207l-100 -467q-10 -46 -15.5 -82t-5.5 -57q0 -64 37 -101t102 -37q87 0 139 53.5t76 167.5l111 523h209l-113 -533l-3 -15q-15 -70 -15 -110q0 -42 22.5 -66t63.5 -24q40 0 71 21.5t58 68.5q9 17 23 49q25 60 51 60 q11 0 16.5 -7.5t5.5 -23.5q0 -28 -17 -85.5t-40 -100.5q-41 -72 -95.5 -108t-123.5 -36q-84 0 -129.5 55t-47.5 156q-42 -104 -109.5 -157.5t-156.5 -53.5q-99 0 -156.5 58t-68.5 168q-23 -124 -48 -315q-39 -306 -134 -306q-47 0 -73 26.5t-26 74.5z" />
<glyph unicode="&#xb6;" horiz-adv-x="1024" d="M55 1130q0 158 107 253.5t284 95.5h523v-99h-117v-1380h-129v1380h-168v-1380h-131v784q-168 6 -268.5 101t-100.5 245z" />
<glyph unicode="&#xb7;" horiz-adv-x="578" d="M127 664q0 68 47 114.5t115 46.5t115 -46.5t47 -114.5t-47 -114t-115 -46t-115 46t-47 114z" />
<glyph unicode="&#xb8;" horiz-adv-x="1024" d="M264 -371q0 24 11 36.5t32 12.5q16 0 88.5 -23.5t126.5 -23.5q58 0 89.5 22t31.5 62q0 42 -30.5 65t-86.5 23q-21 0 -47 -4t-30 -4q-8 0 -13.5 11t-5.5 28q0 19 5.5 62.5t15.5 103.5h95q-5 -30 -7 -52.5t-2 -45.5v-21q24 6 39.5 8t27.5 2q94 0 149.5 -47t55.5 -127 q0 -89 -68 -134.5t-202 -45.5q-119 0 -197 27t-78 65z" />
<glyph unicode="&#xb9;" horiz-adv-x="764" d="M160 557q0 29 49 36.5t65 14.5q15 7 20 14t7 27q2 21 3 87t1 294q0 18 1 44.5t1 35.5q0 44 -8 57t-33 13q-10 0 -32 -1t-33 -1q-21 0 -31 6t-10 18q0 19 20 33t72 31q59 20 114.5 31.5t92.5 11.5q28 0 42.5 -9.5t14.5 -27.5q0 -19 -25 -36q-8 -5 -10 -7 q-9 -10 -12.5 -58.5t-3.5 -236.5q0 -119 3 -245q1 -31 1 -37q2 -22 8 -30.5t23 -15.5q17 -6 52 -11q58 -8 58 -36q0 -26 -34 -35.5t-168 -9.5h-23q-156 0 -190.5 9t-34.5 34z" />
<glyph unicode="&#xba;" horiz-adv-x="879" d="M43 1133q0 164 117 273.5t293 109.5q168 0 275.5 -102.5t107.5 -262.5q0 -169 -115.5 -282t-286.5 -113q-169 0 -280 107t-111 270zM242 1198q0 -145 65.5 -242.5t159.5 -97.5q76 0 124 60.5t48 158.5q0 143 -66 240.5t-159 97.5q-77 0 -124.5 -59.5t-47.5 -157.5z" />
<glyph unicode="&#xbb;" horiz-adv-x="940" d="M61 154q0 33 56.5 130t156.5 236q-101 140 -157 235.5t-56 129.5q0 15 8.5 26t20.5 11q40 0 142 -111q33 -35 53 -55q27 -29 74 -77q126 -130 126 -159q0 -25 -57 -84q-20 -21 -31 -33q-28 -30 -77 -84q-184 -202 -228 -202q-14 0 -22.5 10t-8.5 27zM459 154 q0 31 56.5 127.5t158.5 238.5q-104 145 -159.5 239.5t-55.5 125.5q0 15 8.5 26t19.5 11q41 0 150 -116q30 -32 47 -50q25 -26 68 -71q133 -137 133 -165q0 -27 -82 -112l-6 -7q-29 -30 -79 -85q-184 -199 -224 -199q-15 0 -25 10.5t-10 26.5z" />
<glyph unicode="&#xbc;" horiz-adv-x="1800" d="M154 604q0 29 57 37q36 5 53 12q12 5 17.5 12t7.5 26q2 21 3 83t1 273q0 16 1 41t1 34q0 41 -8 53.5t-33 12.5q-9 0 -29.5 -2t-31.5 -2q-20 0 -29.5 6t-9.5 18q0 18 20 31.5t68 28.5q59 19 113 30t83 11q26 0 41 -9.5t15 -25.5q0 -20 -25 -34q-8 -5 -11 -8 q-7 -8 -10.5 -54t-3.5 -222q0 -107 4 -227q1 -30 1 -37q2 -19 7 -26t22 -15q16 -6 51 -10q55 -7 55 -35q0 -23 -33.5 -32t-161.5 -9h-20q-149 0 -182 8.5t-33 30.5zM387 45q0 22 53 85q8 10 13 16q86 105 225.5 304.5t185.5 262.5l49 63q203 267 351 504q15 27 24.5 35 t22.5 8q19 0 59.5 -29.5t40.5 -48.5q0 -13 -170.5 -225t-323.5 -427q-9 -12 -32 -45q-199 -277 -355 -544q-11 -21 -18 -26.5t-18 -6.5q-27 0 -67 27.5t-40 46.5zM1075 102q0 47 201 288l45 54q16 20 45 55q195 240 252 240q31 0 43 -15t12 -58v-506h64q24 0 31.5 -5.5 t7.5 -21.5v-43q0 -16 -6.5 -21.5t-32.5 -5.5h-64v-176q0 -23 -7 -28.5t-46 -5.5h-43q-43 0 -50 5.5t-7 28.5v176h-367q-56 0 -67 7.5t-11 31.5zM1200 160h320v391q-88 -92 -167.5 -189.5t-152.5 -201.5z" />
<glyph unicode="&#xbd;" horiz-adv-x="1800" d="M154 604q0 29 57 37q36 5 53 12q12 5 17.5 12t7.5 26q2 21 3 83t1 273q0 16 1 41t1 34q0 41 -8 53.5t-33 12.5q-9 0 -29.5 -2t-31.5 -2q-20 0 -29.5 6t-9.5 18q0 18 20 31.5t68 28.5q59 19 113 30t83 11q26 0 41 -9.5t15 -25.5q0 -20 -25 -34q-8 -5 -11 -8 q-7 -8 -10.5 -54t-3.5 -222q0 -107 4 -227q1 -30 1 -37q2 -19 7 -26t22 -15q16 -6 51 -10q55 -7 55 -35q0 -23 -33.5 -32t-161.5 -9h-20q-149 0 -182 8.5t-33 30.5zM387 45q0 22 53 85q8 10 13 16q86 105 225.5 304.5t185.5 262.5l49 63q203 267 351 504q15 27 24.5 35 t22.5 8q19 0 59.5 -29.5t40.5 -48.5q0 -13 -170.5 -225t-323.5 -427q-9 -12 -32 -45q-199 -277 -355 -544q-11 -21 -18 -26.5t-18 -6.5q-27 0 -67 27.5t-40 46.5zM1090 27q0 28 92 103q47 38 75 63q168 145 213.5 209t45.5 124q0 55 -34.5 88t-90.5 33q-39 0 -75.5 -15 t-74.5 -46q-10 -9 -26 -27q-33 -35 -58 -35q-18 0 -28.5 9.5t-10.5 25.5q0 17 10.5 36.5t30.5 39.5q55 52 126 79t151 27q118 0 191 -55t73 -143q0 -54 -31 -106.5t-98 -110.5q-26 -22 -106.5 -84t-129.5 -105q-2 -3 -5 -7t-3 -5q0 -3 5 -4.5t16 -1.5h206q39 0 55.5 4.5 t27.5 16.5q9 10 23 31q27 42 54 42q16 0 25.5 -9.5t9.5 -25.5q0 -27 -8.5 -58t-26.5 -71q-21 -46 -38 -65t-38 -19q-16 0 -24 9t-8 26h-457q-39 0 -49 5.5t-10 21.5z" />
<glyph unicode="&#xbe;" horiz-adv-x="1800" d="M18 528q0 17 15 29t35 12q1 0 55.5 -12t107.5 -12q121 0 180.5 43t59.5 131q0 66 -45 106.5t-119 40.5q-20 0 -50.5 -5t-41.5 -5q-18 0 -26.5 9t-8.5 28q0 20 44 35q18 6 28 10q82 32 120 71t38 91q0 55 -35 88t-94 33q-49 0 -116 -31t-83 -31q-14 0 -25.5 10.5 t-11.5 24.5q0 12 10.5 24t30.5 23q61 35 125.5 52.5t134.5 17.5q110 0 175 -53t65 -142q0 -54 -33 -99.5t-96 -78.5q92 -14 142 -67.5t50 -139.5q0 -123 -105 -196.5t-282 -73.5q-112 0 -178 18.5t-66 48.5zM387 45q0 22 53 85q8 10 13 16q86 105 225.5 304.5t185.5 262.5 l49 63q203 267 351 504q15 27 24.5 35t22.5 8q19 0 59.5 -29.5t40.5 -48.5q0 -13 -170.5 -225t-323.5 -427q-9 -12 -32 -45q-199 -277 -355 -544q-11 -21 -18 -26.5t-18 -6.5q-27 0 -67 27.5t-40 46.5zM1075 102q0 47 201 288l45 54q16 20 45 55q195 240 252 240 q31 0 43 -15t12 -58v-506h64q24 0 31.5 -5.5t7.5 -21.5v-43q0 -16 -6.5 -21.5t-32.5 -5.5h-64v-176q0 -23 -7 -28.5t-46 -5.5h-43q-43 0 -50 5.5t-7 28.5v176h-367q-56 0 -67 7.5t-11 31.5zM1200 160h320v391q-88 -92 -167.5 -189.5t-152.5 -201.5z" />
<glyph unicode="&#xbf;" horiz-adv-x="1010" d="M94 301q0 85 36 153t137 157q9 8 31 26q102 85 132 174q8 21 11 43.5t3 65.5v20q0 20 1 29.5t4 16.5q11 40 25 52.5t42 12.5q47 0 67.5 -31t20.5 -105q0 -73 -19 -144.5t-59 -141.5q-16 -29 -51 -85q-108 -171 -108 -278q0 -81 42.5 -127.5t114.5 -46.5q67 0 107 37 t61 119q28 110 55 138t76 28q51 0 77 -33.5t26 -97.5q0 -130 -123 -221t-305 -91q-183 0 -293.5 90.5t-110.5 239.5zM356 1356q0 67 47.5 114.5t114.5 47.5t113.5 -47t46.5 -115q0 -69 -46 -115.5t-114 -46.5t-115 46.5t-47 115.5z" />
<glyph unicode="&#xc0;" horiz-adv-x="1518" d="M-18 74q0 40 62 65q27 11 40 19q79 48 148 227q15 39 24 62l150 376q12 32 37 92q150 372 186 529q10 48 32 61t80 13q39 0 61.5 -14t43.5 -54q60 -117 159.5 -344.5t204.5 -493.5q18 -44 49 -123q117 -302 187 -339q10 -6 36 -14q66 -20 66 -62q0 -48 -62.5 -66 t-248.5 -18q-184 0 -245.5 18t-61.5 66q0 38 75 65q11 4 16 6q29 10 40.5 24.5t11.5 39.5q0 28 -16 87.5t-39 109.5q-13 25 -19.5 31.5t-14.5 8.5q-20 5 -82.5 8t-158.5 3h-51q-157 0 -209 -6.5t-67 -22.5q-24 -27 -47 -87.5t-23 -98.5q0 -32 15.5 -54.5t47.5 -35.5 q13 -6 36 -14q65 -22 65 -64q0 -48 -53 -66t-211 -18q-159 0 -211.5 18t-52.5 66zM401 1858q0 38 30 80.5t60 42.5q12 0 24 -4.5t32 -16.5l354 -215q17 -12 23 -18.5t6 -14.5q0 -26 -23 -58t-39 -32q-5 0 -12 2t-17 6l-372 168l-4 2q-62 26 -62 58zM475 606q57 4 113.5 6 t116.5 2q56 0 112 -1.5t110 -4.5q-55 154 -108.5 286.5t-105.5 244.5h-27q-55 -128 -107.5 -260.5t-103.5 -272.5z" />
<glyph unicode="&#xc1;" horiz-adv-x="1518" d="M-18 74q0 40 62 65q27 11 40 19q79 48 148 227q15 39 24 62l150 376q12 32 37 92q150 372 186 529q10 48 32 61t80 13q39 0 61.5 -14t43.5 -54q60 -117 159.5 -344.5t204.5 -493.5q18 -44 49 -123q117 -302 187 -339q10 -6 36 -14q66 -20 66 -62q0 -48 -62.5 -66 t-248.5 -18q-184 0 -245.5 18t-61.5 66q0 38 75 65q11 4 16 6q29 10 40.5 24.5t11.5 39.5q0 28 -16 87.5t-39 109.5q-13 25 -19.5 31.5t-14.5 8.5q-20 5 -82.5 8t-158.5 3h-51q-157 0 -209 -6.5t-67 -22.5q-24 -27 -47 -87.5t-23 -98.5q0 -32 15.5 -54.5t47.5 -35.5 q13 -6 36 -14q65 -22 65 -64q0 -48 -53 -66t-211 -18q-159 0 -211.5 18t-52.5 66zM475 606q57 4 113.5 6t116.5 2q56 0 112 -1.5t110 -4.5q-55 154 -108.5 286.5t-105.5 244.5h-27q-55 -128 -107.5 -260.5t-103.5 -272.5zM549 1712q0 8 5.5 14.5t22.5 18.5l355 215 q19 12 31 16.5t24 4.5q30 0 60 -42.5t30 -80.5q0 -32 -62 -58l-4 -2l-372 -168q-10 -4 -17 -6t-12 -2q-16 0 -38.5 32t-22.5 58z" />
<glyph unicode="&#xc2;" horiz-adv-x="1518" d="M-18 74q0 40 62 65q27 11 40 19q79 48 148 227q15 39 24 62l150 376q12 32 37 92q150 372 186 529q10 48 32 61t80 13q39 0 61.5 -14t43.5 -54q60 -117 159.5 -344.5t204.5 -493.5q18 -44 49 -123q117 -302 187 -339q10 -6 36 -14q66 -20 66 -62q0 -48 -62.5 -66 t-248.5 -18q-184 0 -245.5 18t-61.5 66q0 38 75 65q11 4 16 6q29 10 40.5 24.5t11.5 39.5q0 28 -16 87.5t-39 109.5q-13 25 -19.5 31.5t-14.5 8.5q-20 5 -82.5 8t-158.5 3h-51q-157 0 -209 -6.5t-67 -22.5q-24 -27 -47 -87.5t-23 -98.5q0 -32 15.5 -54.5t47.5 -35.5 q13 -6 36 -14q65 -22 65 -64q0 -48 -53 -66t-211 -18q-159 0 -211.5 18t-52.5 66zM428 1651q0 12 27 54l4 6l151 223q23 34 47 45.5t80 11.5t80 -11.5t47 -45.5l151 -223l4 -6q27 -42 27 -54q0 -10 -12.5 -16.5t-32.5 -6.5h-61q-22 0 -37 8t-31 29l-135 178l-135 -178 q-16 -21 -31 -29t-37 -8h-61q-20 0 -32.5 6.5t-12.5 16.5zM475 606q57 4 113.5 6t116.5 2q56 0 112 -1.5t110 -4.5q-55 154 -108.5 286.5t-105.5 244.5h-27q-55 -128 -107.5 -260.5t-103.5 -272.5z" />
<glyph unicode="&#xc3;" horiz-adv-x="1518" d="M-18 74q0 40 62 65q27 11 40 19q79 48 148 227q15 39 24 62l150 376q12 32 37 92q150 372 186 529q10 48 32 61t80 13q39 0 61.5 -14t43.5 -54q60 -117 159.5 -344.5t204.5 -493.5q18 -44 49 -123q117 -302 187 -339q10 -6 36 -14q66 -20 66 -62q0 -48 -62.5 -66 t-248.5 -18q-184 0 -245.5 18t-61.5 66q0 38 75 65q11 4 16 6q29 10 40.5 24.5t11.5 39.5q0 28 -16 87.5t-39 109.5q-13 25 -19.5 31.5t-14.5 8.5q-20 5 -82.5 8t-158.5 3h-51q-157 0 -209 -6.5t-67 -22.5q-24 -27 -47 -87.5t-23 -98.5q0 -32 15.5 -54.5t47.5 -35.5 q13 -6 36 -14q65 -22 65 -64q0 -48 -53 -66t-211 -18q-159 0 -211.5 18t-52.5 66zM432 1731q0 62 56.5 121t127.5 59q48 0 129 -28.5t115 -28.5q28 0 44.5 5.5t25.5 17.5q6 7 16 22q25 39 45 39q21 0 35 -14t14 -36q0 -62 -56.5 -121t-127.5 -59q-60 0 -147 29t-109 29 q-41 0 -72 -41t-47 -41q-22 0 -35.5 13t-13.5 34zM475 606q57 4 113.5 6t116.5 2q56 0 112 -1.5t110 -4.5q-55 154 -108.5 286.5t-105.5 244.5h-27q-55 -128 -107.5 -260.5t-103.5 -272.5z" />
<glyph unicode="&#xc4;" horiz-adv-x="1518" d="M-18 74q0 40 62 65q27 11 40 19q79 48 148 227q15 39 24 62l150 376q12 32 37 92q150 372 186 529q10 48 32 61t80 13q39 0 61.5 -14t43.5 -54q60 -117 159.5 -344.5t204.5 -493.5q18 -44 49 -123q117 -302 187 -339q10 -6 36 -14q66 -20 66 -62q0 -48 -62.5 -66 t-248.5 -18q-184 0 -245.5 18t-61.5 66q0 38 75 65q11 4 16 6q29 10 40.5 24.5t11.5 39.5q0 28 -16 87.5t-39 109.5q-13 25 -19.5 31.5t-14.5 8.5q-20 5 -82.5 8t-158.5 3h-51q-157 0 -209 -6.5t-67 -22.5q-24 -27 -47 -87.5t-23 -98.5q0 -32 15.5 -54.5t47.5 -35.5 q13 -6 36 -14q65 -22 65 -64q0 -48 -53 -66t-211 -18q-159 0 -211.5 18t-52.5 66zM442 1807q0 44 35.5 78t81.5 34t79 -33t33 -79q0 -50 -32 -83.5t-80 -33.5t-82.5 34.5t-34.5 82.5zM475 606q57 4 113.5 6t116.5 2q56 0 112 -1.5t110 -4.5q-55 154 -108.5 286.5 t-105.5 244.5h-27q-55 -128 -107.5 -260.5t-103.5 -272.5zM800 1807q0 44 35.5 78t81.5 34q47 0 81 -33.5t34 -78.5q0 -50 -33 -83.5t-82 -33.5q-47 0 -82 34.5t-35 82.5z" />
<glyph unicode="&#xc5;" horiz-adv-x="1518" d="M-18 70q0 39 61 60q28 10 40 17q82 47 150 219q15 38 23 58l150 358q16 40 49 117q138 326 174 471q11 48 34 61t78 13q36 0 59 -14t46 -54q55 -100 155.5 -317.5t208.5 -476.5q15 -36 42 -101q122 -301 193 -339q11 -6 36 -13q67 -20 67 -59q0 -45 -63.5 -62.5 t-247.5 -17.5q-182 0 -244.5 17.5t-62.5 62.5q0 40 88 68l3 1q29 10 40.5 23.5t11.5 36.5q0 26 -16 82.5t-39 103.5q-15 29 -43.5 40t-93.5 11q-17 0 -65.5 -1t-80.5 -1q-135 0 -213 -4t-92 -12q-25 -14 -54.5 -77.5t-29.5 -111.5q0 -31 16 -52t48 -34q11 -4 33 -11 q67 -21 67 -62q0 -45 -53.5 -62.5t-210.5 -17.5t-210.5 17.5t-53.5 62.5zM475 606q57 4 113.5 6t116.5 2q56 0 112 -1.5t110 -4.5q-55 154 -108.5 286.5t-105.5 244.5h-27q-55 -128 -107.5 -260.5t-103.5 -272.5zM508 1741q0 96 68 163.5t165 67.5q100 0 167 -66.5 t67 -164.5q0 -99 -68 -167.5t-166 -68.5q-97 0 -165 69t-68 167zM627 1741q0 -49 33 -82t81 -33q49 0 82 33t33 82q0 47 -33.5 80.5t-81.5 33.5q-47 0 -80.5 -33.5t-33.5 -80.5z" />
<glyph unicode="&#xc6;" horiz-adv-x="2157" d="M-10 74q0 39 60 65q16 7 24 11q86 39 233 281q43 71 68 110l235 377q111 175 150 252.5t39 113.5q0 23 -10.5 38.5t-31.5 23.5q-3 1 -10 3q-79 28 -79 74q0 40 47.5 55t226.5 15h879q50 0 101.5 11.5t53.5 11.5q15 0 26.5 -6.5t18.5 -18.5q23 -38 42.5 -110t19.5 -121 q0 -45 -18 -71t-50 -26q-36 0 -79 72q-19 31 -31 49q-22 33 -68 49.5t-115 16.5h-145q-101 0 -152.5 -11t-70.5 -36q-17 -20 -24 -84.5t-7 -204.5v-84q0 -50 8.5 -62t38.5 -12h186q83 0 116.5 23.5t43.5 89.5q1 6 3 20q13 107 67 107q47 0 64.5 -59t17.5 -255 q0 -195 -17.5 -253t-64.5 -58q-54 0 -67 106q-2 15 -3 21q-10 65 -43.5 89t-116.5 24h-186q-29 0 -39 -17.5t-10 -83.5v-98q0 -136 5 -201.5t17 -93.5q15 -34 68 -48.5t166 -14.5h135q109 0 166.5 28t99.5 103q14 23 31 69q31 78 68 78q26 0 41.5 -25.5t15.5 -70.5 q0 -53 -16.5 -130t-44.5 -153q-16 -38 -34 -58t-38 -20q-5 0 -26 6q-69 19 -138 19h-707q-149 0 -187 14.5t-38 53.5q0 48 61 69q21 7 31 13q31 17 42.5 63t11.5 207q0 39 -5.5 50t-23.5 15q-21 5 -117 8t-227 3q-81 0 -124 -5.5t-54 -17.5q-12 -14 -31.5 -42t-40.5 -62 q-43 -71 -56.5 -99.5t-13.5 -46.5q0 -24 14.5 -41.5t46.5 -31.5q9 -4 25 -10q60 -24 60 -66q0 -48 -51.5 -66t-206.5 -18q-150 0 -203 18.5t-53 65.5zM604 651q61 1 116.5 1.5t113.5 0.5q66 0 117 -1t104 -3q0 45 1 130q3 263 3 354v69q0 99 -7.5 126.5t-27.5 27.5 q-14 0 -75.5 -120.5t-121.5 -217.5z" />
<glyph unicode="&#xc7;" horiz-adv-x="1430" d="M70 762q0 147 42 272t126 226q102 125 248 191.5t321 66.5q57 0 127 -11t201 -43q8 3 22 7q64 18 80 18q18 0 35.5 -11t27.5 -30q33 -56 54.5 -135.5t21.5 -141.5q0 -44 -16 -66t-49 -22q-46 0 -124 93q-41 49 -67 75q-55 58 -138.5 88.5t-182.5 30.5q-205 0 -322 -139 t-117 -381q0 -311 149 -509t378 -198q92 0 173 30t134 83q20 20 49 58q46 61 78 61q28 0 44.5 -28.5t16.5 -76.5q0 -97 -27.5 -153t-74.5 -56q-4 0 -9.5 1t-15.5 3q-96 -52 -193.5 -77t-203.5 -25q-156 0 -295 51t-246 146q-120 110 -183.5 264.5t-63.5 337.5zM569 -371 q0 24 11 36.5t32 12.5q16 0 88.5 -23.5t126.5 -23.5q58 0 89.5 22t31.5 62q0 42 -30.5 65t-86.5 23q-21 0 -47 -4t-30 -4q-8 0 -13.5 11t-5.5 28q0 19 5.5 62.5t15.5 103.5h95q-5 -30 -7 -52.5t-2 -45.5v-21q24 6 39.5 8t27.5 2q94 0 149.5 -47t55.5 -127q0 -89 -68 -134.5 t-202 -45.5q-119 0 -197 27t-78 65z" />
<glyph unicode="&#xc8;" horiz-adv-x="1305" d="M53 68q0 47 66 72q32 12 45 22q22 16 31.5 148t9.5 446q0 225 -9.5 384t-21.5 179q-10 14 -65.5 37.5t-55.5 66.5q0 40 48 55t227 15h639q50 0 102.5 11.5t54.5 11.5q15 0 26.5 -6.5t18.5 -18.5q22 -37 41 -109t19 -122q0 -46 -17.5 -71.5t-48.5 -25.5q-36 0 -79 72 q-19 31 -31 49q-22 32 -69 49t-116 17h-143q-101 0 -152.5 -11t-70.5 -36q-17 -21 -25 -89t-8 -200v-84q0 -50 8.5 -62t38.5 -12h186q84 0 117.5 24t42.5 88q1 8 4 25q15 103 68 103q46 0 63 -56.5t17 -257.5q0 -199 -17 -255t-63 -56q-53 0 -68 103q-2 15 -4 25 q-9 63 -42.5 87.5t-117.5 24.5h-184q-29 0 -39 -17.5t-10 -83.5v-98q0 -136 5 -201.5t18 -93.5q14 -34 67 -48.5t166 -14.5h135q109 0 166.5 28t99.5 103q14 23 32 69q30 78 67 78q26 0 41.5 -25.5t15.5 -70.5q0 -53 -16.5 -130t-44.5 -153q-16 -38 -34 -58t-38 -20 q-5 0 -26 6q-69 19 -138 19h-706q-150 0 -188 14.5t-38 53.5zM330 1858q0 38 30 80.5t60 42.5q12 0 24 -4.5t32 -16.5l354 -215q17 -12 23 -18.5t6 -14.5q0 -26 -23 -58t-39 -32q-5 0 -12 2t-17 6l-372 168l-4 2q-62 26 -62 58z" />
<glyph unicode="&#xc9;" horiz-adv-x="1305" d="M53 68q0 47 66 72q32 12 45 22q22 16 31.5 148t9.5 446q0 225 -9.5 384t-21.5 179q-10 14 -65.5 37.5t-55.5 66.5q0 40 48 55t227 15h639q50 0 102.5 11.5t54.5 11.5q15 0 26.5 -6.5t18.5 -18.5q22 -37 41 -109t19 -122q0 -46 -17.5 -71.5t-48.5 -25.5q-36 0 -79 72 q-19 31 -31 49q-22 32 -69 49t-116 17h-143q-101 0 -152.5 -11t-70.5 -36q-17 -21 -25 -89t-8 -200v-84q0 -50 8.5 -62t38.5 -12h186q84 0 117.5 24t42.5 88q1 8 4 25q15 103 68 103q46 0 63 -56.5t17 -257.5q0 -199 -17 -255t-63 -56q-53 0 -68 103q-2 15 -4 25 q-9 63 -42.5 87.5t-117.5 24.5h-184q-29 0 -39 -17.5t-10 -83.5v-98q0 -136 5 -201.5t18 -93.5q14 -34 67 -48.5t166 -14.5h135q109 0 166.5 28t99.5 103q14 23 32 69q30 78 67 78q26 0 41.5 -25.5t15.5 -70.5q0 -53 -16.5 -130t-44.5 -153q-16 -38 -34 -58t-38 -20 q-5 0 -26 6q-69 19 -138 19h-706q-150 0 -188 14.5t-38 53.5zM478 1712q0 8 5.5 14.5t22.5 18.5l355 215q19 12 31 16.5t24 4.5q30 0 60 -42.5t30 -80.5q0 -32 -62 -58l-4 -2l-372 -168q-10 -4 -17 -6t-12 -2q-16 0 -38.5 32t-22.5 58z" />
<glyph unicode="&#xca;" horiz-adv-x="1305" d="M53 68q0 47 66 72q32 12 45 22q22 16 31.5 148t9.5 446q0 225 -9.5 384t-21.5 179q-10 14 -65.5 37.5t-55.5 66.5q0 40 48 55t227 15h639q50 0 102.5 11.5t54.5 11.5q15 0 26.5 -6.5t18.5 -18.5q22 -37 41 -109t19 -122q0 -46 -17.5 -71.5t-48.5 -25.5q-36 0 -79 72 q-19 31 -31 49q-22 32 -69 49t-116 17h-143q-101 0 -152.5 -11t-70.5 -36q-17 -21 -25 -89t-8 -200v-84q0 -50 8.5 -62t38.5 -12h186q84 0 117.5 24t42.5 88q1 8 4 25q15 103 68 103q46 0 63 -56.5t17 -257.5q0 -199 -17 -255t-63 -56q-53 0 -68 103q-2 15 -4 25 q-9 63 -42.5 87.5t-117.5 24.5h-184q-29 0 -39 -17.5t-10 -83.5v-98q0 -136 5 -201.5t18 -93.5q14 -34 67 -48.5t166 -14.5h135q109 0 166.5 28t99.5 103q14 23 32 69q30 78 67 78q26 0 41.5 -25.5t15.5 -70.5q0 -53 -16.5 -130t-44.5 -153q-16 -38 -34 -58t-38 -20 q-5 0 -26 6q-69 19 -138 19h-706q-150 0 -188 14.5t-38 53.5zM357 1651q0 12 27 54l4 6l151 223q23 34 47 45.5t80 11.5t80 -11.5t47 -45.5l151 -223l4 -6q27 -42 27 -54q0 -10 -12.5 -16.5t-32.5 -6.5h-61q-22 0 -37 8t-31 29l-135 178l-135 -178q-16 -21 -31 -29t-37 -8 h-61q-20 0 -32.5 6.5t-12.5 16.5z" />
<glyph unicode="&#xcb;" horiz-adv-x="1305" d="M53 68q0 47 66 72q32 12 45 22q22 16 31.5 148t9.5 446q0 225 -9.5 384t-21.5 179q-10 14 -65.5 37.5t-55.5 66.5q0 40 48 55t227 15h639q50 0 102.5 11.5t54.5 11.5q15 0 26.5 -6.5t18.5 -18.5q22 -37 41 -109t19 -122q0 -46 -17.5 -71.5t-48.5 -25.5q-36 0 -79 72 q-19 31 -31 49q-22 32 -69 49t-116 17h-143q-101 0 -152.5 -11t-70.5 -36q-17 -21 -25 -89t-8 -200v-84q0 -50 8.5 -62t38.5 -12h186q84 0 117.5 24t42.5 88q1 8 4 25q15 103 68 103q46 0 63 -56.5t17 -257.5q0 -199 -17 -255t-63 -56q-53 0 -68 103q-2 15 -4 25 q-9 63 -42.5 87.5t-117.5 24.5h-184q-29 0 -39 -17.5t-10 -83.5v-98q0 -136 5 -201.5t18 -93.5q14 -34 67 -48.5t166 -14.5h135q109 0 166.5 28t99.5 103q14 23 32 69q30 78 67 78q26 0 41.5 -25.5t15.5 -70.5q0 -53 -16.5 -130t-44.5 -153q-16 -38 -34 -58t-38 -20 q-5 0 -26 6q-69 19 -138 19h-706q-150 0 -188 14.5t-38 53.5zM371 1807q0 44 35.5 78t81.5 34t79 -33t33 -79q0 -50 -32 -83.5t-80 -33.5t-82.5 34.5t-34.5 82.5zM729 1807q0 44 35.5 78t81.5 34q47 0 81 -33.5t34 -78.5q0 -50 -33 -83.5t-82 -33.5q-47 0 -82 34.5t-35 82.5 z" />
<glyph unicode="&#xcc;" horiz-adv-x="666" d="M-2 1858q0 38 30 80.5t60 42.5q12 0 24 -4.5t32 -16.5l354 -215q17 -12 23 -18.5t6 -14.5q0 -26 -23 -58t-39 -32q-5 0 -12 2t-17 6l-372 168l-4 2q-62 26 -62 58zM53 72q0 42 65 67q33 13 46 23q22 17 31.5 141t9.5 453q0 240 -8.5 392t-22.5 171q-10 15 -65.5 37.5 t-55.5 64.5q0 41 46.5 56.5t234.5 15.5q186 0 232 -15t46 -57q0 -43 -64 -67q-33 -13 -46 -23q-20 -15 -28.5 -119.5t-8.5 -341.5q0 -317 7 -498t20 -200q10 -15 65 -36.5t55 -63.5q0 -46 -57 -64t-223 -18q-162 0 -220.5 18t-58.5 64z" />
<glyph unicode="&#xcd;" horiz-adv-x="666" d="M53 72q0 42 65 67q33 13 46 23q22 17 31.5 141t9.5 453q0 240 -8.5 392t-22.5 171q-10 15 -65.5 37.5t-55.5 64.5q0 41 46.5 56.5t234.5 15.5q186 0 232 -15t46 -57q0 -43 -64 -67q-33 -13 -46 -23q-20 -15 -28.5 -119.5t-8.5 -341.5q0 -317 7 -498t20 -200 q10 -15 65 -36.5t55 -63.5q0 -46 -57 -64t-223 -18q-162 0 -220.5 18t-58.5 64zM146 1712q0 8 5.5 14.5t22.5 18.5l355 215q19 12 31 16.5t24 4.5q30 0 60 -42.5t30 -80.5q0 -32 -62 -58l-4 -2l-372 -168q-10 -4 -17 -6t-12 -2q-16 0 -38.5 32t-22.5 58z" />
<glyph unicode="&#xce;" horiz-adv-x="666" d="M25 1651q0 12 27 54l4 6l151 223q23 34 47 45.5t80 11.5t80 -11.5t47 -45.5l151 -223l4 -6q27 -42 27 -54q0 -10 -12.5 -16.5t-32.5 -6.5h-61q-22 0 -37 8t-31 29l-135 178l-135 -178q-16 -21 -31 -29t-37 -8h-61q-20 0 -32.5 6.5t-12.5 16.5zM53 72q0 42 65 67 q33 13 46 23q22 17 31.5 141t9.5 453q0 240 -8.5 392t-22.5 171q-10 15 -65.5 37.5t-55.5 64.5q0 41 46.5 56.5t234.5 15.5q186 0 232 -15t46 -57q0 -43 -64 -67q-33 -13 -46 -23q-20 -15 -28.5 -119.5t-8.5 -341.5q0 -317 7 -498t20 -200q10 -15 65 -36.5t55 -63.5 q0 -46 -57 -64t-223 -18q-162 0 -220.5 18t-58.5 64z" />
<glyph unicode="&#xcf;" horiz-adv-x="666" d="M39 1807q0 44 35.5 78t81.5 34t79 -33t33 -79q0 -50 -32 -83.5t-80 -33.5t-82.5 34.5t-34.5 82.5zM53 72q0 42 65 67q33 13 46 23q22 17 31.5 141t9.5 453q0 240 -8.5 392t-22.5 171q-10 15 -65.5 37.5t-55.5 64.5q0 41 46.5 56.5t234.5 15.5q186 0 232 -15t46 -57 q0 -43 -64 -67q-33 -13 -46 -23q-20 -15 -28.5 -119.5t-8.5 -341.5q0 -317 7 -498t20 -200q10 -15 65 -36.5t55 -63.5q0 -46 -57 -64t-223 -18q-162 0 -220.5 18t-58.5 64zM397 1807q0 44 35.5 78t81.5 34q47 0 81 -33.5t34 -78.5q0 -50 -33 -83.5t-82 -33.5q-47 0 -82 34.5 t-35 82.5z" />
<glyph unicode="&#xd0;" horiz-adv-x="1612" d="M0 766q0 38 15.5 55t50.5 17h149q0 19 -1 56q-11 414 -42 437q-13 10 -45 23q-64 23 -64 67q0 43 44 59.5t167 16.5q24 0 89 -2t106 -2q51 0 136.5 4t119.5 4q391 0 603 -201.5t212 -570.5q0 -364 -217 -549.5t-641 -185.5q-41 0 -129 3t-135 3q-54 0 -121 -1t-78 -1 q-85 0 -120.5 17.5t-35.5 58.5q0 39 55.5 61t66.5 38q12 17 19 128.5t11 392.5h-149q-35 0 -50.5 17t-15.5 55zM479 838h281q34 0 49.5 -17t15.5 -55t-15.5 -55t-49.5 -17h-279l1 -15q12 -440 36 -472q21 -27 86.5 -45.5t149.5 -18.5q239 0 360 144.5t121 429.5 q0 312 -137 476.5t-398 164.5q-84 0 -130 -16t-58 -50q-13 -35 -19.5 -117t-13.5 -337z" />
<glyph unicode="&#xd1;" horiz-adv-x="1630" d="M51 74q0 40 55.5 62t65.5 36q14 20 21.5 168.5t7.5 415.5q0 236 -8 389.5t-21 173.5q-10 15 -65.5 38t-55.5 62q0 41 46.5 57.5t176.5 16.5q88 0 115 -4t40 -15q27 -24 148 -182.5t209 -267.5l236 -289q98 -120 160.5 -193.5t109.5 -123.5q1 19 1.5 43.5t0.5 77.5 q0 307 -6.5 519.5t-15.5 247.5q-4 12 -14.5 22.5t-23.5 15.5q-58 21 -72.5 36t-14.5 39q0 42 43 58t184 16q129 0 172 -16t43 -58q0 -22 -12 -36.5t-41 -26.5q-7 -3 -20 -8q-45 -17 -52 -41q-13 -44 -18.5 -249.5t-5.5 -629.5q0 -88 2 -197t2 -129q0 -79 -10 -97.5 t-39 -18.5q-110 0 -481 467l-33 43l-230 288q-157 200 -212 267t-87 100q-2 -30 -3 -71t-1 -140v-100q0 -458 12.5 -574t45.5 -116q29 0 58.5 -24t29.5 -52q0 -45 -49.5 -63.5t-172.5 -18.5t-172 18.5t-49 63.5zM522 1731q0 62 56.5 121t127.5 59q48 0 129 -28.5t115 -28.5 q28 0 44.5 5.5t25.5 17.5q6 7 16 22q25 39 45 39q21 0 35 -14t14 -36q0 -62 -56.5 -121t-127.5 -59q-60 0 -147 29t-109 29q-41 0 -72 -41t-47 -41q-22 0 -35.5 13t-13.5 34z" />
<glyph unicode="&#xd2;" horiz-adv-x="1655" d="M72 762q0 338 209 547t548 209q134 0 252 -39.5t213 -116.5q138 -111 214.5 -282.5t76.5 -370.5q0 -127 -35 -242t-102 -209q-101 -139 -262.5 -218t-345.5 -79q-127 0 -243.5 37t-213.5 108q-152 110 -231.5 278.5t-79.5 377.5zM367 848q0 -327 141 -533t360 -206 q190 0 305 143t115 383q0 324 -144.5 531.5t-363.5 207.5q-186 0 -299.5 -143.5t-113.5 -382.5zM491 1858q0 38 30 80.5t60 42.5q12 0 24 -4.5t32 -16.5l354 -215q17 -12 23 -18.5t6 -14.5q0 -26 -23 -58t-39 -32q-5 0 -12 2t-17 6l-372 168l-4 2q-62 26 -62 58z" />
<glyph unicode="&#xd3;" horiz-adv-x="1655" d="M72 762q0 338 209 547t548 209q134 0 252 -39.5t213 -116.5q138 -111 214.5 -282.5t76.5 -370.5q0 -127 -35 -242t-102 -209q-101 -139 -262.5 -218t-345.5 -79q-127 0 -243.5 37t-213.5 108q-152 110 -231.5 278.5t-79.5 377.5zM367 848q0 -327 141 -533t360 -206 q190 0 305 143t115 383q0 324 -144.5 531.5t-363.5 207.5q-186 0 -299.5 -143.5t-113.5 -382.5zM639 1712q0 8 5.5 14.5t22.5 18.5l355 215q19 12 31 16.5t24 4.5q30 0 60 -42.5t30 -80.5q0 -32 -62 -58l-4 -2l-372 -168q-10 -4 -17 -6t-12 -2q-16 0 -38.5 32t-22.5 58z" />
<glyph unicode="&#xd4;" horiz-adv-x="1655" d="M72 762q0 338 209 547t548 209q134 0 252 -39.5t213 -116.5q138 -111 214.5 -282.5t76.5 -370.5q0 -127 -35 -242t-102 -209q-101 -139 -262.5 -218t-345.5 -79q-127 0 -243.5 37t-213.5 108q-152 110 -231.5 278.5t-79.5 377.5zM367 848q0 -327 141 -533t360 -206 q190 0 305 143t115 383q0 324 -144.5 531.5t-363.5 207.5q-186 0 -299.5 -143.5t-113.5 -382.5zM518 1651q0 12 27 54l4 6l151 223q23 34 47 45.5t80 11.5t80 -11.5t47 -45.5l151 -223l4 -6q27 -42 27 -54q0 -10 -12.5 -16.5t-32.5 -6.5h-61q-22 0 -37 8t-31 29l-135 178 l-135 -178q-16 -21 -31 -29t-37 -8h-61q-20 0 -32.5 6.5t-12.5 16.5z" />
<glyph unicode="&#xd5;" horiz-adv-x="1655" d="M72 762q0 338 209 547t548 209q134 0 252 -39.5t213 -116.5q138 -111 214.5 -282.5t76.5 -370.5q0 -127 -35 -242t-102 -209q-101 -139 -262.5 -218t-345.5 -79q-127 0 -243.5 37t-213.5 108q-152 110 -231.5 278.5t-79.5 377.5zM367 848q0 -327 141 -533t360 -206 q190 0 305 143t115 383q0 324 -144.5 531.5t-363.5 207.5q-186 0 -299.5 -143.5t-113.5 -382.5zM522 1731q0 62 56.5 121t127.5 59q48 0 129 -28.5t115 -28.5q28 0 44.5 5.5t25.5 17.5q6 7 16 22q25 39 45 39q21 0 35 -14t14 -36q0 -62 -56.5 -121t-127.5 -59q-60 0 -147 29 t-109 29q-41 0 -72 -41t-47 -41q-22 0 -35.5 13t-13.5 34z" />
<glyph unicode="&#xd6;" horiz-adv-x="1655" d="M72 762q0 338 209 547t548 209q134 0 252 -39.5t213 -116.5q138 -111 214.5 -282.5t76.5 -370.5q0 -127 -35 -242t-102 -209q-101 -139 -262.5 -218t-345.5 -79q-127 0 -243.5 37t-213.5 108q-152 110 -231.5 278.5t-79.5 377.5zM367 848q0 -327 141 -533t360 -206 q190 0 305 143t115 383q0 324 -144.5 531.5t-363.5 207.5q-186 0 -299.5 -143.5t-113.5 -382.5zM532 1807q0 44 35.5 78t81.5 34t79 -33t33 -79q0 -50 -32 -83.5t-80 -33.5t-82.5 34.5t-34.5 82.5zM890 1807q0 44 35.5 78t81.5 34q47 0 81 -33.5t34 -78.5q0 -50 -33 -83.5 t-82 -33.5q-47 0 -82 34.5t-35 82.5z" />
<glyph unicode="&#xd7;" horiz-adv-x="1706" d="M287 152l458 458l-458 461l116 117l459 -459l461 459l117 -117l-459 -461l459 -458l-117 -119l-461 461l-459 -461z" />
<glyph unicode="&#xd8;" horiz-adv-x="1655" d="M72 760q0 340 208.5 550t544.5 210q104 0 201 -25t188 -76l134 193q15 22 31.5 33.5t31.5 11.5q26 0 46 -19t20 -45q0 -13 -5.5 -26.5t-15.5 -28.5l-137 -197q131 -123 198.5 -283.5t67.5 -348.5q0 -127 -35 -242t-102 -209q-99 -137 -260 -217t-338 -80 q-113 0 -215.5 27t-196.5 82l-168 -244q-15 -22 -31.5 -33.5t-31.5 -11.5q-26 0 -46 19.5t-20 45.5q0 13 5.5 27t15.5 29l172 245q-127 112 -194.5 270t-67.5 343zM367 848q0 -136 28 -257.5t84 -228.5l606 873q-66 69 -142.5 104t-162.5 35q-186 0 -299.5 -143.5 t-113.5 -382.5zM561 250q65 -71 141 -106t164 -35q190 0 306 143.5t116 382.5q0 147 -30 270t-89 217z" />
<glyph unicode="&#xd9;" horiz-adv-x="1563" d="M53 1423q0 40 44 55t237 15t236.5 -15t43.5 -55q0 -43 -66 -67q-33 -12 -46 -23q-21 -16 -30 -137.5t-9 -376.5q0 -231 3.5 -316t12.5 -138q19 -120 116.5 -190.5t244.5 -70.5q196 0 285 107.5t89 345.5q0 350 -6.5 548.5t-19.5 217.5q-11 15 -67 36.5t-56 63.5 q0 40 44 55t181 15q139 0 183.5 -15t44.5 -55q0 -42 -65 -67q-33 -13 -46 -23q-21 -16 -30 -117t-9 -362q0 -39 1 -130.5t1 -143.5q0 -173 -22.5 -272.5t-73.5 -164.5q-73 -89 -191.5 -135.5t-277.5 -46.5q-299 0 -451.5 133.5t-152.5 394.5q0 39 2 118t2 118 q0 247 -9 412.5t-22 185.5q-10 15 -65.5 36.5t-55.5 63.5zM508 1858q0 38 30 80.5t60 42.5q12 0 24 -4.5t32 -16.5l354 -215q17 -12 23 -18.5t6 -14.5q0 -26 -23 -58t-39 -32q-5 0 -12 2t-17 6l-372 168l-4 2q-62 26 -62 58z" />
<glyph unicode="&#xda;" horiz-adv-x="1563" d="M53 1423q0 40 44 55t237 15t236.5 -15t43.5 -55q0 -43 -66 -67q-33 -12 -46 -23q-21 -16 -30 -137.5t-9 -376.5q0 -231 3.5 -316t12.5 -138q19 -120 116.5 -190.5t244.5 -70.5q196 0 285 107.5t89 345.5q0 350 -6.5 548.5t-19.5 217.5q-11 15 -67 36.5t-56 63.5 q0 40 44 55t181 15q139 0 183.5 -15t44.5 -55q0 -42 -65 -67q-33 -13 -46 -23q-21 -16 -30 -117t-9 -362q0 -39 1 -130.5t1 -143.5q0 -173 -22.5 -272.5t-73.5 -164.5q-73 -89 -191.5 -135.5t-277.5 -46.5q-299 0 -451.5 133.5t-152.5 394.5q0 39 2 118t2 118 q0 247 -9 412.5t-22 185.5q-10 15 -65.5 36.5t-55.5 63.5zM656 1712q0 8 5.5 14.5t22.5 18.5l355 215q19 12 31 16.5t24 4.5q30 0 60 -42.5t30 -80.5q0 -32 -62 -58l-4 -2l-372 -168q-10 -4 -17 -6t-12 -2q-16 0 -38.5 32t-22.5 58z" />
<glyph unicode="&#xdb;" horiz-adv-x="1563" d="M53 1423q0 40 44 55t237 15t236.5 -15t43.5 -55q0 -43 -66 -67q-33 -12 -46 -23q-21 -16 -30 -137.5t-9 -376.5q0 -231 3.5 -316t12.5 -138q19 -120 116.5 -190.5t244.5 -70.5q196 0 285 107.5t89 345.5q0 350 -6.5 548.5t-19.5 217.5q-11 15 -67 36.5t-56 63.5 q0 40 44 55t181 15q139 0 183.5 -15t44.5 -55q0 -42 -65 -67q-33 -13 -46 -23q-21 -16 -30 -117t-9 -362q0 -39 1 -130.5t1 -143.5q0 -173 -22.5 -272.5t-73.5 -164.5q-73 -89 -191.5 -135.5t-277.5 -46.5q-299 0 -451.5 133.5t-152.5 394.5q0 39 2 118t2 118 q0 247 -9 412.5t-22 185.5q-10 15 -65.5 36.5t-55.5 63.5zM535 1651q0 12 27 54l4 6l151 223q23 34 47 45.5t80 11.5t80 -11.5t47 -45.5l151 -223l4 -6q27 -42 27 -54q0 -10 -12.5 -16.5t-32.5 -6.5h-61q-22 0 -37 8t-31 29l-135 178l-135 -178q-16 -21 -31 -29t-37 -8h-61 q-20 0 -32.5 6.5t-12.5 16.5z" />
<glyph unicode="&#xdc;" horiz-adv-x="1563" d="M53 1423q0 40 44 55t237 15t236.5 -15t43.5 -55q0 -43 -66 -67q-33 -12 -46 -23q-21 -16 -30 -137.5t-9 -376.5q0 -231 3.5 -316t12.5 -138q19 -120 116.5 -190.5t244.5 -70.5q196 0 285 107.5t89 345.5q0 350 -6.5 548.5t-19.5 217.5q-11 15 -67 36.5t-56 63.5 q0 40 44 55t181 15q139 0 183.5 -15t44.5 -55q0 -42 -65 -67q-33 -13 -46 -23q-21 -16 -30 -117t-9 -362q0 -39 1 -130.5t1 -143.5q0 -173 -22.5 -272.5t-73.5 -164.5q-73 -89 -191.5 -135.5t-277.5 -46.5q-299 0 -451.5 133.5t-152.5 394.5q0 39 2 118t2 118 q0 247 -9 412.5t-22 185.5q-10 15 -65.5 36.5t-55.5 63.5zM549 1807q0 44 35.5 78t81.5 34t79 -33t33 -79q0 -50 -32 -83.5t-80 -33.5t-82.5 34.5t-34.5 82.5zM907 1807q0 44 35.5 78t81.5 34q47 0 81 -33.5t34 -78.5q0 -50 -33 -83.5t-82 -33.5q-47 0 -82 34.5t-35 82.5z " />
<glyph unicode="&#xdd;" horiz-adv-x="1341" d="M4 1419q0 43 49.5 58.5t251.5 15.5q201 0 250 -15.5t49 -58.5q0 -41 -81 -71l-6 -2q-22 -8 -32 -21t-10 -31q0 -22 45 -98t211 -322q121 173 178.5 269t57.5 125q0 28 -15.5 45.5t-62.5 36.5q-39 15 -52.5 30t-13.5 39q0 43 42.5 58.5t215.5 15.5q168 0 212 -15.5 t44 -58.5q0 -41 -59 -66t-78 -40q-46 -35 -145.5 -185t-251.5 -413q1 -67 2 -183q5 -349 33 -370q13 -10 46 -23q66 -24 66 -67q0 -46 -57 -64t-223 -18q-162 0 -220.5 18t-58.5 64q0 42 65 67q33 13 46 23q33 26 38 450q0 61 1 95l-125 206q-136 225 -197 311.5t-94 108.5 q-16 10 -52 22q-69 23 -69 64zM484 1712q0 8 5.5 14.5t22.5 18.5l355 215q19 12 31 16.5t24 4.5q30 0 60 -42.5t30 -80.5q0 -32 -62 -58l-4 -2l-372 -168q-10 -4 -17 -6t-12 -2q-16 0 -38.5 32t-22.5 58z" />
<glyph unicode="&#xde;" horiz-adv-x="1251" d="M53 72q0 42 65 67q33 13 46 23q22 17 31.5 141t9.5 453q0 231 -9 387t-22 176q-10 15 -65.5 37.5t-55.5 64.5q0 46 57 64t224 18t223.5 -18t56.5 -66q0 -39 -51 -59.5t-61 -28.5q-23 -18 -29 -158v-1q39 1 104 3q182 7 209 7q232 0 348.5 -94t116.5 -281 q0 -205 -143.5 -311.5t-419.5 -106.5q-51 0 -111.5 3t-68.5 3q-23 0 -30 -14t-7 -66q0 -71 7 -106.5t24 -48.5q9 -7 59.5 -27t50.5 -59q0 -48 -56.5 -66t-223.5 -18q-162 0 -220.5 18t-58.5 64zM467 531q38 -4 74.5 -5.5t68.5 -1.5q195 0 275 65t80 220q0 124 -84.5 187 t-251.5 63q-77 0 -106.5 -10.5t-39.5 -38.5q-9 -28 -12.5 -100t-3.5 -318v-61z" />
<glyph unicode="&#xdf;" horiz-adv-x="1186" d="M-4 63q0 42 56.5 63t68.5 32q17 14 24 64.5t7 201.5v178q0 119 -4.5 277t-4.5 198q0 220 110.5 329.5t332.5 109.5q198 0 322 -97t124 -250q0 -90 -49 -165.5t-135 -118.5q-33 -17 -77 -33t-44 -27q0 -14 47 -26q28 -7 46 -13q157 -51 231.5 -143t74.5 -235 q0 -87 -38.5 -166t-108.5 -136q-74 -58 -160 -88t-180 -30q-92 0 -139 19t-47 56q0 38 21.5 53t82.5 15h45q132 0 197 65t65 197q0 92 -43 172.5t-121 132.5q-42 29 -118 54t-76 61q0 45 112 89q22 9 34 14q57 24 94.5 87t37.5 138q0 118 -54.5 189t-145.5 71 q-111 0 -154 -86t-43 -375q0 -48 4 -327t4 -511q0 -63 -36.5 -85.5t-147.5 -22.5q-124 0 -169.5 15.5t-45.5 53.5z" />
<glyph unicode="&#xe0;" horiz-adv-x="1114" d="M55 289q0 167 121 260.5t338 93.5q41 0 89.5 -4.5t104.5 -13.5l1 110q0 92 -40 141.5t-114 49.5q-51 0 -95 -22.5t-85 -69.5q-8 -9 -22 -27q-63 -80 -134 -80q-41 0 -65.5 26.5t-24.5 71.5q0 98 121 165t311 67q116 0 199 -30.5t129 -88.5q31 -40 44 -104t13 -213v-336 q0 -59 10 -88t31 -35q12 -4 32 -9q66 -18 66 -53q0 -50 -70 -90.5t-163 -40.5q-46 0 -97.5 54.5t-54.5 54.5q-9 0 -45 -23q-132 -86 -260 -86q-152 0 -246 88.5t-94 231.5zM221 1397q0 38 30 80.5t60 42.5q12 0 24 -4.5t32 -16.5l354 -215q17 -12 23 -18.5t6 -14.5 q0 -26 -23 -58t-39 -32q-5 0 -12 2t-17 6l-372 168l-4 2q-62 26 -62 58zM319 322q0 -83 54.5 -133t146.5 -50q102 0 145.5 45t43.5 154l-1 154q-41 9 -79 13.5t-72 4.5q-112 0 -175 -50t-63 -138z" />
<glyph unicode="&#xe1;" horiz-adv-x="1114" d="M55 289q0 167 121 260.5t338 93.5q41 0 89.5 -4.5t104.5 -13.5l1 110q0 92 -40 141.5t-114 49.5q-51 0 -95 -22.5t-85 -69.5q-8 -9 -22 -27q-63 -80 -134 -80q-41 0 -65.5 26.5t-24.5 71.5q0 98 121 165t311 67q116 0 199 -30.5t129 -88.5q31 -40 44 -104t13 -213v-336 q0 -59 10 -88t31 -35q12 -4 32 -9q66 -18 66 -53q0 -50 -70 -90.5t-163 -40.5q-46 0 -97.5 54.5t-54.5 54.5q-9 0 -45 -23q-132 -86 -260 -86q-152 0 -246 88.5t-94 231.5zM319 322q0 -83 54.5 -133t146.5 -50q102 0 145.5 45t43.5 154l-1 154q-41 9 -79 13.5t-72 4.5 q-112 0 -175 -50t-63 -138zM369 1251q0 8 5.5 14.5t22.5 18.5l355 215q19 12 31 16.5t24 4.5q30 0 60 -42.5t30 -80.5q0 -32 -62 -58l-4 -2l-372 -168q-10 -4 -17 -6t-12 -2q-16 0 -38.5 32t-22.5 58z" />
<glyph unicode="&#xe2;" horiz-adv-x="1114" d="M55 289q0 167 121 260.5t338 93.5q41 0 89.5 -4.5t104.5 -13.5l1 110q0 92 -40 141.5t-114 49.5q-51 0 -95 -22.5t-85 -69.5q-8 -9 -22 -27q-63 -80 -134 -80q-41 0 -65.5 26.5t-24.5 71.5q0 98 121 165t311 67q116 0 199 -30.5t129 -88.5q31 -40 44 -104t13 -213v-336 q0 -59 10 -88t31 -35q12 -4 32 -9q66 -18 66 -53q0 -50 -70 -90.5t-163 -40.5q-46 0 -97.5 54.5t-54.5 54.5q-9 0 -45 -23q-132 -86 -260 -86q-152 0 -246 88.5t-94 231.5zM248 1190q0 12 27 54l4 6l151 223q23 34 47 45.5t80 11.5t80 -11.5t47 -45.5l151 -223l4 -6 q27 -42 27 -54q0 -10 -12.5 -16.5t-32.5 -6.5h-61q-22 0 -37 8t-31 29l-135 178l-135 -178q-16 -21 -31 -29t-37 -8h-61q-20 0 -32.5 6.5t-12.5 16.5zM319 322q0 -83 54.5 -133t146.5 -50q102 0 145.5 45t43.5 154l-1 154q-41 9 -79 13.5t-72 4.5q-112 0 -175 -50t-63 -138z " />
<glyph unicode="&#xe3;" horiz-adv-x="1114" d="M55 289q0 167 121 260.5t338 93.5q41 0 89.5 -4.5t104.5 -13.5l1 110q0 92 -40 141.5t-114 49.5q-51 0 -95 -22.5t-85 -69.5q-8 -9 -22 -27q-63 -80 -134 -80q-41 0 -65.5 26.5t-24.5 71.5q0 98 121 165t311 67q116 0 199 -30.5t129 -88.5q31 -40 44 -104t13 -213v-336 q0 -59 10 -88t31 -35q12 -4 32 -9q66 -18 66 -53q0 -50 -70 -90.5t-163 -40.5q-46 0 -97.5 54.5t-54.5 54.5q-9 0 -45 -23q-132 -86 -260 -86q-152 0 -246 88.5t-94 231.5zM252 1270q0 62 56.5 121t127.5 59q48 0 129 -28.5t115 -28.5q28 0 44.5 5.5t25.5 17.5q6 7 16 22 q25 39 45 39q21 0 35 -14t14 -36q0 -62 -56.5 -121t-127.5 -59q-60 0 -147 29t-109 29q-41 0 -72 -41t-47 -41q-22 0 -35.5 13t-13.5 34zM319 322q0 -83 54.5 -133t146.5 -50q102 0 145.5 45t43.5 154l-1 154q-41 9 -79 13.5t-72 4.5q-112 0 -175 -50t-63 -138z" />
<glyph unicode="&#xe4;" horiz-adv-x="1114" d="M55 289q0 167 121 260.5t338 93.5q41 0 89.5 -4.5t104.5 -13.5l1 110q0 92 -40 141.5t-114 49.5q-51 0 -95 -22.5t-85 -69.5q-8 -9 -22 -27q-63 -80 -134 -80q-41 0 -65.5 26.5t-24.5 71.5q0 98 121 165t311 67q116 0 199 -30.5t129 -88.5q31 -40 44 -104t13 -213v-336 q0 -59 10 -88t31 -35q12 -4 32 -9q66 -18 66 -53q0 -50 -70 -90.5t-163 -40.5q-46 0 -97.5 54.5t-54.5 54.5q-9 0 -45 -23q-132 -86 -260 -86q-152 0 -246 88.5t-94 231.5zM262 1346q0 44 35.5 78t81.5 34t79 -33t33 -79q0 -50 -32 -83.5t-80 -33.5t-82.5 34.5t-34.5 82.5z M319 322q0 -83 54.5 -133t146.5 -50q102 0 145.5 45t43.5 154l-1 154q-41 9 -79 13.5t-72 4.5q-112 0 -175 -50t-63 -138zM620 1346q0 44 35.5 78t81.5 34q47 0 81 -33.5t34 -78.5q0 -50 -33 -83.5t-82 -33.5q-47 0 -82 34.5t-35 82.5z" />
<glyph unicode="&#xe5;" horiz-adv-x="1114" d="M55 289q0 167 121 260.5t338 93.5q41 0 89.5 -4.5t104.5 -13.5l1 110q0 92 -40 141.5t-114 49.5q-51 0 -95 -22.5t-85 -69.5q-8 -9 -22 -27q-63 -80 -134 -80q-41 0 -65.5 26.5t-24.5 71.5q0 98 120.5 164t311.5 66q117 0 200 -29.5t128 -87.5q31 -40 44 -104t13 -213 v-336q0 -59 10 -88t31 -35q12 -4 32 -9q66 -18 66 -53q0 -50 -70 -90.5t-163 -40.5q-46 0 -97.5 54.5t-54.5 54.5q-9 0 -45 -23q-132 -86 -260 -86q-152 0 -246 88.5t-94 231.5zM299 1382q0 109 75 183.5t183 74.5q110 0 185 -74.5t75 -183.5t-75.5 -184.5t-184.5 -75.5 t-183.5 75.5t-74.5 184.5zM319 322q0 -83 54.5 -133t146.5 -50q102 0 145.5 45t43.5 154l-1 154q-41 9 -79 13.5t-72 4.5q-112 0 -175 -50t-63 -138zM430 1382q0 -53 37.5 -90t91.5 -37t90.5 36.5t36.5 90.5q0 53 -37.5 90t-89.5 37q-53 0 -91 -37t-38 -90z" />
<glyph unicode="&#xe6;" horiz-adv-x="1731" d="M55 289q0 168 119.5 261t335.5 93q40 0 87.5 -4.5t104.5 -13.5v110q0 92 -39.5 140.5t-113.5 48.5q-51 0 -95 -22.5t-83 -67.5q-8 -9 -23 -29q-61 -78 -131 -78q-41 0 -65.5 26.5t-24.5 71.5q0 98 119.5 165t308.5 67q119 0 200.5 -31.5t131.5 -95.5q76 63 163.5 95 t186.5 32q193 0 308.5 -115.5t115.5 -308.5q0 -64 -19 -84.5t-96 -20.5h-489q-68 0 -80 -9t-12 -48q0 -129 91 -223t220 -94q55 0 106.5 17t100.5 52q14 10 38 30q51 42 78 42q24 0 38 -14t14 -37q0 -26 -24.5 -61.5t-67.5 -71.5q-90 -75 -172.5 -107.5t-180.5 -32.5 q-118 0 -216 46.5t-173 138.5q-88 -93 -194 -139t-232 -46q-152 0 -244 87t-92 231zM315 322q0 -83 54.5 -133t146.5 -50q101 0 143.5 45.5t42.5 153.5v154q-42 9 -79 13.5t-70 4.5q-112 0 -175 -50t-63 -138zM961 684q0 -22 11 -29.5t52 -7.5h330q39 0 51 8t12 31 q0 100 -65.5 169t-165.5 69q-96 0 -160.5 -69.5t-64.5 -170.5z" />
<glyph unicode="&#xe7;" horiz-adv-x="1071" d="M61 498q0 241 156.5 400t390.5 159q171 0 291.5 -89.5t120.5 -209.5q0 -48 -33.5 -78.5t-85.5 -30.5q-53 0 -85 25t-68 110q-33 75 -73 104.5t-104 29.5q-121 0 -188.5 -89.5t-67.5 -250.5q0 -186 96 -303t246 -117q52 0 98.5 14t86.5 41q14 10 40 30q55 44 87 44 q22 0 34.5 -12.5t12.5 -34.5q0 -26 -22 -63t-56 -66q-82 -72 -170.5 -106t-192.5 -34q-219 0 -366.5 151.5t-147.5 375.5zM301 -371q0 24 11 36.5t32 12.5q16 0 88.5 -23.5t126.5 -23.5q58 0 89.5 22t31.5 62q0 42 -30.5 65t-86.5 23q-21 0 -47 -4t-30 -4q-8 0 -13.5 11 t-5.5 28q0 19 5.5 62.5t15.5 103.5h95q-5 -30 -7 -52.5t-2 -45.5v-21q24 6 39.5 8t27.5 2q94 0 149.5 -47t55.5 -127q0 -89 -68 -134.5t-202 -45.5q-119 0 -197 27t-78 65z" />
<glyph unicode="&#xe8;" horiz-adv-x="1100" d="M61 498q0 244 152.5 401.5t390.5 157.5q201 0 318.5 -114.5t117.5 -309.5q0 -64 -19 -84.5t-97 -20.5h-500h-14q-58 0 -69 -9t-11 -48q0 -130 93 -223.5t226 -93.5q57 0 110 17t103 52q14 10 38 29q52 43 81 43q23 0 38 -15t15 -36q0 -25 -26 -61.5t-70 -71.5 q-91 -75 -175 -107.5t-183 -32.5q-222 0 -370.5 151.5t-148.5 375.5zM254 1397q0 38 30 80.5t60 42.5q12 0 24 -4.5t32 -16.5l354 -215q17 -12 23 -18.5t6 -14.5q0 -26 -23 -58t-39 -32q-5 0 -12 2t-17 6l-372 168l-4 2q-62 26 -62 58zM340 686q0 -23 12 -31t51 -8h338 q40 0 53 8t13 31q0 101 -67.5 169.5t-170.5 68.5q-99 0 -164 -68.5t-65 -169.5z" />
<glyph unicode="&#xe9;" horiz-adv-x="1100" d="M61 498q0 244 152.5 401.5t390.5 157.5q201 0 318.5 -114.5t117.5 -309.5q0 -64 -19 -84.5t-97 -20.5h-500h-14q-58 0 -69 -9t-11 -48q0 -130 93 -223.5t226 -93.5q57 0 110 17t103 52q14 10 38 29q52 43 81 43q23 0 38 -15t15 -36q0 -25 -26 -61.5t-70 -71.5 q-91 -75 -175 -107.5t-183 -32.5q-222 0 -370.5 151.5t-148.5 375.5zM340 686q0 -23 12 -31t51 -8h338q40 0 53 8t13 31q0 101 -67.5 169.5t-170.5 68.5q-99 0 -164 -68.5t-65 -169.5zM402 1251q0 8 5.5 14.5t22.5 18.5l355 215q19 12 31 16.5t24 4.5q30 0 60 -42.5 t30 -80.5q0 -32 -62 -58l-4 -2l-372 -168q-10 -4 -17 -6t-12 -2q-16 0 -38.5 32t-22.5 58z" />
<glyph unicode="&#xea;" horiz-adv-x="1100" d="M61 498q0 244 152.5 401.5t390.5 157.5q201 0 318.5 -114.5t117.5 -309.5q0 -64 -19 -84.5t-97 -20.5h-500h-14q-58 0 -69 -9t-11 -48q0 -130 93 -223.5t226 -93.5q57 0 110 17t103 52q14 10 38 29q52 43 81 43q23 0 38 -15t15 -36q0 -25 -26 -61.5t-70 -71.5 q-91 -75 -175 -107.5t-183 -32.5q-222 0 -370.5 151.5t-148.5 375.5zM281 1190q0 12 27 54l4 6l151 223q23 34 47 45.5t80 11.5t80 -11.5t47 -45.5l151 -223l4 -6q27 -42 27 -54q0 -10 -12.5 -16.5t-32.5 -6.5h-61q-22 0 -37 8t-31 29l-135 178l-135 -178q-16 -21 -31 -29 t-37 -8h-61q-20 0 -32.5 6.5t-12.5 16.5zM340 686q0 -23 12 -31t51 -8h338q40 0 53 8t13 31q0 101 -67.5 169.5t-170.5 68.5q-99 0 -164 -68.5t-65 -169.5z" />
<glyph unicode="&#xeb;" horiz-adv-x="1100" d="M61 498q0 244 152.5 401.5t390.5 157.5q201 0 318.5 -114.5t117.5 -309.5q0 -64 -19 -84.5t-97 -20.5h-500h-14q-58 0 -69 -9t-11 -48q0 -130 93 -223.5t226 -93.5q57 0 110 17t103 52q14 10 38 29q52 43 81 43q23 0 38 -15t15 -36q0 -25 -26 -61.5t-70 -71.5 q-91 -75 -175 -107.5t-183 -32.5q-222 0 -370.5 151.5t-148.5 375.5zM295 1346q0 44 35.5 78t81.5 34t79 -33t33 -79q0 -50 -32 -83.5t-80 -33.5t-82.5 34.5t-34.5 82.5zM340 686q0 -23 12 -31t51 -8h338q40 0 53 8t13 31q0 101 -67.5 169.5t-170.5 68.5q-99 0 -164 -68.5 t-65 -169.5zM653 1346q0 44 35.5 78t81.5 34q47 0 81 -33.5t34 -78.5q0 -50 -33 -83.5t-82 -33.5q-47 0 -82 34.5t-35 82.5z" />
<glyph unicode="&#xec;" horiz-adv-x="592" d="M-39 1397q0 38 30 80.5t60 42.5q12 0 24 -4.5t32 -16.5l354 -215q17 -12 23 -18.5t6 -14.5q0 -26 -23 -58t-39 -32q-5 0 -12 2t-17 6l-372 168l-4 2q-62 26 -62 58zM29 909q0 23 19.5 41.5t64.5 36.5q79 31 157 50.5t111 19.5q28 0 40.5 -20t12.5 -68q0 -38 -0.5 -62 t-1.5 -47l-8 -266v-6q-4 -174 -4 -256q0 -99 9 -140t32 -53q13 -7 39 -17q53 -19 53 -59t-51 -56.5t-187 -16.5q-159 0 -210.5 17t-51.5 63q0 35 51 54q19 7 27 11q27 15 38 50t11 114q0 19 -1 70t-1 84v108q0 164 -8 214t-29 61q-16 8 -49 18q-63 20 -63 55z" />
<glyph unicode="&#xed;" horiz-adv-x="592" d="M29 909q0 23 19.5 41.5t64.5 36.5q79 31 157 50.5t111 19.5q28 0 40.5 -20t12.5 -68q0 -38 -0.5 -62t-1.5 -47l-8 -266v-6q-4 -174 -4 -256q0 -99 9 -140t32 -53q13 -7 39 -17q53 -19 53 -59t-51 -56.5t-187 -16.5q-159 0 -210.5 17t-51.5 63q0 35 51 54q19 7 27 11 q27 15 38 50t11 114q0 19 -1 70t-1 84v108q0 164 -8 214t-29 61q-16 8 -49 18q-63 20 -63 55zM109 1251q0 8 5.5 14.5t22.5 18.5l355 215q19 12 31 16.5t24 4.5q30 0 60 -42.5t30 -80.5q0 -32 -62 -58l-4 -2l-372 -168q-10 -4 -17 -6t-12 -2q-16 0 -38.5 32t-22.5 58z" />
<glyph unicode="&#xee;" horiz-adv-x="592" d="M-12 1190q0 12 27 54l4 6l151 223q23 34 47 45.5t80 11.5t80 -11.5t47 -45.5l151 -223l4 -6q27 -42 27 -54q0 -10 -12.5 -16.5t-32.5 -6.5h-61q-22 0 -37 8t-31 29l-135 178l-135 -178q-16 -21 -31 -29t-37 -8h-61q-20 0 -32.5 6.5t-12.5 16.5zM29 909q0 23 19.5 41.5 t64.5 36.5q79 31 157 50.5t111 19.5q28 0 40.5 -20t12.5 -68q0 -38 -0.5 -62t-1.5 -47l-8 -266v-6q-4 -174 -4 -256q0 -99 9 -140t32 -53q13 -7 39 -17q53 -19 53 -59t-51 -56.5t-187 -16.5q-159 0 -210.5 17t-51.5 63q0 35 51 54q19 7 27 11q27 15 38 50t11 114q0 19 -1 70 t-1 84v108q0 164 -8 214t-29 61q-16 8 -49 18q-63 20 -63 55z" />
<glyph unicode="&#xef;" horiz-adv-x="592" d="M2 1346q0 44 35.5 78t81.5 34t79 -33t33 -79q0 -50 -32 -83.5t-80 -33.5t-82.5 34.5t-34.5 82.5zM29 909q0 23 19.5 41.5t64.5 36.5q79 31 157 50.5t111 19.5q28 0 40.5 -20t12.5 -68q0 -38 -0.5 -62t-1.5 -47l-8 -266v-6q-4 -174 -4 -256q0 -99 9 -140t32 -53 q13 -7 39 -17q53 -19 53 -59t-51 -56.5t-187 -16.5q-159 0 -210.5 17t-51.5 63q0 35 51 54q19 7 27 11q27 15 38 50t11 114q0 19 -1 70t-1 84v108q0 164 -8 214t-29 61q-16 8 -49 18q-63 20 -63 55zM360 1346q0 44 35.5 78t81.5 34q47 0 81 -33.5t34 -78.5q0 -50 -33 -83.5 t-82 -33.5q-47 0 -82 34.5t-35 82.5z" />
<glyph unicode="&#xf0;" horiz-adv-x="1069" d="M57 442q0 214 137.5 357t337.5 143q29 0 57 -4.5t58 -13.5q-29 58 -63 110.5t-72 98.5l-222 -99q-26 -11 -39 -14.5t-24 -3.5q-24 0 -37.5 13t-13.5 38q0 21 11 34.5t53 33.5l194 88q-55 61 -137 138.5t-82 98.5q0 24 19 41t47 17q38 0 132.5 -59t213.5 -159l202 99 q17 8 32.5 12t31.5 4q24 0 36.5 -13t12.5 -38q0 -19 -11 -32.5t-52 -33.5l-177 -79q154 -151 233 -328.5t79 -374.5q0 -241 -136.5 -393t-351.5 -152q-200 0 -334.5 135.5t-134.5 335.5zM324 545q0 -179 73.5 -302.5t173.5 -123.5q80 0 130.5 71.5t50.5 188.5 q0 175 -75.5 299.5t-174.5 124.5q-83 0 -130.5 -69t-47.5 -189z" />
<glyph unicode="&#xf1;" horiz-adv-x="1241" d="M29 909q0 23 19.5 41.5t64.5 36.5q77 30 150 48t108 18q29 0 42 -15.5t13 -50.5v-69q0 -8 1.5 -10t6.5 -3q2 0 5.5 1.5t4.5 2.5l24 22q8 7 22 20q113 106 245 106q75 0 144.5 -32.5t117.5 -88.5q48 -57 68 -136t20 -247v-141q0 -26 -1 -68t-1 -59q0 -74 10.5 -104.5 t36.5 -45.5q10 -5 27 -11q51 -19 51 -54q0 -45 -48 -61.5t-208 -16.5q-146 0 -195.5 15.5t-49.5 55.5t52 59q27 10 39 17q24 13 34 58.5t10 158.5q0 332 -42.5 416t-152.5 84q-56 0 -106.5 -33.5t-77.5 -89.5q-23 -45 -32 -126t-9 -288q0 -101 8.5 -134.5t30.5 -45.5 q13 -7 39 -17q53 -19 53 -59t-51 -56.5t-187 -16.5q-159 0 -210.5 17t-51.5 63q0 35 51 54q19 7 27 11q27 15 38 50t11 114q0 19 -1 70t-1 84v108q0 164 -8 214t-29 61q-16 8 -49 18q-63 20 -63 55zM316 1270q0 62 56.5 121t127.5 59q48 0 129 -28.5t115 -28.5 q28 0 44.5 5.5t25.5 17.5q6 7 16 22q25 39 45 39q21 0 35 -14t14 -36q0 -62 -56.5 -121t-127.5 -59q-60 0 -147 29t-109 29q-41 0 -72 -41t-47 -41q-22 0 -35.5 13t-13.5 34z" />
<glyph unicode="&#xf2;" horiz-adv-x="1171" d="M57 510q0 235 155.5 391t389.5 156q225 0 368.5 -146t143.5 -374q0 -242 -154 -404t-382 -162q-225 0 -373 153t-148 386zM250 1397q0 38 30 80.5t60 42.5q12 0 24 -4.5t32 -16.5l354 -215q17 -12 23 -18.5t6 -14.5q0 -26 -23 -58t-39 -32q-5 0 -12 2t-17 6l-372 168 l-4 2q-62 26 -62 58zM322 602q0 -207 87.5 -346t213.5 -139q102 0 165.5 86t63.5 227q0 204 -88.5 342.5t-212.5 138.5q-103 0 -166 -84.5t-63 -224.5z" />
<glyph unicode="&#xf3;" horiz-adv-x="1171" d="M57 510q0 235 155.5 391t389.5 156q225 0 368.5 -146t143.5 -374q0 -242 -154 -404t-382 -162q-225 0 -373 153t-148 386zM322 602q0 -207 87.5 -346t213.5 -139q102 0 165.5 86t63.5 227q0 204 -88.5 342.5t-212.5 138.5q-103 0 -166 -84.5t-63 -224.5zM398 1251 q0 8 5.5 14.5t22.5 18.5l355 215q19 12 31 16.5t24 4.5q30 0 60 -42.5t30 -80.5q0 -32 -62 -58l-4 -2l-372 -168q-10 -4 -17 -6t-12 -2q-16 0 -38.5 32t-22.5 58z" />
<glyph unicode="&#xf4;" horiz-adv-x="1171" d="M57 510q0 235 155.5 391t389.5 156q225 0 368.5 -146t143.5 -374q0 -242 -154 -404t-382 -162q-225 0 -373 153t-148 386zM277 1190q0 12 27 54l4 6l151 223q23 34 47 45.5t80 11.5t80 -11.5t47 -45.5l151 -223l4 -6q27 -42 27 -54q0 -10 -12.5 -16.5t-32.5 -6.5h-61 q-22 0 -37 8t-31 29l-135 178l-135 -178q-16 -21 -31 -29t-37 -8h-61q-20 0 -32.5 6.5t-12.5 16.5zM322 602q0 -207 87.5 -346t213.5 -139q102 0 165.5 86t63.5 227q0 204 -88.5 342.5t-212.5 138.5q-103 0 -166 -84.5t-63 -224.5z" />
<glyph unicode="&#xf5;" horiz-adv-x="1171" d="M57 510q0 235 155.5 391t389.5 156q225 0 368.5 -146t143.5 -374q0 -242 -154 -404t-382 -162q-225 0 -373 153t-148 386zM281 1270q0 62 56.5 121t127.5 59q48 0 129 -28.5t115 -28.5q28 0 44.5 5.5t25.5 17.5q6 7 16 22q25 39 45 39q21 0 35 -14t14 -36 q0 -62 -56.5 -121t-127.5 -59q-60 0 -147 29t-109 29q-41 0 -72 -41t-47 -41q-22 0 -35.5 13t-13.5 34zM322 602q0 -207 87.5 -346t213.5 -139q102 0 165.5 86t63.5 227q0 204 -88.5 342.5t-212.5 138.5q-103 0 -166 -84.5t-63 -224.5z" />
<glyph unicode="&#xf6;" horiz-adv-x="1171" d="M57 510q0 235 155.5 391t389.5 156q225 0 368.5 -146t143.5 -374q0 -242 -154 -404t-382 -162q-225 0 -373 153t-148 386zM291 1346q0 44 35.5 78t81.5 34t79 -33t33 -79q0 -50 -32 -83.5t-80 -33.5t-82.5 34.5t-34.5 82.5zM322 602q0 -207 87.5 -346t213.5 -139 q102 0 165.5 86t63.5 227q0 204 -88.5 342.5t-212.5 138.5q-103 0 -166 -84.5t-63 -224.5zM649 1346q0 44 35.5 78t81.5 34q47 0 81 -33.5t34 -78.5q0 -50 -33 -83.5t-82 -33.5q-47 0 -82 34.5t-35 82.5z" />
<glyph unicode="&#xf7;" horiz-adv-x="1706" d="M254 528v166h1198v-166h-1198zM717 229q0 57 40.5 97.5t96.5 40.5q57 0 97 -40.5t40 -97.5q0 -56 -39.5 -95.5t-97.5 -39.5t-97.5 39t-39.5 96zM717 989q0 57 40.5 98t96.5 41q57 0 97 -41t40 -98q0 -56 -39.5 -95.5t-97.5 -39.5t-97.5 39t-39.5 96z" />
<glyph unicode="&#xf8;" horiz-adv-x="1171" d="M57 498q0 244 154 401.5t391 157.5q68 0 134 -16.5t130 -49.5l99 133q12 17 24.5 25t26.5 8q19 0 34 -14t15 -31q0 -10 -4.5 -21t-16.5 -26l-94 -133q80 -72 122 -176t42 -228q0 -112 -39.5 -212.5t-113.5 -180.5q-79 -82 -175.5 -123t-210.5 -41q-73 0 -140.5 18.5 t-129.5 55.5l-119 -162q-11 -16 -24.5 -24.5t-28.5 -8.5q-20 0 -33.5 14t-13.5 34q0 9 4.5 20.5t13.5 23.5l121 162q-83 85 -125.5 184.5t-42.5 209.5zM322 602q0 -78 14.5 -148t44.5 -135l356 488q-39 53 -84.5 78.5t-101.5 25.5q-103 0 -166 -84.5t-63 -224.5zM434 223 q40 -54 86.5 -80t102.5 -26q102 0 165.5 86t63.5 227q0 78 -15 148.5t-44 136.5z" />
<glyph unicode="&#xf9;" horiz-adv-x="1241" d="M2 918q0 26 21 43.5t94 42.5q73 24 141 38.5t111 14.5q28 0 40.5 -21t12.5 -67q0 -6 -2 -41q-10 -192 -10 -389q0 -213 44 -294t150 -81q120 0 171.5 105t51.5 360v80q0 81 -11.5 105.5t-47.5 37.5q-16 6 -42 13q-58 16 -58 53q0 25 20.5 42.5t93.5 43.5q73 24 140 38.5 t108 14.5q32 0 44.5 -19.5t12.5 -68.5q0 -11 -2 -58q-12 -222 -12 -430q0 -130 2 -175.5t6 -69.5q8 -43 61 -64h1q6 -2 19 -6q59 -20 59 -55q0 -23 -18.5 -40.5t-63.5 -35.5q-77 -30 -148.5 -48t-109.5 -18q-30 0 -44 16t-14 50v74q0 4 -1.5 5t-4.5 1q-12 0 -37 -26 q-9 -10 -14 -15q-49 -51 -112 -76t-140 -25q-79 0 -147.5 29.5t-114.5 83.5q-49 59 -69.5 143t-20.5 308q0 21 1 70t1 77v21q0 86 -12 109.5t-50 37.5q-15 6 -41 13q-59 16 -59 53zM285 1397q0 38 30 80.5t60 42.5q12 0 24 -4.5t32 -16.5l354 -215q17 -12 23 -18.5t6 -14.5 q0 -26 -23 -58t-39 -32q-5 0 -12 2t-17 6l-372 168l-4 2q-62 26 -62 58z" />
<glyph unicode="&#xfa;" horiz-adv-x="1241" d="M2 918q0 26 21 43.5t94 42.5q73 24 141 38.5t111 14.5q28 0 40.5 -21t12.5 -67q0 -6 -2 -41q-10 -192 -10 -389q0 -213 44 -294t150 -81q120 0 171.5 105t51.5 360v80q0 81 -11.5 105.5t-47.5 37.5q-16 6 -42 13q-58 16 -58 53q0 25 20.5 42.5t93.5 43.5q73 24 140 38.5 t108 14.5q32 0 44.5 -19.5t12.5 -68.5q0 -11 -2 -58q-12 -222 -12 -430q0 -130 2 -175.5t6 -69.5q8 -43 61 -64h1q6 -2 19 -6q59 -20 59 -55q0 -23 -18.5 -40.5t-63.5 -35.5q-77 -30 -148.5 -48t-109.5 -18q-30 0 -44 16t-14 50v74q0 4 -1.5 5t-4.5 1q-12 0 -37 -26 q-9 -10 -14 -15q-49 -51 -112 -76t-140 -25q-79 0 -147.5 29.5t-114.5 83.5q-49 59 -69.5 143t-20.5 308q0 21 1 70t1 77v21q0 86 -12 109.5t-50 37.5q-15 6 -41 13q-59 16 -59 53zM433 1251q0 8 5.5 14.5t22.5 18.5l355 215q19 12 31 16.5t24 4.5q30 0 60 -42.5t30 -80.5 q0 -32 -62 -58l-4 -2l-372 -168q-10 -4 -17 -6t-12 -2q-16 0 -38.5 32t-22.5 58z" />
<glyph unicode="&#xfb;" horiz-adv-x="1241" d="M2 918q0 26 21 43.5t94 42.5q73 24 141 38.5t111 14.5q28 0 40.5 -21t12.5 -67q0 -6 -2 -41q-10 -192 -10 -389q0 -213 44 -294t150 -81q120 0 171.5 105t51.5 360v80q0 81 -11.5 105.5t-47.5 37.5q-16 6 -42 13q-58 16 -58 53q0 25 20.5 42.5t93.5 43.5q73 24 140 38.5 t108 14.5q32 0 44.5 -19.5t12.5 -68.5q0 -11 -2 -58q-12 -222 -12 -430q0 -130 2 -175.5t6 -69.5q8 -43 61 -64h1q6 -2 19 -6q59 -20 59 -55q0 -23 -18.5 -40.5t-63.5 -35.5q-77 -30 -148.5 -48t-109.5 -18q-30 0 -44 16t-14 50v74q0 4 -1.5 5t-4.5 1q-12 0 -37 -26 q-9 -10 -14 -15q-49 -51 -112 -76t-140 -25q-79 0 -147.5 29.5t-114.5 83.5q-49 59 -69.5 143t-20.5 308q0 21 1 70t1 77v21q0 86 -12 109.5t-50 37.5q-15 6 -41 13q-59 16 -59 53zM312 1190q0 12 27 54l4 6l151 223q23 34 47 45.5t80 11.5t80 -11.5t47 -45.5l151 -223l4 -6 q27 -42 27 -54q0 -10 -12.5 -16.5t-32.5 -6.5h-61q-22 0 -37 8t-31 29l-135 178l-135 -178q-16 -21 -31 -29t-37 -8h-61q-20 0 -32.5 6.5t-12.5 16.5z" />
<glyph unicode="&#xfc;" horiz-adv-x="1241" d="M2 918q0 26 21 43.5t94 42.5q73 24 141 38.5t111 14.5q28 0 40.5 -21t12.5 -67q0 -6 -2 -41q-10 -192 -10 -389q0 -213 44 -294t150 -81q120 0 171.5 105t51.5 360v80q0 81 -11.5 105.5t-47.5 37.5q-16 6 -42 13q-58 16 -58 53q0 25 20.5 42.5t93.5 43.5q73 24 140 38.5 t108 14.5q32 0 44.5 -19.5t12.5 -68.5q0 -11 -2 -58q-12 -222 -12 -430q0 -130 2 -175.5t6 -69.5q8 -43 61 -64h1q6 -2 19 -6q59 -20 59 -55q0 -23 -18.5 -40.5t-63.5 -35.5q-77 -30 -148.5 -48t-109.5 -18q-30 0 -44 16t-14 50v74q0 4 -1.5 5t-4.5 1q-12 0 -37 -26 q-9 -10 -14 -15q-49 -51 -112 -76t-140 -25q-79 0 -147.5 29.5t-114.5 83.5q-49 59 -69.5 143t-20.5 308q0 21 1 70t1 77v21q0 86 -12 109.5t-50 37.5q-15 6 -41 13q-59 16 -59 53zM326 1346q0 44 35.5 78t81.5 34t79 -33t33 -79q0 -50 -32 -83.5t-80 -33.5t-82.5 34.5 t-34.5 82.5zM684 1346q0 44 35.5 78t81.5 34q47 0 81 -33.5t34 -78.5q0 -50 -33 -83.5t-82 -33.5q-47 0 -82 34.5t-35 82.5z" />
<glyph unicode="&#xfd;" horiz-adv-x="1042" d="M-51 954q0 46 55 64t207 18t203 -16.5t51 -58.5q0 -18 -6.5 -31.5t-18.5 -20.5q-13 -7 -38 -17q-40 -16 -40 -34q0 -20 21 -77.5t84 -209.5q60 -144 87 -194.5t42 -50.5q10 0 34 49.5t68 163.5q53 134 77 207.5t24 99.5q0 30 -58.5 63t-58.5 60q0 36 47.5 51.5 t165.5 15.5q125 0 169 -16.5t44 -58.5q0 -38 -59 -53q-30 -8 -43 -15q-59 -32 -126 -209q-19 -52 -30 -80l-133 -336q-171 -433 -282 -563.5t-263 -130.5q-76 0 -126 43t-50 109q0 52 36.5 89.5t88.5 37.5q26 0 45.5 -8t32.5 -23q11 -14 28 -39q27 -41 47 -41 q53 0 107.5 76.5t54.5 158.5q0 89 -73 254q-7 17 -11 25q-89 198 -166.5 366t-95.5 203q-18 37 -79 63l-1 1q-36 14 -48.5 28.5t-12.5 36.5zM334 1251q0 8 5.5 14.5t22.5 18.5l355 215q19 12 31 16.5t24 4.5q30 0 60 -42.5t30 -80.5q0 -32 -62 -58l-4 -2l-372 -168 q-10 -4 -17 -6t-12 -2q-16 0 -38.5 32t-22.5 58z" />
<glyph unicode="&#xfe;" horiz-adv-x="1233" d="M-10 1380q0 26 20.5 43.5t93.5 42.5t140 39.5t108 14.5q32 0 45 -19.5t13 -68.5q0 -66 -8.5 -208.5t-8.5 -217.5v-74q0 -13 1.5 -19.5t4.5 -7.5q5 0 41 28l40 30q61 46 121 68t124 22q195 0 317.5 -140.5t122.5 -365.5q0 -250 -138.5 -411t-350.5 -161q-116 0 -235 66 q-20 10 -23 10q-12 0 -18.5 -32t-6.5 -95q0 -67 6.5 -106.5t20.5 -53.5q13 -14 50 -24.5t51 -16.5q13 -6 21.5 -19t8.5 -30q0 -38 -61 -54.5t-209 -16.5q-151 0 -203.5 17t-52.5 61q0 34 44.5 52.5t53.5 26.5q20 20 28.5 110t8.5 343v348v152q0 345 -6.5 454t-22.5 127 q-11 13 -60 27q-22 6 -34 10q-31 10 -39 19.5t-8 29.5zM403 344q0 -62 5 -85t16 -38q34 -46 96.5 -76t124.5 -30q116 0 185 96t69 260q0 176 -75.5 285.5t-192.5 109.5q-111 0 -169.5 -60.5t-58.5 -176.5v-285z" />
<glyph unicode="&#xff;" horiz-adv-x="1042" d="M-51 954q0 46 55 64t207 18t203 -16.5t51 -58.5q0 -18 -6.5 -31.5t-18.5 -20.5q-13 -7 -38 -17q-40 -16 -40 -34q0 -20 21 -77.5t84 -209.5q60 -144 87 -194.5t42 -50.5q10 0 34 49.5t68 163.5q53 134 77 207.5t24 99.5q0 30 -58.5 63t-58.5 60q0 36 47.5 51.5 t165.5 15.5q125 0 169 -16.5t44 -58.5q0 -38 -59 -53q-30 -8 -43 -15q-59 -32 -126 -209q-19 -52 -30 -80l-133 -336q-171 -433 -282 -563.5t-263 -130.5q-76 0 -126 43t-50 109q0 52 36.5 89.5t88.5 37.5q26 0 45.5 -8t32.5 -23q11 -14 28 -39q27 -41 47 -41 q53 0 107.5 76.5t54.5 158.5q0 89 -73 254q-7 17 -11 25q-89 198 -166.5 366t-95.5 203q-18 37 -79 63l-1 1q-36 14 -48.5 28.5t-12.5 36.5zM227 1346q0 44 35.5 78t81.5 34t79 -33t33 -79q0 -50 -32 -83.5t-80 -33.5t-82.5 34.5t-34.5 82.5zM585 1346q0 44 35.5 78t81.5 34 q47 0 81 -33.5t34 -78.5q0 -50 -33 -83.5t-82 -33.5q-47 0 -82 34.5t-35 82.5z" />
<glyph unicode="&#x152;" horiz-adv-x="2265" d="M70 762q0 132 36 251t107 216q98 134 254.5 209t337.5 75q81 0 207 -10t172 -10h745q50 0 103 11.5t55 11.5q14 0 26 -6.5t19 -18.5q22 -37 40.5 -109t18.5 -122q0 -46 -17 -71.5t-48 -25.5q-36 0 -79 71q-20 33 -32 50q-21 32 -68 49t-116 17h-143q-102 0 -153 -11 t-71 -36q-17 -21 -24.5 -89t-7.5 -200v-84q0 -50 8.5 -62t38.5 -12h186q83 0 117 24t43 89q1 8 3 23q15 104 68 104q46 0 63 -56.5t17 -257.5q0 -199 -17 -255t-63 -56q-53 0 -68 104q-2 15 -3 23q-9 64 -43 88.5t-117 24.5h-186q-29 0 -39 -17t-10 -73q0 -13 1 -48.5 t1 -60.5q0 -136 5 -201.5t17 -93.5q14 -34 66.5 -48.5t165.5 -14.5h135q109 0 166 28t100 103q13 23 31 67q32 80 69 80q27 0 42.5 -25.5t15.5 -70.5q0 -53 -16.5 -130t-45.5 -153q-15 -37 -34 -57.5t-40 -20.5q-6 1 -25 6q-68 19 -136 19h-625q-105 0 -260 -18.5 t-209 -18.5q-134 0 -250 35.5t-217 107.5q-154 112 -235.5 280t-81.5 376zM369 848q0 -325 144 -532t364 -207q96 0 168 30.5t92 77.5q17 40 23.5 134.5t6.5 404.5q0 190 -10.5 294.5t-34.5 153.5q-42 87 -121.5 128.5t-201.5 41.5q-197 0 -313.5 -142t-116.5 -384z" />
<glyph unicode="&#x153;" horiz-adv-x="1849" d="M57 498q0 244 151 401.5t382 157.5q119 0 218 -44.5t167 -127.5q78 84 179 128t218 44q192 0 307 -115.5t115 -308.5q0 -64 -19 -84.5t-96 -20.5h-503q-56 0 -67 -9t-11 -48q0 -129 91 -223t220 -94q56 0 108 17t101 52q15 10 40 31q48 41 75 41q23 0 38 -14.5t15 -36.5 q0 -25 -25 -60.5t-69 -72.5q-89 -74 -172.5 -107t-180.5 -33q-116 0 -211.5 44.5t-171.5 134.5q-77 -89 -176 -134t-215 -45q-216 0 -362 151t-146 376zM317 602q0 -208 86 -346.5t209 -138.5q100 0 162 85.5t62 227.5q0 205 -86 343t-209 138q-100 0 -162 -84.5t-62 -224.5 zM1106 686q0 -23 12 -31t51 -8h332q38 0 50 7.5t12 31.5q0 101 -65.5 169.5t-164.5 68.5q-97 0 -162 -69t-65 -169z" />
<glyph unicode="&#x178;" horiz-adv-x="1341" d="M4 1419q0 43 49.5 58.5t251.5 15.5q201 0 250 -15.5t49 -58.5q0 -41 -81 -71l-6 -2q-22 -8 -32 -21t-10 -31q0 -22 45 -98t211 -322q121 173 178.5 269t57.5 125q0 28 -15.5 45.5t-62.5 36.5q-39 15 -52.5 30t-13.5 39q0 43 42.5 58.5t215.5 15.5q168 0 212 -15.5 t44 -58.5q0 -41 -59 -66t-78 -40q-46 -35 -145.5 -185t-251.5 -413q1 -67 2 -183q5 -349 33 -370q13 -10 46 -23q66 -24 66 -67q0 -46 -57 -64t-223 -18q-162 0 -220.5 18t-58.5 64q0 42 65 67q33 13 46 23q33 26 38 450q0 61 1 95l-125 206q-136 225 -197 311.5t-94 108.5 q-16 10 -52 22q-69 23 -69 64zM377 1807q0 44 35.5 78t81.5 34t79 -33t33 -79q0 -50 -32 -83.5t-80 -33.5t-82.5 34.5t-34.5 82.5zM735 1807q0 44 35.5 78t81.5 34q47 0 81 -33.5t34 -78.5q0 -50 -33 -83.5t-82 -33.5q-47 0 -82 34.5t-35 82.5z" />
<glyph unicode="&#x2c6;" horiz-adv-x="1024" d="M203 1190q0 12 27 54l4 6l151 223q23 34 47 45.5t80 11.5t80 -11.5t47 -45.5l151 -223l4 -6q27 -42 27 -54q0 -10 -12.5 -16.5t-32.5 -6.5h-61q-22 0 -37 8t-31 29l-135 178l-135 -178q-16 -21 -31 -29t-37 -8h-61q-20 0 -32.5 6.5t-12.5 16.5z" />
<glyph unicode="&#x2dc;" horiz-adv-x="1024" d="M207 1270q0 62 56.5 121t127.5 59q48 0 129 -28.5t115 -28.5q28 0 44.5 5.5t25.5 17.5q6 7 16 22q25 39 45 39q21 0 35 -14t14 -36q0 -62 -56.5 -121t-127.5 -59q-60 0 -147 29t-109 29q-41 0 -72 -41t-47 -41q-22 0 -35.5 13t-13.5 34z" />
<glyph unicode="&#x2000;" horiz-adv-x="995" />
<glyph unicode="&#x2001;" horiz-adv-x="1991" />
<glyph unicode="&#x2002;" horiz-adv-x="995" />
<glyph unicode="&#x2003;" horiz-adv-x="1991" />
<glyph unicode="&#x2004;" horiz-adv-x="663" />
<glyph unicode="&#x2005;" horiz-adv-x="497" />
<glyph unicode="&#x2006;" horiz-adv-x="331" />
<glyph unicode="&#x2007;" horiz-adv-x="331" />
<glyph unicode="&#x2008;" horiz-adv-x="248" />
<glyph unicode="&#x2009;" horiz-adv-x="398" />
<glyph unicode="&#x200a;" horiz-adv-x="110" />
<glyph unicode="&#x2010;" horiz-adv-x="711" d="M90 471q0 20 8.5 47.5t24.5 61.5q14 29 29 39t59 10q2 0 49.5 -1t93.5 -1q86 0 179 6q23 2 28 2q33 0 47.5 -12t14.5 -39q0 -62 -32.5 -111t-80.5 -49q-13 0 -49 2t-58 2q-119 0 -233 -9q-17 -1 -20 -1q-33 0 -46.5 12t-13.5 41z" />
<glyph unicode="&#x2011;" horiz-adv-x="711" d="M90 471q0 20 8.5 47.5t24.5 61.5q14 29 29 39t59 10q2 0 49.5 -1t93.5 -1q86 0 179 6q23 2 28 2q33 0 47.5 -12t14.5 -39q0 -62 -32.5 -111t-80.5 -49q-13 0 -49 2t-58 2q-119 0 -233 -9q-17 -1 -20 -1q-33 0 -46.5 12t-13.5 41z" />
<glyph unicode="&#x2012;" horiz-adv-x="711" d="M90 471q0 20 8.5 47.5t24.5 61.5q14 29 29 39t59 10q2 0 49.5 -1t93.5 -1q86 0 179 6q23 2 28 2q33 0 47.5 -12t14.5 -39q0 -62 -32.5 -111t-80.5 -49q-13 0 -49 2t-58 2q-119 0 -233 -9q-17 -1 -20 -1q-33 0 -46.5 12t-13.5 41z" />
<glyph unicode="&#x2013;" horiz-adv-x="1024" d="M0 496v63q0 23 8 33t27 10h952q19 0 28 -11t9 -34v-61q0 -23 -8.5 -34t-26.5 -11h-952q-20 0 -28.5 10.5t-8.5 34.5z" />
<glyph unicode="&#x2014;" horiz-adv-x="2048" d="M0 496v63q0 23 8 33t27 10h1976q19 0 28 -11t9 -34v-61q0 -23 -8.5 -34t-26.5 -11h-1976q-20 0 -28.5 10.5t-8.5 34.5z" />
<glyph unicode="&#x2018;" horiz-adv-x="578" d="M150 1096q0 67 27 140t95 179q37 57 59 80t40 23q30 0 49.5 -10t19.5 -23q0 -10 -20 -38q-13 -18 -21 -30q-38 -59 -61 -109.5t-23 -72.5q0 -29 36 -44q1 0 3 -1q56 -22 82.5 -57.5t26.5 -90.5q0 -65 -43.5 -109t-108.5 -44q-69 0 -115 58.5t-46 148.5z" />
<glyph unicode="&#x2019;" horiz-adv-x="578" d="M150 1366q0 65 43 108.5t108 43.5q70 0 116 -59t46 -148q0 -67 -27 -138.5t-96 -179.5q-38 -59 -59.5 -81.5t-38.5 -22.5q-31 0 -51.5 9.5t-20.5 23.5q0 9 21 38q14 19 22 31q38 59 61 109t23 71q0 29 -35 44q-3 1 -4 2q-56 21 -82 57.5t-26 91.5z" />
<glyph unicode="&#x201a;" horiz-adv-x="578" d="M150 143q0 66 43 109t108 43q70 0 116 -58.5t46 -148.5q0 -67 -27 -138t-96 -179q-38 -60 -59.5 -82.5t-38.5 -22.5q-31 0 -51.5 10t-20.5 23q0 9 21 38q14 20 22 32q38 59 61 109t23 71q0 29 -35 43l-4 2q-56 22 -82 58t-26 91z" />
<glyph unicode="&#x201c;" horiz-adv-x="1034" d="M164 1096q0 67 27.5 140t95.5 179q36 57 58 80t40 23q30 0 51 -10t21 -23q0 -9 -20 -35q-15 -20 -23 -33q-38 -59 -61 -109.5t-23 -72.5q0 -29 34 -43q4 -2 5 -2q56 -22 82 -57.5t26 -90.5q0 -65 -43 -109t-108 -44q-70 0 -116 58.5t-46 148.5zM590 1096q0 67 27.5 140 t95.5 179q36 57 58 80t40 23q30 0 51 -10t21 -23q0 -9 -20 -35q-15 -20 -23 -33q-38 -59 -61 -109.5t-23 -72.5q0 -29 34 -43q4 -2 5 -2q56 -22 82 -57.5t26 -90.5q0 -65 -42.5 -109t-106.5 -44q-70 0 -117 58.5t-47 148.5z" />
<glyph unicode="&#x201d;" horiz-adv-x="1034" d="M164 1364q0 65 43 109.5t108 44.5q70 0 116 -59t46 -148q0 -68 -27.5 -140.5t-95.5 -179.5q-36 -57 -58 -79.5t-40 -22.5q-30 0 -50 9.5t-20 23.5q0 9 21 37q13 19 20 30q38 59 61 110t23 72q0 29 -35 44l-4 2q-56 21 -82 57t-26 90zM590 1364q0 65 43 109.5t108 44.5 q70 0 116 -59t46 -148q0 -68 -27.5 -140.5t-95.5 -179.5q-36 -57 -58 -79.5t-40 -22.5q-30 0 -50 9.5t-20 23.5q0 9 21 37q13 19 20 30q38 59 61 110t23 72q0 29 -35 44l-4 2q-56 21 -82 57t-26 90z" />
<glyph unicode="&#x201e;" horiz-adv-x="1034" d="M164 143q0 66 42 109t107 43q70 0 117 -58.5t47 -148.5q0 -67 -27 -138t-96 -179q-38 -60 -59.5 -82.5t-38.5 -22.5q-30 0 -51 10t-21 23q0 9 22 38q14 20 21 32q38 59 61 109t23 71q0 29 -34 43q-3 1 -5 2q-55 22 -81.5 58t-26.5 91zM590 143q0 66 43 109t108 43 q70 0 116 -58.5t46 -148.5q0 -67 -27 -138t-96 -179q-38 -60 -59.5 -82.5t-38.5 -22.5q-30 0 -51 10t-21 23q0 9 21 38q15 20 22 32q38 59 61 109t23 71q0 29 -34 43q-3 1 -5 2q-55 22 -81.5 58t-26.5 91z" />
<glyph unicode="&#x2022;" horiz-adv-x="1208" d="M307 762q0 123 87 209t210 86q122 0 208.5 -86.5t86.5 -208.5t-87.5 -209.5t-209.5 -87.5q-123 0 -209 87t-86 210z" />
<glyph unicode="&#x2026;" horiz-adv-x="2048" d="M180 133q0 69 47 115.5t115 46.5t115 -46.5t47 -115.5q0 -67 -47.5 -114.5t-114.5 -47.5q-68 0 -115 47.5t-47 114.5zM862 133q0 69 47 115.5t115 46.5t115 -46.5t47 -115.5q0 -67 -47.5 -114.5t-114.5 -47.5q-68 0 -115 47.5t-47 114.5zM1546 133q0 69 47 115.5 t115 46.5t115 -46.5t47 -115.5q0 -67 -47.5 -114.5t-114.5 -47.5q-68 0 -115 47.5t-47 114.5z" />
<glyph unicode="&#x202f;" horiz-adv-x="398" />
<glyph unicode="&#x2039;" horiz-adv-x="541" d="M55 518q0 26 65 94q17 18 25 27q28 29 76 82q185 201 228 201q14 0 23 -10.5t9 -26.5q0 -32 -55.5 -126.5t-159.5 -240.5q106 -148 160.5 -240.5t54.5 -123.5q0 -16 -8.5 -26.5t-19.5 -10.5q-41 0 -150 116q-30 32 -47 50q-25 26 -68 70q-133 137 -133 165z" />
<glyph unicode="&#x203a;" horiz-adv-x="541" d="M59 154q0 32 55 125.5t158 238.5q-103 145 -158 239t-55 126q0 16 9 27.5t20 11.5q40 0 144 -113q33 -35 53 -55q24 -26 68 -71q132 -137 132 -165q0 -24 -58 -83q-22 -22 -34 -36q-27 -29 -75 -81q-185 -201 -228 -201q-14 0 -22.5 10t-8.5 27z" />
<glyph unicode="&#x205f;" horiz-adv-x="497" />
<glyph unicode="&#x20ac;" d="M23 553q0 23 17.5 34t53.5 11h84q-1 14 -1.5 28t-0.5 44t0.5 44.5t1.5 26.5h-84q-37 0 -54 10.5t-17 32.5q0 23 17.5 34t53.5 11h96q41 223 179 358.5t325 135.5q62 0 128.5 -25.5t80.5 -25.5q16 0 42.5 8t39.5 8q49 0 83 -72.5t34 -179.5q0 -52 -20.5 -81t-57.5 -29 q-48 0 -86 78q-16 32 -27 49q-42 65 -94 95t-125 30q-113 0 -174.5 -86.5t-72.5 -262.5h350q37 0 54 -10t17 -33q0 -22 -17.5 -33.5t-53.5 -11.5h-353q0 -35 2 -72t5 -71h274q37 0 54.5 -10.5t17.5 -32.5q0 -23 -18 -34t-54 -11h-264q24 -193 93 -293t177 -100 q60 0 120.5 31.5t112.5 88.5q14 15 34 42q33 45 55 45q24 0 38.5 -23t14.5 -61q0 -75 -32 -135t-71 -60q-2 0 -11 2t-13 2q-10 0 -32 -13q-13 -7 -21 -11q-45 -25 -102 -38.5t-117 -13.5q-213 0 -349 141.5t-170 395.5h-92q-37 0 -54 10.5t-17 32.5z" />
<glyph unicode="&#x2122;" horiz-adv-x="1683" d="M233 1260l11 188h448l10 -188h-30q-8 80 -40 116.5t-93 36.5h-11v-422q0 -23 10.5 -37t28.5 -16l31 -4v-29h-260v29l32 4q19 2 28.5 15.5t9.5 37.5v422h-15q-59 0 -91 -37.5t-40 -115.5h-29zM770 905v29l33 4q20 2 30.5 15t10.5 36v373q0 23 -11 37t-30 16l-33 2v31h199 l135 -381l137 381h189v-27l-28 -2q-19 -3 -29.5 -16.5t-10.5 -36.5v-375q0 -23 10.5 -36.5t30.5 -16.5l27 -4v-29h-246v29l30 4q20 2 29.5 15.5t9.5 37.5v375l-163 -463h-27l-170 469v-381q0 -24 10 -38t29 -15l35 -4v-29h-197z" />
<glyph unicode="&#xe000;" horiz-adv-x="1035" d="M0 0v1035h1035v-1035h-1035z" />
</font>
</defs>
</svg>
